<svg width="144" height="56" viewBox="0 0 144 56" fill="none" xmlns="http://www.w3.org/2000/svg">
<path d="M56.0469 41.6328C55.0443 41.8835 54.1442 42.1341 53.3467 42.3848C52.5492 42.6354 51.6491 42.9544 50.6465 43.3418L50.5439 43.2734V40.0264L48.835 41.7012C48.3109 42.248 47.6956 42.6696 46.9893 42.9658C46.2829 43.2393 45.5651 43.376 44.8359 43.376C43.4004 43.376 42.2497 42.9202 41.3838 42.0088C40.5407 41.0973 40.1191 39.8669 40.1191 38.3174V28.542C40.1191 27.6305 39.9482 27.0039 39.6064 26.6621C39.2874 26.3203 38.6494 26.1152 37.6924 26.0469V25.3633H43.3662V38.1807C43.3662 39.001 43.6396 39.7074 44.1865 40.2998C44.7334 40.8695 45.3942 41.1543 46.1689 41.1543C46.7614 41.1543 47.3538 41.0404 47.9463 40.8125C48.5615 40.5618 49.1312 40.1973 49.6553 39.7188C49.9059 39.5365 50.0882 39.2972 50.2021 39.001C50.3161 38.682 50.373 38.2604 50.373 37.7363V28.5078C50.373 28.0293 50.3275 27.6419 50.2363 27.3457C50.168 27.0267 50.0199 26.776 49.792 26.5938C49.5869 26.4115 49.2907 26.2861 48.9033 26.2178C48.516 26.1266 48.026 26.0697 47.4336 26.0469V25.3633H53.6201V38.8301C53.6201 39.7415 53.7682 40.3454 54.0645 40.6416C54.3607 40.915 54.9531 41.0518 55.8418 41.0518H56.0469V41.6328ZM68.5225 30.7637C68.0895 29.0091 67.554 27.7673 66.916 27.0381C66.278 26.3089 65.4007 25.9443 64.2842 25.9443C63.3727 25.9443 62.6436 26.195 62.0967 26.6963C61.5498 27.1748 61.2764 27.8128 61.2764 28.6104C61.2764 29.7269 61.8346 30.6156 62.9512 31.2764L67.1553 33.7715C68.3402 34.4779 69.1833 35.1842 69.6846 35.8906C70.1859 36.5742 70.4365 37.4059 70.4365 38.3857C70.4365 39.0693 70.2884 39.7188 69.9922 40.334C69.696 40.9492 69.2972 41.4847 68.7959 41.9404C68.3174 42.3734 67.7477 42.7266 67.0869 43C66.4261 43.2507 65.7197 43.376 64.9678 43.376C64.5576 43.376 64.1133 43.3418 63.6348 43.2734C63.1562 43.2279 62.6322 43.1367 62.0625 43C61.6068 42.8861 61.2536 42.8063 61.0029 42.7607C60.7523 42.7152 60.513 42.6924 60.2852 42.6924C60.0573 42.6924 59.8864 42.7266 59.7725 42.7949C59.6585 42.8633 59.5332 42.9886 59.3965 43.1709H58.8838V37.0869H59.499C59.7269 38.0895 59.9889 38.9326 60.2852 39.6162C60.5814 40.2998 60.9232 40.8581 61.3105 41.291C61.6979 41.724 62.1536 42.043 62.6777 42.248C63.2018 42.4303 63.7943 42.5215 64.4551 42.5215C65.4805 42.5215 66.278 42.2708 66.8477 41.7695C67.4401 41.2682 67.7363 40.5846 67.7363 39.7188C67.7363 38.5566 67.0527 37.5882 65.6855 36.8135L63.4297 35.5146C62.5866 35.0361 61.8688 34.5804 61.2764 34.1475C60.7067 33.7145 60.2396 33.2816 59.875 32.8486C59.5104 32.3929 59.2484 31.9258 59.0889 31.4473C58.9294 30.9688 58.8496 30.4561 58.8496 29.9092C58.8496 29.2028 58.9749 28.5534 59.2256 27.9609C59.499 27.3685 59.8636 26.8558 60.3193 26.4229C60.7979 25.9899 61.3675 25.6595 62.0283 25.4316C62.6891 25.2038 63.4183 25.0898 64.2158 25.0898C65.1273 25.0898 66.0046 25.2493 66.8477 25.5684C67.3262 25.7734 67.6908 25.876 67.9414 25.876C68.0326 25.876 68.1009 25.8532 68.1465 25.8076C68.1921 25.762 68.306 25.6595 68.4883 25.5L68.5225 25.4316H69.001L69.1377 30.7637H68.5225ZM72.3848 27.0381C72.9316 26.8786 73.4329 26.7305 73.8887 26.5938C74.3444 26.4342 74.7887 26.2747 75.2217 26.1152C75.6546 25.9557 76.0876 25.7962 76.5205 25.6367C76.9762 25.4544 77.4661 25.2607 77.9902 25.0557L78.2295 25.124V28.1318C79.0954 27.0381 79.9727 26.252 80.8613 25.7734C81.7728 25.2949 82.7754 25.0557 83.8691 25.0557C84.8034 25.0557 85.6693 25.2607 86.4668 25.6709C87.2643 26.0811 87.9479 26.6621 88.5176 27.4141C89.11 28.1432 89.5658 29.0205 89.8848 30.0459C90.2266 31.0485 90.3975 32.1536 90.3975 33.3613C90.3975 34.7741 90.181 36.0957 89.748 37.3262C89.3379 38.5339 88.7568 39.5934 88.0049 40.5049C87.2757 41.3936 86.4098 42.0999 85.4072 42.624C84.4046 43.1253 83.3223 43.376 82.1602 43.376C81.75 43.376 81.374 43.3418 81.0322 43.2734C80.7132 43.2279 80.4056 43.1367 80.1094 43C79.8132 42.8861 79.5055 42.7266 79.1865 42.5215C78.8903 42.2936 78.5713 42.0202 78.2295 41.7012V47.8535C78.2295 48.4688 78.2751 48.9587 78.3662 49.3232C78.4574 49.7106 78.6283 50.0068 78.8789 50.2119C79.1296 50.4398 79.4714 50.5879 79.9043 50.6562C80.36 50.7474 80.9525 50.793 81.6816 50.793V51.4766H72.2139V50.8271C72.7835 50.7588 73.2507 50.679 73.6152 50.5879C73.9798 50.4967 74.2646 50.3486 74.4697 50.1436C74.6748 49.9385 74.8115 49.6764 74.8799 49.3574C74.9482 49.0384 74.9824 48.6283 74.9824 48.127V29.875C74.9824 28.9408 74.8799 28.3369 74.6748 28.0635C74.4697 27.7673 74.0368 27.6191 73.376 27.6191C73.1937 27.6191 73.0228 27.6191 72.8633 27.6191C72.7266 27.6191 72.5671 27.6305 72.3848 27.6533V27.0381ZM78.2295 39.582C78.2295 39.8783 78.3548 40.1745 78.6055 40.4707C78.8561 40.7669 79.1751 41.0404 79.5625 41.291C79.9499 41.5417 80.3828 41.7467 80.8613 41.9062C81.3626 42.0658 81.8411 42.1455 82.2969 42.1455C83.0033 42.1455 83.6413 41.9746 84.2109 41.6328C84.8034 41.2682 85.3047 40.7783 85.7148 40.1631C86.125 39.5251 86.444 38.7617 86.6719 37.873C86.8997 36.9844 87.0137 36.0046 87.0137 34.9336C87.0137 33.7943 86.8997 32.7575 86.6719 31.8232C86.444 30.889 86.1136 30.1029 85.6807 29.4648C85.2705 28.804 84.7692 28.3027 84.1768 27.9609C83.5843 27.5964 82.9235 27.4141 82.1943 27.4141C81.7386 27.4141 81.2715 27.4938 80.793 27.6533C80.3372 27.8128 79.9157 28.0179 79.5283 28.2686C79.141 28.5192 78.8219 28.7926 78.5713 29.0889C78.3434 29.3851 78.2295 29.6813 78.2295 29.9775V39.582ZM98.5322 25.1582V39.0352C98.5322 39.7415 98.555 40.3112 98.6006 40.7441C98.6689 41.1543 98.8057 41.4847 99.0107 41.7354C99.2158 41.9632 99.5007 42.1227 99.8652 42.2139C100.253 42.305 100.777 42.3848 101.438 42.4531V43H92.1748V42.4531C92.8584 42.4076 93.3939 42.3392 93.7812 42.248C94.1914 42.1341 94.499 41.9632 94.7041 41.7354C94.932 41.4847 95.0801 41.1543 95.1484 40.7441C95.2168 40.3112 95.251 39.7415 95.251 39.0352V29.9775C95.251 29.1117 95.1484 28.5078 94.9434 28.166C94.7611 27.8014 94.4421 27.6191 93.9863 27.6191C93.804 27.6191 93.5876 27.6305 93.3369 27.6533C93.109 27.6761 92.8698 27.7103 92.6191 27.7559L92.3457 27.79V27.209L98.3613 25.0557L98.5322 25.1582ZM96.584 16.3398C97.1309 16.3398 97.598 16.5449 97.9854 16.9551C98.3727 17.3424 98.5664 17.8096 98.5664 18.3564C98.5664 18.9261 98.3727 19.4046 97.9854 19.792C97.6208 20.1566 97.1423 20.3389 96.5498 20.3389C95.9801 20.3389 95.513 20.1566 95.1484 19.792C94.7839 19.4046 94.6016 18.9261 94.6016 18.3564C94.6016 17.8096 94.7952 17.3424 95.1826 16.9551C95.57 16.5449 96.0371 16.3398 96.584 16.3398ZM102.702 27.209C103.272 27.0039 103.796 26.8216 104.274 26.6621C104.753 26.4798 105.209 26.3089 105.642 26.1494C106.097 25.9671 106.542 25.7962 106.975 25.6367C107.43 25.4544 107.92 25.2607 108.444 25.0557L108.684 25.124V28.7129C109.162 28.0065 109.595 27.4255 109.982 26.9697C110.37 26.4912 110.746 26.1152 111.11 25.8418C111.475 25.5456 111.828 25.3405 112.17 25.2266C112.535 25.1126 112.922 25.0557 113.332 25.0557C113.993 25.0557 114.517 25.2493 114.904 25.6367C115.292 26.0013 115.485 26.4912 115.485 27.1064C115.485 27.6761 115.349 28.1204 115.075 28.4395C114.802 28.7357 114.437 28.8838 113.981 28.8838C113.731 28.8838 113.48 28.8382 113.229 28.7471C113.002 28.6331 112.728 28.4167 112.409 28.0977C112.204 27.9154 112.01 27.7786 111.828 27.6875C111.646 27.5964 111.498 27.5508 111.384 27.5508C111.11 27.5508 110.814 27.6647 110.495 27.8926C110.199 28.0977 109.914 28.3597 109.641 28.6787C109.367 28.9977 109.139 29.3395 108.957 29.7041C108.775 30.0687 108.684 30.4105 108.684 30.7295V39.5137C108.684 40.0605 108.729 40.5163 108.82 40.8809C108.911 41.2454 109.082 41.5417 109.333 41.7695C109.584 41.9746 109.925 42.1341 110.358 42.248C110.791 42.362 111.338 42.4303 111.999 42.4531V43H102.6V42.4531C103.215 42.3392 103.705 42.2253 104.069 42.1113C104.457 41.9746 104.742 41.8151 104.924 41.6328C105.129 41.4505 105.254 41.2113 105.3 40.915C105.368 40.596 105.402 40.1973 105.402 39.7188V29.9775C105.402 29.1117 105.3 28.5078 105.095 28.166C104.89 27.8014 104.548 27.6191 104.069 27.6191C103.819 27.6191 103.591 27.6305 103.386 27.6533C103.203 27.6761 102.976 27.7217 102.702 27.79V27.209ZM122.424 25.1582V39.0352C122.424 39.7415 122.447 40.3112 122.492 40.7441C122.561 41.1543 122.697 41.4847 122.902 41.7354C123.107 41.9632 123.392 42.1227 123.757 42.2139C124.144 42.305 124.668 42.3848 125.329 42.4531V43H116.066V42.4531C116.75 42.4076 117.285 42.3392 117.673 42.248C118.083 42.1341 118.391 41.9632 118.596 41.7354C118.824 41.4847 118.972 41.1543 119.04 40.7441C119.108 40.3112 119.143 39.7415 119.143 39.0352V29.9775C119.143 29.1117 119.04 28.5078 118.835 28.166C118.653 27.8014 118.334 27.6191 117.878 27.6191C117.696 27.6191 117.479 27.6305 117.229 27.6533C117.001 27.6761 116.761 27.7103 116.511 27.7559L116.237 27.79V27.209L122.253 25.0557L122.424 25.1582ZM120.476 16.3398C121.022 16.3398 121.49 16.5449 121.877 16.9551C122.264 17.3424 122.458 17.8096 122.458 18.3564C122.458 18.9261 122.264 19.4046 121.877 19.792C121.512 20.1566 121.034 20.3389 120.441 20.3389C119.872 20.3389 119.405 20.1566 119.04 19.792C118.675 19.4046 118.493 18.9261 118.493 18.3564C118.493 17.8096 118.687 17.3424 119.074 16.9551C119.462 16.5449 119.929 16.3398 120.476 16.3398ZM140.676 38.8984C140.676 39.7643 140.756 40.3682 140.915 40.71C141.075 41.029 141.382 41.1885 141.838 41.1885C142.362 41.1885 142.932 40.9492 143.547 40.4707V41.4619C142.886 42.1911 142.305 42.6924 141.804 42.9658C141.302 43.2393 140.721 43.376 140.061 43.376C139.263 43.376 138.671 43.1595 138.283 42.7266C137.919 42.2708 137.691 41.5189 137.6 40.4707C136.415 41.4961 135.378 42.2367 134.489 42.6924C133.601 43.1481 132.735 43.376 131.892 43.376C130.661 43.376 129.659 42.9886 128.884 42.2139C128.132 41.4391 127.756 40.4365 127.756 39.2061C127.756 38.5908 127.87 37.9756 128.098 37.3604C128.348 36.7223 128.701 36.2096 129.157 35.8223C129.567 35.4577 129.943 35.1501 130.285 34.8994C130.65 34.626 131.117 34.3525 131.687 34.0791C132.256 33.7829 132.997 33.4525 133.908 33.0879C134.82 32.7233 136.027 32.2334 137.531 31.6182V29.123C137.531 28.0521 137.269 27.2432 136.745 26.6963C136.244 26.1494 135.515 25.876 134.558 25.876C133.76 25.876 133.088 26.0697 132.541 26.457C132.017 26.8216 131.755 27.266 131.755 27.79C131.755 27.9951 131.778 28.2572 131.823 28.5762C131.892 28.8952 131.926 29.1572 131.926 29.3623C131.926 29.818 131.743 30.2054 131.379 30.5244C131.037 30.8434 130.638 31.0029 130.183 31.0029C129.727 31.0029 129.328 30.8434 128.986 30.5244C128.667 30.1826 128.508 29.7839 128.508 29.3281C128.508 28.8268 128.645 28.3141 128.918 27.79C129.214 27.266 129.613 26.7988 130.114 26.3887C130.638 25.9329 131.333 25.5798 132.199 25.3291C133.088 25.0785 134.045 24.9531 135.07 24.9531C136.255 24.9531 137.246 25.1582 138.044 25.5684C138.864 25.9557 139.491 26.5026 139.924 27.209C140.197 27.6647 140.391 28.2002 140.505 28.8154C140.619 29.4079 140.676 30.2168 140.676 31.2422V38.8984ZM137.531 32.5752C136.346 33.0081 135.332 33.4297 134.489 33.8398C133.669 34.2272 132.997 34.6374 132.473 35.0703C131.971 35.4805 131.607 35.9248 131.379 36.4033C131.151 36.8818 131.037 37.4059 131.037 37.9756V38.1465C131.037 38.5566 131.105 38.9554 131.242 39.3428C131.379 39.7074 131.561 40.0264 131.789 40.2998C132.04 40.5732 132.325 40.7897 132.644 40.9492C132.963 41.1087 133.293 41.1885 133.635 41.1885C134.045 41.1885 134.501 41.1087 135.002 40.9492C135.526 40.7669 136.016 40.5505 136.472 40.2998C136.927 40.0492 137.212 39.7871 137.326 39.5137C137.463 39.2402 137.531 38.8073 137.531 38.2148V32.5752Z" fill="#F5F5F5"/>
<path d="M17.9375 22.0769C17.7917 22 17.6458 21.8462 17.5 21.7692C16.0417 20.6154 14.4375 19.5385 13.3437 18C11.2292 15.0769 12.9063 11.5385 16.3333 11.1539C16.6979 11.0769 17.0625 11.1539 17.4271 11.1539C20.5625 11.3077 23.4063 13.5385 24.7188 17.0769C24.9375 17.6154 25.0833 18.2308 25.3021 18.7692C25.4479 19 25.8125 19.2308 26.0313 19.2308C26.1771 19.2308 26.5417 18.7692 26.4688 18.5385C26.25 15.6154 25.9583 12.6154 25.5937 9.69232C25.5208 8.92309 24.7917 8.76924 24.5 9.38463C23.6979 11.0769 22.5313 10.4615 21.2917 10.1539C19.9792 9.76924 18.6667 9.38463 17.2813 9.15386C16.9167 9.07693 16.4792 9.07693 16.1146 9.00001C13.2708 8.92309 9.625 11.3077 8.60417 14.0769C7.21875 17.6154 7.58333 21.0769 10.1354 23.6154C10.8646 24.3846 11.7396 25 12.6146 25.6154H0H35H22.9688C21.3646 24.3846 19.5417 23.3077 17.9375 22.0769Z" fill="#45A0E0"/>
<path d="M24.1354 26.4616C26.9792 28.7693 28.4375 31.9231 27.3437 35.7693C26.3958 39.2308 23.2604 41.9231 19.4687 42.0769C16.0417 42.2308 13.4167 41.2308 13.4167 41.2308C12.9062 41.0769 10.5729 39.6923 9.625 41.9231C9.625 41.9231 8.67708 41.6923 8.67708 41.5385C8.16667 38.3846 7.80208 35.3077 7.36458 32.1539C7.51042 32 7.72917 31.9231 7.875 31.7693C8.23958 32.1539 8.60417 32.5385 8.89583 33.0769C9.69792 34.4616 10.3542 35.9231 11.3021 37.2308C12.9062 39.5385 15.1667 40.5385 17.7187 40.4616C18.0833 40.4616 18.4479 40.4616 18.8125 40.3846C20.7812 40.1539 22.3125 39.0769 22.9687 37.0769C23.625 35.0769 22.8958 33.6154 21.3646 32.2308C20.1979 31.1539 18.9583 30.1539 17.7187 29.2308C16.9167 28.6154 16.1146 28 15.3125 27.3846C14.5104 26.7693 13.6354 26.1539 12.7604 25.6154H0V44.0769H17.7187H25.0104C30.5521 44.0769 35.0729 39.3846 35.0729 33.6154V25.5385H22.8958C23.2604 25.8462 23.6979 26.1539 24.1354 26.4616Z" fill="#F6AE2C"/>
</svg>
