<svg width="49" height="46" viewBox="0 0 49 46" fill="none" xmlns="http://www.w3.org/2000/svg">
<path d="M11.1961 21.664H7.94786V7.36987C7.94786 1.44045 12.2788 0.311042 14.4443 0.487513L43.0245 0.487513C48.2217 0.487513 49.16 5.42869 48.9796 7.89928V32.7816C48.9796 37.864 43.9268 39.1346 41.4004 39.1346H25.813V35.9581H29.0612H41.9418C44.9735 35.9581 45.7314 33.8405 45.7314 32.7816V7.36987C45.7314 4.40516 43.205 3.66398 41.9418 3.66398H14.4443C11.4126 3.66398 11.0156 6.13457 11.1961 7.36987V21.664Z" fill="#F6AE2C"/>
<path d="M16.0684 14.2522C15.2022 15.0993 15.7075 16.3699 16.0684 16.8993C19.1361 20.9581 25.4882 29.2875 26.3544 30.1346C27.2205 30.9816 28.1589 31.1934 28.5198 31.1934C30.6853 31.1934 32.3094 28.0169 32.8508 26.4287C33.2839 25.1581 34.114 25.5463 34.4749 25.8993L40.9713 32.7816V28.5463C40.4299 28.0169 38.6975 26.2169 36.099 23.2522C33.5004 20.2875 31.4071 22.3699 30.6853 23.7816L28.5198 27.4875C25.4521 23.4287 19.2083 15.2052 18.7752 14.7816C18.2338 14.2522 17.1511 13.1934 16.0684 14.2522Z" fill="#F6AE2C"/>
<path d="M11.1961 21.664H7.94786V7.36987C7.94786 1.44045 12.2788 0.311042 14.4443 0.487513L43.0245 0.487513C48.2217 0.487513 49.16 5.42869 48.9796 7.89928V32.7816C48.9796 37.864 43.9268 39.1346 41.4004 39.1346H25.813V35.9581H29.0612H41.9418C44.9735 35.9581 45.7314 33.8405 45.7314 32.7816V7.36987C45.7314 4.40516 43.205 3.66398 41.9418 3.66398H14.4443C11.4126 3.66398 11.0156 6.13457 11.1961 7.36987V21.664Z" stroke="#F6AE2C"/>
<path d="M16.0684 14.2522C15.2022 15.0993 15.7075 16.3699 16.0684 16.8993C19.1361 20.9581 25.4882 29.2875 26.3544 30.1346C27.2205 30.9816 28.1589 31.1934 28.5198 31.1934C30.6853 31.1934 32.3094 28.0169 32.8508 26.4287C33.2839 25.1581 34.114 25.5463 34.4749 25.8993L40.9713 32.7816V28.5463C40.4299 28.0169 38.6975 26.2169 36.099 23.2522C33.5004 20.2875 31.4071 22.3699 30.6853 23.7816L28.5198 27.4875C25.4521 23.4287 19.2083 15.2052 18.7752 14.7816C18.2338 14.2522 17.1511 13.1934 16.0684 14.2522Z" stroke="#F6AE2C"/>
<ellipse cx="37.4039" cy="12" rx="4.03366" ry="4" fill="#F6AE2C"/>
<path d="M0.910084 37.5294L18.2338 37.5294" stroke="#F6AE2C" stroke-width="3"/>
<path d="M9.57196 29.0588L9.57197 46" stroke="#F6AE2C" stroke-width="3"/>
</svg>
