<svg width="48" height="48" viewBox="0 0 48 48" fill="none" xmlns="http://www.w3.org/2000/svg">
<rect width="48" height="48" fill="#242428"/>
<path d="M18.9707 6.5963C15.2496 7.59336 11.9615 9.79041 9.61632 12.8467C7.27116 15.903 6 19.6477 6 23.5C6 27.3524 7.27116 31.0971 9.61632 34.1533C11.9615 37.2096 15.2496 39.4066 18.9707 40.4037" stroke="#45A0E0" stroke-width="4"/>
<path d="M42.3793 23.5L43.941 22.2506L44.9405 23.5L43.941 24.7494L42.3793 23.5ZM19.8793 25.5C18.7747 25.5 17.8793 24.6046 17.8793 23.5C17.8793 22.3954 18.7747 21.5 19.8793 21.5L19.8793 25.5ZM33.941 9.75061L43.941 22.2506L40.8175 24.7494L30.8175 12.2494L33.941 9.75061ZM43.941 24.7494L33.941 37.2494L30.8175 34.7506L40.8175 22.2506L43.941 24.7494ZM42.3793 25.5L19.8793 25.5L19.8793 21.5L42.3793 21.5L42.3793 25.5Z" fill="#45A0E0"/>
</svg>
