<svg width="32" height="32" viewBox="0 0 32 32" fill="none" xmlns="http://www.w3.org/2000/svg">
<path d="M0 0H32V22C32 27.5228 27.5228 32 22 32H0V0Z" fill="#2F2F35"/>
<path d="M16.3659 11.9309C16.2328 11.8607 16.0998 11.7203 15.9667 11.6502C14.6362 10.5976 13.1726 9.61519 12.1746 8.21176C10.2453 5.54523 11.7755 2.31732 14.9023 1.96646C15.2349 1.89629 15.5676 1.96646 15.9002 1.96646C18.7609 2.10681 21.3555 4.14179 22.553 7.36969C22.7526 7.8609 22.8857 8.42227 23.0852 8.91347C23.2183 9.12399 23.5509 9.3345 23.7505 9.3345C23.8836 9.3345 24.2162 8.91347 24.1497 8.70296C23.9501 6.03643 23.684 3.29973 23.3514 0.633198C23.2848 -0.0685199 22.6195 -0.208864 22.3534 0.352511C21.6216 1.89629 20.5572 1.33492 19.4262 1.05423C18.2287 0.70337 17.0312 0.352511 15.7672 0.141996C15.4345 0.0718238 15.0353 0.0718238 14.7027 0.00165195C12.1081 -0.0685199 8.78171 2.10681 7.85031 4.63299C6.58628 7.8609 6.91892 11.0186 9.2474 13.3343C9.91268 14.036 10.711 14.5974 11.5094 15.1588H0H31.9335H20.9563C19.4927 14.036 17.8295 13.0536 16.3659 11.9309Z" fill="#45A0E0"/>
<path d="M22.0208 15.9307C24.6154 18.0358 25.9459 20.9129 24.948 24.4214C24.0832 27.5792 21.2225 30.0352 17.763 30.1755C14.6362 30.3159 12.2412 29.4036 12.2412 29.4036C11.7755 29.2633 9.64657 28.0002 8.78171 30.0352C8.78171 30.0352 7.91684 29.8247 7.91684 29.6843C7.45114 26.8073 7.1185 24.0004 6.71934 21.1234C6.85239 20.983 7.05198 20.9129 7.18503 20.7725C7.51767 21.1234 7.85031 21.4742 8.11642 21.9654C8.84823 23.2285 9.44699 24.5618 10.3119 25.7547C11.7755 27.8599 13.8378 28.7721 16.1663 28.7019C16.499 28.7019 16.8316 28.7019 17.1642 28.6318C18.9605 28.4212 20.3576 27.4388 20.9563 25.6144C21.5551 23.7899 20.8898 22.4566 19.4927 21.1935C18.4283 20.2111 17.2973 19.2989 16.1663 18.4568C15.4345 17.8955 14.7027 17.3341 13.9709 16.7727C13.2391 16.2113 12.4407 15.65 11.6424 15.1588H0V32H16.1663H22.8191C27.8753 32 32 27.7195 32 22.4566V15.0886H20.8898C21.2225 15.3693 21.6216 15.65 22.0208 15.9307Z" fill="#F6AE2C"/>
</svg>
