<svg width="32" height="32" viewBox="0 0 32 32" fill="none" xmlns="http://www.w3.org/2000/svg">
<path d="M0 0H32V22C32 27.5228 27.5228 32 22 32H0V0Z" fill="#2F2F35"/>
<path d="M16.3659 13.1852C16.2328 13.1194 16.0998 12.9878 15.9667 12.922C14.6362 11.9352 13.1726 11.0142 12.1746 9.69852C10.2453 7.19865 11.7755 4.17249 14.9023 3.84356C15.2349 3.77777 15.5676 3.84356 15.9002 3.84356C18.7609 3.97513 21.3555 5.88293 22.553 8.90909C22.7526 9.36959 22.8857 9.89588 23.0852 10.3564C23.2183 10.5537 23.5509 10.7511 23.7505 10.7511C23.8836 10.7511 24.2162 10.3564 24.1497 10.159C23.9501 7.65915 23.684 5.09349 23.3514 2.59362C23.2848 1.93576 22.6195 1.80419 22.3534 2.33048C21.6216 3.77777 20.5572 3.25148 19.4262 2.98834C18.2287 2.65941 17.0312 2.33048 15.7672 2.13312C15.4345 2.06733 15.0353 2.06733 14.7027 2.00155C12.1081 1.93576 8.78171 3.97513 7.85031 6.34343C6.58628 9.36959 6.91892 12.33 9.2474 14.5009C9.91268 15.1588 10.711 15.6851 11.5094 16.2113H0H31.9335H20.9563C19.4927 15.1588 17.8295 14.2378 16.3659 13.1852Z" fill="#45A0E0"/>
<path d="M22.0208 16.935C24.6154 18.9086 25.9459 21.6058 24.948 24.8951C24.0832 27.8555 21.2225 30.158 17.763 30.2896C14.6362 30.4211 12.2412 29.5659 12.2412 29.5659C11.7755 29.4343 9.64657 28.2502 8.78171 30.158C8.78171 30.158 7.91684 29.9606 7.91684 29.8291C7.45114 27.1318 7.1185 24.5004 6.71934 21.8032C6.85239 21.6716 7.05198 21.6058 7.18503 21.4742C7.51767 21.8032 7.85031 22.1321 8.11642 22.5926C8.84823 23.7767 9.44699 25.0267 10.3119 26.145C11.7755 28.1186 13.8378 28.9738 16.1663 28.9081C16.499 28.9081 16.8316 28.9081 17.1642 28.8423C18.9605 28.6449 20.3576 27.7239 20.9563 26.0135C21.5551 24.303 20.8898 23.0531 19.4927 21.8689C18.4283 20.9479 17.2973 20.0927 16.1663 19.3033C15.4345 18.777 14.7027 18.2507 13.9709 17.7244C13.2391 17.1981 12.4407 16.6718 11.6424 16.2113H0V32H16.1663H22.8191C27.8753 32 32 27.9871 32 23.0531V16.1456H20.8898C21.2225 16.4087 21.6216 16.6718 22.0208 16.935Z" fill="#F6AE2C"/>
</svg>
