<svg width="25" height="26" viewBox="0 0 25 26" fill="none" xmlns="http://www.w3.org/2000/svg">
<path fill-rule="evenodd" clip-rule="evenodd" d="M14.0031 5.71986L16.8336 2.88931C18.1334 1.58954 18.7833 0.939646 19.5892 0.924196C19.6147 0.923706 19.6403 0.923706 19.6659 0.924196C20.4718 0.939646 21.1217 1.58953 22.4214 2.88931C23.7212 4.18909 24.3711 4.83897 24.3865 5.64488C24.387 5.67044 24.387 5.696 24.3865 5.72155C24.3711 6.52746 23.7212 7.17735 22.4214 8.47713L19.6217 11.2769C17.2967 9.93315 15.3639 8.01485 14.0031 5.71986ZM12.5488 7.17416L2.32349 17.3994C1.89843 17.8245 1.6859 18.037 1.54617 18.2981C1.40643 18.5592 1.34749 18.8539 1.2296 19.4434L0.217248 24.5051C0.150726 24.8378 0.117465 25.0041 0.212073 25.0987C0.306678 25.1933 0.472973 25.16 0.805558 25.0935L0.80558 25.0935L0.805597 25.0935L5.86735 24.0811L5.86737 24.0811C6.45681 23.9633 6.75153 23.9043 7.01262 23.7646C7.27372 23.6248 7.48625 23.4123 7.91131 22.9872L18.1636 12.7349C15.8895 11.327 13.971 9.42187 12.5488 7.17416Z" fill="white"/>
</svg>
