<svg width="291" height="401" viewBox="0 0 291 401" fill="none" xmlns="http://www.w3.org/2000/svg">
<path d="M116.595 87.3008H106.312V104H98.5771V87.3008H70.4521V80.8848L101.917 36.2363H106.312V80.8848H116.595V87.3008ZM98.4893 46.4316L74.4072 80.8848H98.4893V46.4316ZM144.896 36.2363C148.118 36.2363 151.077 37.0859 153.772 38.7852C156.526 40.4258 158.899 42.7695 160.892 45.8164C162.884 48.8633 164.407 52.5254 165.462 56.8027C166.575 61.0215 167.132 65.709 167.132 70.8652C167.132 74.0293 166.897 77.1055 166.429 80.0938C165.96 83.082 165.286 85.8652 164.407 88.4434C163.528 91.0215 162.444 93.3652 161.155 95.4746C159.925 97.584 158.548 99.3125 157.024 100.66C153.509 103.824 149.319 105.406 144.456 105.406C141.351 105.406 138.509 104.791 135.931 103.561C133.411 102.271 131.214 100.426 129.339 98.0234C128.226 96.5586 127.2 94.8008 126.263 92.75C125.325 90.6406 124.505 88.3848 123.802 85.9824C123.157 83.5215 122.63 80.9727 122.22 78.3359C121.868 75.6406 121.692 72.9746 121.692 70.3379C121.692 67.291 121.927 64.3027 122.396 61.373C122.923 58.3848 123.626 55.6016 124.505 53.0234C125.442 50.4453 126.556 48.1309 127.845 46.0801C129.134 43.9707 130.54 42.2422 132.063 40.8945C133.88 39.2539 135.813 38.082 137.864 37.3789C139.915 36.6172 142.259 36.2363 144.896 36.2363ZM144.28 38.7852C140.062 38.7852 136.868 41.5391 134.7 47.0469C132.532 52.5547 131.448 60.5527 131.448 71.041C131.448 92.1934 135.784 102.77 144.456 102.77C148.733 102.77 151.956 100.162 154.124 94.9473C156.351 89.6738 157.464 81.8516 157.464 71.4805C157.464 60.582 156.351 52.4082 154.124 46.959C151.956 41.5098 148.675 38.7852 144.28 38.7852ZM216.966 87.3008H206.683V104H198.948V87.3008H170.823V80.8848L202.288 36.2363H206.683V80.8848H216.966V87.3008ZM198.86 46.4316L174.778 80.8848H198.86V46.4316Z" fill="#221E22"/>
<path d="M284.296 235.667C284.296 233.667 284.296 232.333 283.63 230.333C282.963 227.667 283.63 224.333 283.63 221.667C283.63 220.333 283.63 219.667 283.63 218.333C283.63 217.667 282.963 217.667 282.296 217C281.63 217.667 281.63 217.667 280.963 218.333C279.63 219 279.63 219.667 278.963 221C278.963 221.667 278.963 222.333 278.296 222.333C277.63 223.667 277.63 224.333 277.63 225.667C277.63 227 277.63 229 277.63 230.333C277.63 232.333 277.63 233.667 276.963 235.667C276.963 236.333 276.963 237 276.963 237C276.963 237.667 276.963 237.667 276.963 238.333C276.963 240.333 276.963 241.667 276.963 243.667C276.963 245 276.963 247 276.963 248.333C276.963 249 276.963 249 276.963 249.667V250.333C276.296 251 276.296 251.667 276.296 252.333C276.296 254.333 276.296 255.667 276.296 257.667C276.296 259.667 276.296 261 276.296 263C276.296 264.333 276.296 265 276.296 266.333C276.296 268.333 276.296 270.333 276.296 272.333C276.296 275 276.296 277.667 276.296 280.333C276.296 282.333 276.296 283.667 276.296 285.667C276.296 286.333 276.296 286.333 276.296 287C276.296 289 276.296 291 276.296 292.333C276.296 294.333 276.296 296.333 275.63 298.333C275.63 299.667 275.63 301.667 275.63 303C275.63 303.667 275.63 303.667 275.63 304.333H276.296C276.296 305 276.296 305 275.63 305.667V305C275.63 305.667 275.63 306.333 275.63 307C276.296 307 276.296 307 276.296 307.667C276.296 307 275.63 307 275.63 307C275.63 309 275.63 311.667 275.63 313.667C275.63 313.667 276.296 313.667 276.296 313V313.667C276.296 314.333 275.63 314.333 276.296 315C276.296 315.667 276.296 316.333 275.63 316.333V317C275.63 318.333 275.63 319.667 275.63 321C275.63 323 275.63 325 275.63 327C275.63 328.333 275.63 329.667 275.63 331C275.63 333 275.63 334.333 274.963 336.333C274.963 337 274.963 337.667 274.963 338.333C274.963 340.333 274.963 341.667 274.963 343.667C274.963 345 274.963 346.333 274.296 348.333C274.296 349.667 274.296 350.333 274.296 351.667C274.296 353 274.296 354.333 274.296 355C274.296 356.333 274.296 358.333 274.296 359.667C274.296 361.667 274.296 363.667 274.296 366.333C274.296 367.667 274.296 368.333 274.296 369.667C274.296 371.667 274.296 374.333 274.963 376.333C274.963 377.667 274.963 379.667 274.963 381C274.963 383 274.963 384.333 274.963 385.667C274.963 387.667 274.963 389 274.963 391C274.963 392.333 274.963 393.667 274.963 395C274.296 395.667 274.296 395.667 273.63 395.667C272.963 396.333 272.963 396.333 272.296 395.667C271.63 395 271.63 395.667 270.963 395.667C270.296 396.333 270.296 396.333 269.63 395.667C270.963 394.333 270.296 394.333 269.63 394.333C268.963 395 268.963 395 268.296 395C267.63 395 266.963 395 266.296 395C263.63 395 260.963 395 258.296 395C257.63 395 257.63 395 256.963 395H256.296C256.296 395 256.296 395 256.963 395C256.296 395 255.63 395 254.963 395C253.63 395 252.296 395 250.963 395C249.63 395 248.296 395 246.963 395C245.63 395 244.296 394.333 242.963 395C241.63 395 240.963 395 240.296 394.333C237.63 394.333 235.63 394.333 232.963 394.333C231.63 394.333 230.963 394.333 230.296 394.333C229.63 395 228.963 394.333 228.296 394.333C227.63 394.333 227.63 394.333 226.963 394.333H226.296C226.296 395 225.63 395 225.63 395C224.963 395 224.296 395 223.63 395H222.963V394.333C223.63 395 222.963 394.333 222.296 394.333C221.63 395 221.63 395 220.963 395C220.963 394.333 220.296 394.333 219.63 394.333V393.667C218.963 393.667 218.296 393.667 218.296 393.667C217.63 393.667 216.963 393.667 216.296 393.667C215.63 393.667 214.296 393.667 213.63 393C211.63 392.333 210.296 392.333 208.963 392.333C206.963 392.333 205.63 392.333 203.63 392.333C200.963 392.333 198.296 392.333 195.63 393C195.63 393 195.63 393 194.963 393C194.296 393 194.296 393 193.63 393H192.963C192.296 392.333 191.63 393 190.963 393C189.63 393 188.963 393 188.296 393.667C188.296 393 187.63 393.667 186.963 393.667C186.296 393.667 185.63 393.667 184.963 393.667C184.296 393.667 183.63 393.667 182.963 393.667C182.296 394.333 181.63 393.667 181.63 393.667C180.963 393.667 180.296 393.667 179.63 393.667C178.296 393.667 176.963 393.667 176.296 393.667C174.963 393.667 173.63 393.667 172.296 393.667H171.63C170.963 393 170.296 393.667 170.296 393.667C169.63 394.333 169.63 393.667 168.963 393.667H168.296C167.63 393.667 167.63 393.667 166.963 393.667C165.63 393.667 164.296 393.667 163.63 393.667C162.296 393.667 161.63 393.667 160.963 393.667C159.63 393.667 158.963 394.333 158.296 393.667H157.63C156.963 393.667 156.296 394.333 156.296 393.667C156.296 394.333 156.296 393.667 155.63 393.667H154.963C154.296 393.667 152.963 393.667 152.296 393.667C149.63 393.667 146.963 393.667 143.63 393.667C142.296 393.667 140.963 393.667 139.63 393.667C138.296 393.667 136.296 393.667 134.963 393.667C133.63 393.667 132.296 393.667 130.963 393.667C130.296 393.667 128.963 393.667 128.296 393.667C125.63 393.667 122.296 393.667 119.63 393.667C118.296 393.667 116.296 393.667 114.963 393.667C113.63 393.667 112.296 393.667 110.963 393.667C108.963 393.667 107.63 393.667 105.63 393.667C103.63 393.667 101.63 393.667 99.6296 393.667C98.2963 393.667 96.2963 393.667 94.963 393.667C92.963 393.667 90.963 393.667 89.6296 393.667C86.2963 393.667 83.6296 393 80.2963 393C79.6296 393 78.963 393 78.2963 393C75.6296 392.333 73.6296 392.333 70.963 392.333C67.6296 392.333 64.963 392.333 61.6296 392.333C60.2963 392.333 58.963 392.333 57.6296 392.333C56.2963 392.333 54.963 392.333 53.6296 391.667C52.2963 391.667 51.6296 391.667 50.2963 391.667C49.6296 391.667 49.6296 391.667 48.963 391.667C48.2963 392.333 47.6296 392.333 46.963 391.667C46.963 391.667 47.6296 391.667 48.2963 391C46.2963 391 44.963 391 43.6296 391C43.6296 391.667 43.6296 391.667 42.963 391.667C42.963 391 42.963 390.333 42.963 390.333C42.2963 390.333 41.6296 390.333 40.963 390.333C40.963 390.333 40.963 391 40.2963 391C40.2963 391 40.2963 391 39.6296 390.333L38.963 391C38.2963 390.333 38.2963 389.667 37.6296 390.333C36.963 389.667 36.2963 390.333 35.6296 390.333C33.6296 390.333 32.2963 390.333 30.2963 390.333C29.6296 390.333 28.2963 390.333 27.6296 390.333C26.2963 390.333 24.963 390.333 24.2963 390.333C23.6296 390.333 23.6296 390.333 23.6296 390.333C22.2963 389.667 20.2963 389.667 18.963 389C17.6296 388.333 15.6296 388.333 14.2963 388.333C12.963 388.333 11.6296 387.667 10.963 387.667C10.2963 387.667 10.2963 387 10.2963 387C10.963 386.333 10.963 385 10.963 384.333C10.963 383 10.963 382.333 11.6296 381C11.6296 380.333 11.6296 380.333 11.6296 379.667V379C11.6296 378.333 11.6296 377.667 10.963 377.667C9.62962 377 9.62962 377 9.62962 376.333C9.62962 375 10.2963 373 9.62962 371.667C9.62962 371 8.96295 369.667 9.62962 369C9.62962 367.667 9.62962 367 9.62962 365.667C9.62962 364.333 9.62962 363 9.62962 361.667C9.62962 361 9.62962 360.333 9.62962 359C9.62962 359 9.62962 358.333 10.2963 358.333C10.963 357.667 10.963 357 10.963 356.333C10.2963 355.667 9.62962 355 9.62962 354.333V353.667C9.62962 353 8.96295 353 9.62962 352.333C9.62962 351 9.62962 350.333 9.62962 349.667V349C9.62962 348.333 9.62962 347.667 9.62962 347.667C9.62962 345 8.96295 342.333 9.62962 339.667C9.62962 339 9.62962 338.333 9.62962 337.667C9.62962 335 9.62962 332.333 9.62962 329.667C9.62962 328.333 9.62962 327 9.62962 326.333C9.62962 324.333 9.62962 322.333 9.62962 321C9.62962 318.333 9.62962 315.667 10.2963 313C10.2963 310.333 10.2963 307.667 10.2963 305C10.2963 304.333 10.2963 304.333 10.2963 303.667C10.2963 303 10.2963 301.667 9.62962 301.667C9.62962 299.667 9.62962 297 8.96295 295C8.29629 295 7.62962 294.333 7.62962 294.333C7.62962 293.667 6.96295 293.667 6.96295 293C6.96295 292.333 6.29629 292.333 6.29629 293C5.62962 293.667 4.96295 295 4.29629 295.667C3.62962 296.333 2.96295 297.667 2.96295 299C2.96295 300.333 2.96295 301.667 2.96295 303.667C2.96295 304.333 2.96295 305 2.96295 305.667C2.96295 308.333 2.96295 310.333 2.96295 313C2.96295 315 2.96295 317.667 2.96295 319.667C2.96295 321.667 2.96295 323.667 2.96295 326.333C2.96295 329 2.96295 331.667 2.96295 334.333C2.96295 335 2.96295 335 2.96295 335C2.96295 335.667 2.96295 335.667 2.96295 335.667C2.96295 336.333 2.96295 336.333 2.96295 337C2.96295 338.333 2.96295 339 2.96295 340.333C2.96295 341 2.96295 341 2.96295 341C2.96295 343.667 3.62962 345.667 3.62962 347.667C3.62962 348.333 3.62962 349.667 3.62962 350.333C3.62962 353 3.62962 355.667 3.62962 358.333C3.62962 359.667 3.62962 361 3.62962 362.333C3.62962 363 3.62962 363.667 3.62962 363.667C3.62962 365.667 2.96295 367.667 2.96295 370.333C2.96295 371 2.96295 371 2.96295 371.667C2.96295 373.667 2.96295 376.333 3.62962 378.333C3.62962 379.667 3.62962 381 3.62962 383C3.62962 384.333 4.29629 385 2.96295 386.333C2.96295 387 2.96295 387.667 2.96295 387.667C2.96295 388.333 2.96295 389 2.96295 389.667C2.96295 389.667 2.96295 389.667 3.62962 389C3.62962 389.667 3.62962 389.667 3.62962 390.333C3.62962 389.667 2.96295 389.667 2.96295 389C2.96295 390.333 2.96295 391 2.96295 392.333C2.96295 393.667 2.96295 394.333 3.62962 395.667H4.29629C4.96295 396.333 5.62962 396.333 6.29629 396.333C6.96295 396.333 6.96295 396.333 7.62962 396.333C8.29629 396.333 9.62962 396.333 10.2963 396.333C10.963 396.333 11.6296 396.333 11.6296 396.333C12.963 396.333 14.963 397 16.2963 396.333C16.963 396.333 17.6296 395.667 18.963 395.667C19.6296 395.667 20.2963 395.667 20.963 395.667C22.2963 395.667 24.2963 396.333 25.6296 396.333C26.2963 396.333 27.6296 397 28.2963 396.333C28.2963 396.333 28.2963 396.333 28.963 396.333C29.6296 396.333 28.963 396.333 29.6296 396.333C30.2963 396.333 30.963 396.333 32.2963 396.333C34.2963 396.333 35.6296 396.333 37.6296 396.333C38.963 396.333 40.2963 396.333 41.6296 396.333C42.963 396.333 44.963 396.333 46.2963 396.333C48.963 396.333 50.963 396.333 52.963 396.333C54.2963 396.333 54.963 396.333 56.2963 396.333C57.6296 396.333 58.2963 396.333 59.6296 396.333C60.963 396.333 62.2963 396.333 62.963 396.333C63.6296 396.333 64.2963 396.333 64.2963 395.667C64.963 396.333 64.963 396.333 66.2963 396.333C68.2963 396.333 70.2963 396.333 72.2963 396.333C74.2963 396.333 75.6296 396.333 77.6296 396.333C78.963 396.333 80.963 396.333 82.2963 396.333C82.963 396.333 83.6296 396.333 84.2963 396.333C84.963 396.333 85.6296 396.333 85.6296 396.333C86.963 396.333 87.6296 396.333 88.2963 396.333C90.963 396.333 93.6296 396.333 96.2963 396.333C98.963 396.333 101.63 396.333 104.296 396.333C104.963 396.333 105.63 396.333 106.296 396.333C108.296 396.333 110.296 397 112.296 397C114.963 397 117.63 397.667 120.296 397.667C122.963 397.667 124.963 397.667 127.63 397.667C130.296 397.667 132.296 397.667 134.963 397.667C138.296 397.667 140.963 397.667 144.296 397.667C146.963 397.667 148.963 397.667 151.63 398.333C152.963 398.333 154.296 398.333 155.63 398.333C156.296 398.333 157.63 398.333 158.296 398.333C159.63 398.333 160.963 398.333 161.63 398.333C162.296 398.333 163.63 398.333 164.963 398.333C165.63 398.333 165.63 398.333 166.296 398.333C166.963 398.333 167.63 398.333 168.296 398.333C170.296 398.333 171.63 398.333 173.63 398.333H174.296C174.963 397.667 174.963 397.667 175.63 397.667H176.296C176.963 397.667 177.63 397.667 178.296 397.667C178.963 397.667 179.63 398.333 180.963 397.667H181.63C181.63 397.667 181.63 398.333 180.963 398.333H180.296C180.963 398.333 182.296 398.333 182.963 398.333V397.667C183.63 397.667 183.63 397 184.296 397C184.963 397 185.63 397 186.296 397C186.963 397.667 186.963 398.333 185.63 398.333C186.963 398.333 188.296 399 189.63 399C190.963 399 191.63 399.667 192.296 399.667C192.963 399.667 194.296 399.667 194.963 399.667C196.296 399.667 197.63 399.667 199.63 399.667C200.963 399.667 202.963 399.667 204.296 399.667C206.963 399.667 209.63 399 212.296 399C214.296 399 216.296 399 218.296 399C220.296 399 221.63 399 223.63 399C225.63 399 227.63 399 228.963 399C230.296 399 230.963 399 232.296 399.667C234.296 399.667 236.296 399.667 237.63 399.667C239.63 399.667 241.63 399.667 243.63 400.333C246.296 400.333 248.963 400.333 251.63 400.333C253.63 400.333 256.296 400.333 258.296 400.333C260.296 400.333 261.63 400.333 263.63 400.333C263.63 400.333 263.63 400.333 264.296 400.333C265.63 399.667 266.296 400.333 267.63 400.333C268.963 400.333 270.296 400.333 270.963 400.333H271.63C271.63 400.333 271.63 400.333 272.296 400.333C273.63 400.333 274.296 401 274.963 400.333C275.63 400.333 275.63 400.333 276.296 400.333C276.963 400.333 276.963 400.333 276.963 400.333C277.63 400.333 277.63 400.333 278.296 400.333C278.963 399.667 279.63 399.667 279.63 400.333C280.963 401 281.63 401 282.296 399.667C282.296 399.667 282.296 399.667 282.296 399C282.963 399 282.963 398.333 282.296 398.333C282.296 397.667 282.296 397.667 282.296 397V396.333C282.296 395.667 282.296 395 282.296 394.333V393.667C281.63 393 281.63 393 281.63 392.333C282.296 388.333 282.296 385 282.296 381C282.296 380.333 282.296 379 282.296 378.333C282.296 376.333 282.963 374.333 282.963 372.333C282.963 371.667 282.963 371 282.963 370.333C282.963 369.667 282.963 369 282.963 368.333C282.963 367.667 282.963 367 282.963 366.333C282.963 365.667 282.963 365 282.963 364.333C282.963 363.667 282.963 363 282.963 361.667C282.963 361 282.963 360.333 282.963 359.667C282.963 357 282.963 354.333 282.963 351.667C282.963 351 282.963 350.333 282.963 349.667C282.963 347.667 282.963 346.333 282.963 345C282.963 343 282.963 341 282.963 339C282.963 337 282.963 335.667 282.963 333.667C282.963 333 282.963 332.333 282.963 331.667C282.963 331 282.963 329.667 282.963 329V328.333C283.63 328.333 283.63 327.667 283.63 327.667C283.63 327 283.63 325.667 283.63 325C283.63 323.667 283.63 322.333 283.63 321C283.63 319.667 283.63 318.333 283.63 317C283.63 316.333 283.63 316.333 283.63 315.667C283.63 314.333 283.63 313.667 283.63 312.333C283.63 311 283.63 309.667 283.63 308.333C283.63 307.667 283.63 307 283.63 306.333C283.63 305.667 283.63 304.333 283.63 303.667C283.63 302.333 283.63 300.333 283.63 299C283.63 297.667 283.63 296.333 283.63 295C283.63 294.333 283.63 293.667 283.63 293C283.63 291.667 283.63 290.333 283.63 289.667C283.63 288.333 283.63 287.667 283.63 286.333C283.63 285 283.63 284.333 283.63 283.667C283.63 282.333 283.63 281.667 283.63 280.333C283.63 279 283.63 277.667 283.63 277C283.63 275.667 282.963 275 283.63 274.333C283.63 273.667 283.63 273 283.63 271.667C282.963 270.333 283.63 269 283.63 267.667C283.63 266.333 283.63 265.667 283.63 264.333C283.63 263.667 283.63 263 283.63 262.333C283.63 261 284.296 259.667 284.296 258.333C284.296 257 284.296 256.333 284.296 255.667C284.296 254.333 284.296 253 284.963 251.667C284.963 249.667 284.963 247.667 284.963 245.667C284.963 243.667 284.963 241.667 284.963 240.333C284.963 237.667 284.296 236.333 284.296 235.667ZM6.96295 341C6.29628 343.667 6.96295 345.667 6.96295 347.667C6.96295 348.333 6.96295 348.333 6.96295 349C6.96295 349.667 6.96295 349.667 6.29629 350.333C6.29629 349.667 6.29629 349 6.29629 349C6.29629 348.333 6.29629 347 6.29629 346.333V345.667C6.29629 345 6.29629 344.333 6.29629 343.667C6.29629 343.667 6.29629 343 6.29629 342.333C6.29629 340.333 6.29629 338.333 6.29629 336.333C6.29629 335.667 6.29628 334.333 6.96295 333.667C6.96295 333 6.96295 333 7.62962 332.333C8.29629 333 7.62962 333.667 8.29629 334.333C8.29629 335 8.29629 336.333 8.29629 337C8.29629 337.667 8.29629 338.333 8.29629 339C6.96295 339.667 6.96295 340.333 6.96295 341ZM30.2963 393C28.2963 393 25.6296 393 23.6296 393C21.6296 393 20.2963 393 18.2963 393C16.963 393 15.6296 393 13.6296 393.667C12.963 393.667 12.2963 393.667 11.6296 393.667V393C12.963 393 14.2963 393 15.6296 393C16.2963 393 16.963 393 17.6296 393C18.2963 393 18.2963 393 18.963 393C20.2963 393 21.6296 393 23.6296 393C24.963 393 26.963 393 28.2963 393C28.2963 392.333 28.963 392.333 30.2963 393C30.2963 392.333 30.963 392.333 31.6296 392.333C32.2963 392.333 32.963 392.333 33.6296 392.333C34.963 392.333 35.6296 392.333 36.963 392.333C34.2963 393 32.2963 393 30.2963 393ZM279.63 379.667C278.963 379 278.963 378.333 278.963 378.333C278.963 377.667 278.963 376.333 278.296 375.667C277.63 374.333 277.63 373 277.63 371.667C277.63 368.333 277.63 365.667 277.63 362.333C277.63 361 277.63 359 277.63 357.667C277.63 355.667 277.63 353.667 277.63 352.333C277.63 351 277.63 348.333 277.63 346.333C277.63 345 277.63 344.333 277.63 343C277.63 342.333 277.63 342.333 277.63 341.667C278.296 342.333 278.296 342.333 278.296 343C278.296 344.333 278.296 346.333 278.296 347.667C278.296 349.667 278.296 351 278.296 353C278.296 355 278.296 357 278.296 359.667C278.296 363 278.296 365.667 278.296 369C278.296 371 278.296 373.667 278.296 375.667C278.296 377 278.296 377.667 278.296 379C279.63 378.333 279.63 379 279.63 379.667ZM281.63 353.667C280.963 351 280.963 349 280.963 346.333V347C281.63 349 281.63 351 281.63 353.667ZM281.63 344.333V345C281.63 344.333 281.63 343.667 281.63 343C281.63 341.667 281.63 340.333 281.63 339C281.63 338.333 281.63 337 281.63 336.333C281.63 335.667 281.63 335.667 281.63 335C281.63 334.333 281.63 333.667 281.63 333C281.63 332.333 281.63 332.333 281.63 331.667C281.63 329.667 281.63 328.333 281.63 326.333C281.63 325 281.63 323 281.63 321.667C281.63 321 281.63 320.333 281.63 319.667C281.63 319 281.63 318.333 281.63 318.333C281.63 317.667 281.63 317 281.63 317C280.963 316.333 280.963 316.333 280.963 315.667C280.963 313.667 280.963 311.667 281.63 309.667C281.63 309 281.63 308.333 281.63 307.667C281.63 307 281.63 306.333 281.63 305.667C281.63 305 281.63 304.333 281.63 303.667V303C281.63 302.333 281.63 301 281.63 300.333C281.63 299.667 281.63 298.333 281.63 297.667C281.63 297 281.63 296.333 281.63 295.667C281.63 295 281.63 294.333 281.63 293.667C281.63 293 281.63 293 281.63 293C282.296 292.333 281.63 291.667 281.63 291.667C281.63 291 280.963 290.333 280.963 289.667V289C281.63 288.333 281.63 287.667 281.63 287C281.63 286.333 281.63 285 281.63 284.333C281.63 283.667 280.963 283 280.963 283V282.333C280.963 279.667 280.963 277 280.963 275C280.963 274.333 280.963 273 281.63 272.333C282.296 273 282.296 273 282.296 273.667C282.296 275 282.296 275.667 282.296 276.333V277V277.667V278.333C282.296 279 282.963 279 282.296 279C282.296 279.667 282.296 280.333 282.296 281C282.296 281.667 282.296 283 282.296 283.667C282.296 285 282.296 285.667 282.296 286.333C282.296 288.333 282.296 290.333 282.296 292.333C282.296 294.333 282.296 296.333 282.296 299C282.296 302.333 282.296 305.667 282.296 309C282.296 310.333 282.296 311.667 282.296 313.667C282.296 315 282.296 315.667 282.296 317C282.296 318.333 282.296 319.667 282.296 321C282.296 321.667 282.296 323 282.296 323.667C282.296 325.667 282.296 328.333 282.296 330.333C282.296 332.333 282.296 335 282.296 337C281.63 339.667 281.63 341.667 281.63 344.333Z" fill="#221E22"/>
<path d="M253.63 366.333V365.667C253.63 363.667 254.296 361.667 254.296 359.667C254.296 359 254.296 357.667 254.296 357C254.296 355.667 253.63 355 253.63 353.667C253.63 352.333 252.963 350.333 252.963 349C252.963 348.333 252.963 348.333 252.963 347.667C252.963 346.333 252.963 345.667 252.963 344.333C252.963 343 252.963 341.667 252.963 340.333C252.963 339 252.963 338.333 252.963 337C252.963 335.667 252.963 335 252.963 334.333C252.963 333 252.963 331.667 252.296 331C252.296 331.667 252.296 332.333 252.296 332.333C252.296 333 251.63 333.667 252.296 335C252.296 335.667 252.296 336.333 252.296 337C252.296 337.667 252.296 338.333 252.296 339C252.296 341.667 251.63 343.667 251.63 346.333C251.63 347 250.963 347.667 250.963 347.667C250.963 349.667 250.963 351.667 251.63 353.667C251.63 355 252.296 355.667 252.296 357C252.296 359.667 252.296 361.667 251.63 364.333C250.963 365.667 250.963 367 250.296 368.333C249.63 369.667 248.963 371 247.63 372.333C246.963 373 246.963 373.667 246.296 374.333C245.63 375.667 244.296 376.333 242.963 377C242.296 377.667 241.63 377.667 240.296 377.667C238.963 378.333 237.63 378.333 236.296 378.333C234.963 378.333 233.63 378.333 232.296 377.667C231.63 377.667 230.296 377.667 229.63 377C228.296 376.333 226.963 376.333 226.296 375C224.963 374.333 223.63 373.667 222.963 372.333C220.963 371 220.296 369.667 218.963 368.333C218.296 367.667 217.63 367 216.963 367C216.296 366.333 214.963 365.667 213.63 365C211.63 363.667 209.63 363.667 207.63 363.667C206.963 363.667 205.63 363.667 204.963 364.333C204.963 363.667 204.963 363.667 204.963 363.667C205.63 363 206.296 362.333 206.963 361.667C208.296 361 210.296 359.667 211.63 359C213.63 358.333 215.63 357.667 217.63 357C218.296 357 219.63 356.333 220.296 356.333C220.963 355.667 221.63 355.667 222.296 355C222.963 354.333 223.63 354.333 224.296 353.667C225.63 352.333 226.296 351.667 227.63 350.333C228.296 349.667 228.296 349 228.963 348.333C229.63 347 230.296 345.667 230.963 344.333C231.63 343.667 231.63 342.333 231.63 341.667C231.63 339.667 232.296 338.333 232.296 336.333C232.296 335 232.296 334.333 232.296 333C232.296 331.667 231.63 331 231.63 330.333C231.63 329 230.963 327 230.963 325.667C230.963 323.667 230.296 322.333 230.296 320.333C230.296 318.333 229.63 317 229.63 315C229.63 313 229.63 311.667 230.296 309.667C230.963 308.333 230.963 307 231.63 305.667C232.296 304.333 232.963 302.333 233.63 301C234.963 297.667 236.963 294.333 238.296 291C239.63 287.667 240.963 284.333 241.63 280.333C242.296 278.333 242.963 276.333 242.963 273.667C242.963 271.667 242.963 270.333 242.963 268.333C242.963 266.333 242.296 264.333 241.63 262.333C240.963 261 240.296 259.667 240.296 259C239.63 257.667 238.963 256.333 238.296 255C237.63 253.667 237.63 252.333 236.963 251C236.963 249.667 236.296 249 236.296 247.667C236.296 247 236.296 246.333 236.296 245.667C236.296 244.333 236.296 242.333 236.296 241C236.296 240.333 236.296 240.333 236.963 239.667C236.963 239.667 236.963 239.667 236.963 239C236.296 237 236.963 235.667 236.963 234.333C236.963 233.667 237.63 233 237.63 231.667C237.63 231 237.63 230.333 236.963 229.667C236.963 229.667 236.963 229.667 236.963 230.333C236.963 231.667 236.296 233 235.63 233.667V234.333C235.63 235 235.63 235 235.63 235.667C235.63 236.333 235.63 236.333 234.963 237C234.963 237.667 234.296 238.333 234.296 239C234.296 239.667 234.296 241 234.296 241.667C233.63 243.667 234.296 245.667 234.296 247C234.296 247.667 234.296 247.667 234.296 248.333C234.296 250.333 232.963 251.667 232.296 253C231.63 254.333 230.963 255.667 229.63 257C228.963 257.667 228.296 258.333 227.63 259C226.296 259.667 224.963 260.333 224.296 260.333C222.963 261 221.63 261 220.963 262.333C220.296 263 219.63 263.667 218.963 264.333C217.63 266.333 216.296 268.333 214.963 270.333C212.963 272.333 210.963 274.333 208.963 275.667C208.963 275.667 208.963 275.667 208.296 275.667C206.963 276.333 206.296 276.333 204.963 276.333C203.63 277 201.63 277 200.296 277.667C198.296 278.333 196.963 278.333 195.63 279H194.963C194.296 279 194.296 279 193.63 279H192.963C192.296 279 192.296 279 191.63 279C190.296 279.667 189.63 279.667 188.296 280.333H187.63C186.963 280.333 186.963 280.333 186.963 280.333C185.63 281 184.963 281 183.63 281.667C182.296 282.333 180.963 282.333 180.296 283C178.963 283.667 178.296 283.667 176.963 284.333C176.296 285 175.63 285 174.963 285H174.296C173.63 285 173.63 285 173.63 285.667C173.63 286.333 172.963 286.333 172.296 286.333H171.63C170.963 287 169.63 287 168.963 287C167.63 287 166.296 287 164.963 285.667C163.63 285 162.296 283.667 160.963 283C159.63 282.333 158.963 281 158.296 280.333C157.63 279 156.296 277 155.63 275.667C154.963 275 154.963 273.667 154.296 273C154.296 272.333 153.63 271.667 153.63 271.667C152.963 270.333 152.296 269 150.963 267.667C150.963 267 150.296 267 150.296 266.333C150.296 267.667 150.296 268.333 150.963 269L151.63 269.667C151.63 270.333 152.296 271 152.296 271.667C152.296 272.333 152.963 273 152.963 273.667C152.963 273.667 152.963 274.333 153.63 274.333L154.296 275C154.963 276.333 154.963 277.667 155.63 278.333C155.63 279 156.296 279.667 156.296 280.333C156.963 281 156.963 281.667 157.63 282.333C158.296 283.667 158.963 285 159.63 285.667C160.296 286.333 160.296 287 160.963 287C162.296 287.667 163.63 289 165.63 289.667C166.963 290.333 168.296 290.333 169.63 290.333C170.296 290.333 170.296 290.333 170.963 290.333C172.296 291 172.963 289.667 174.296 289.667C175.63 289 177.63 288.333 178.963 287.667C180.296 287 180.963 287 182.296 286.333C182.963 285.667 184.296 285.667 184.963 285C185.63 284.333 186.963 284.333 187.63 284.333H188.296C188.963 283.667 190.296 283.667 191.63 283C192.963 282.333 194.296 282.333 194.963 282.333C196.296 282.333 196.963 281.667 198.296 281.667C198.963 281.667 198.963 281.667 199.63 281.667C200.296 282.333 200.296 282.333 200.296 283C200.963 284.333 202.296 285.667 202.296 287C202.296 287 202.296 287.667 202.963 287.667C202.963 288.333 203.63 289 203.63 289.667C204.296 291 204.296 292.333 204.296 293.667C204.963 295.667 205.63 297.667 206.296 299C206.963 301 208.296 302.333 209.63 303.667C210.296 304.333 211.63 305 211.63 306.333C212.296 307.667 212.963 309 212.963 310.333C213.63 311.667 213.63 313 213.63 313.667C214.296 315.667 214.963 317.667 214.963 319.667C214.963 321 215.63 321.667 215.63 323C215.63 324.333 216.296 325.667 216.296 327C216.963 329 217.63 331.667 217.63 333.667C217.63 335 218.296 335.667 218.296 337C218.296 337.667 218.963 338.333 218.963 339C219.63 341 219.63 343 220.296 344.333C220.296 345 220.296 346.333 220.963 347C220.963 347.667 221.63 348.333 221.63 349.667C221.63 350.333 221.63 351 220.963 351C219.63 351.667 218.296 352.333 216.963 353C216.296 353.667 215.63 353.667 214.296 353.667C212.963 354.333 212.296 354.333 210.963 355C209.63 355.667 208.296 356.333 206.963 357C205.63 357.667 204.963 359 204.296 360.333C202.963 361.667 202.296 363 202.296 364.333C202.296 365 202.296 365 201.63 365.667C200.963 365.667 200.963 365.667 200.296 365.667C198.296 365 196.296 365 194.963 364.333C193.63 364.333 192.296 363.667 190.963 363.667C189.63 363.667 188.963 363.667 188.296 363C186.963 363 185.63 362.333 184.296 362.333C182.296 361.667 180.296 361.667 178.296 361C177.63 361 176.963 361 176.296 361C174.963 361 174.296 361 172.963 360.333C171.63 360.333 170.296 359.667 168.963 359.667C167.63 359.667 166.296 359.667 164.963 359C162.963 359 161.63 358.333 159.63 358.333C158.963 358.333 158.296 358.333 157.63 357.667C156.296 357.667 154.963 357 154.296 357C152.963 357 151.63 356.333 150.296 356.333C146.296 355.667 142.296 355 138.963 354.333C136.963 353.667 135.63 353.667 134.296 353C133.63 353 132.963 353 132.296 352.333C130.296 351.667 128.963 351.667 126.963 351H126.296C127.63 350.333 128.963 349.667 129.63 349C130.963 347.667 132.296 346.333 132.963 345C134.296 343.667 134.963 342.333 136.296 340.333C136.963 339 137.63 337.667 138.296 337C139.63 335 140.296 333.667 140.963 331.667C140.963 331 140.963 330.333 141.63 330.333C142.296 329.667 142.296 329 142.296 328.333C142.963 327 142.963 326.333 143.63 325C144.296 323.667 144.963 322.333 144.963 321C144.963 319.667 146.296 318.333 146.296 317C146.963 316.333 146.963 315.667 146.963 315C147.63 314.333 147.63 313.667 147.63 313C148.296 312.333 148.296 311 148.963 310.333C149.63 309 150.963 307.667 151.63 307C152.296 306.333 152.296 306.333 152.296 305.667C152.963 303.667 154.296 301.667 154.296 299.667C154.296 298.333 154.963 296.333 154.963 295C154.963 294.333 154.963 293.667 154.963 293.667C154.963 292.333 155.63 291.667 155.63 290.333C155.63 289 156.296 287.667 156.296 286.333C156.296 285.667 156.296 285.667 156.296 285C156.296 284.333 156.296 284.333 155.63 284.333C155.63 285 155.63 285 154.963 285.667C154.296 287 153.63 288.333 153.63 290.333C152.963 292.333 152.963 293.667 152.296 295.667C151.63 297 150.963 299 150.296 300.333C150.296 301 149.63 301.667 149.63 301.667C148.963 302.333 148.963 303 148.296 303.667C146.963 306.333 144.963 308.333 142.963 310.333C142.296 311.667 140.963 312.333 140.296 313.667C138.963 315.667 138.296 317.667 136.963 320.333C136.296 322.333 134.963 324.333 134.296 327C133.63 329 132.963 331 131.63 333C130.963 335 130.296 337 128.963 338.333C128.296 339.667 127.63 341 126.963 341.667C126.296 343 124.963 345 124.296 346.333C123.63 348.333 122.296 349 121.63 351C120.296 350.333 118.963 350.333 117.63 349.667C116.963 349.667 116.296 349 114.963 349C113.63 348.333 111.63 348.333 110.296 347.667C108.963 347 106.963 347 105.63 346.333C104.296 345.667 102.963 345.667 101.63 344.333C100.296 343 98.963 343 97.6296 342.333C96.2963 341.667 95.6296 341.667 94.963 340.333C94.2963 339 93.6296 339 92.963 337.667C92.2963 337 91.6296 335.667 90.963 335C90.963 335 90.2963 334.333 90.963 334.333C90.2963 333.667 90.2963 333 90.2963 332.333C89.6296 331.667 89.6296 330.333 89.6296 329.667C88.963 328.333 88.963 327 88.963 325.667C88.963 325 88.963 325 88.963 324.333C88.2963 323.667 88.2963 323 88.2963 322.333C88.2963 321.667 88.2963 321 88.2963 320.333C88.2963 318.333 88.2963 316.333 87.6296 314.333C87.6296 313 87.6296 311.667 86.963 311C86.2963 308.333 86.2963 305.667 85.6296 302.333C85.6296 301 85.6296 300.333 84.963 299C84.2963 297.667 84.2963 297 84.2963 296.333C83.6296 295 83.6296 293 82.963 291.667C82.963 290.333 82.2963 289.667 82.2963 289C82.963 293 82.963 291.667 82.963 290.333V289.667C82.963 289 82.2963 289 82.2963 288.333C81.6296 287 80.963 285 80.2963 283.667C79.6296 283 79.6296 281.667 78.963 281C78.2963 279.667 77.6296 278.333 76.963 277.667C76.2963 276.333 75.6296 275.667 74.963 274.333C74.963 273.667 74.2963 273.667 74.2963 273C73.6296 272.333 72.963 271.667 72.2963 271L71.6296 270.333C72.2963 271.667 73.6296 273 74.2963 274.333C74.2963 275 74.963 275 74.963 275C75.6296 276.333 75.6296 277 76.2963 278.333C76.963 281 78.2963 283 78.2963 285.667C78.963 288.333 79.6296 291 79.6296 293.667C79.6296 295.667 80.2963 297.667 80.963 299C80.963 300.333 81.6296 302.333 82.2963 303.667C82.2963 304.333 82.963 305.667 82.963 306.333C84.2963 310.333 84.2963 315 84.963 319C84.963 319.667 84.963 320.333 84.963 320.333C84.963 321.667 84.963 322.333 85.6296 323.667C85.6296 325.667 86.2963 327 86.2963 329C86.2963 329.667 86.2963 330.333 86.2963 331C84.963 330.333 83.6296 329 81.6296 328.333C80.963 328.333 80.963 327.667 80.963 327.667C80.2963 327.667 79.6296 327 78.963 327C77.6296 326.333 76.2963 325.667 75.6296 325.667C73.6296 325 70.963 325 68.963 324.333C66.963 323.667 64.963 323.667 63.6296 323C62.963 323 62.963 323 62.2963 323C61.6296 323 60.963 323 59.6296 322.333C57.6296 321.667 56.2963 321.667 54.963 321C52.963 320.333 50.963 319.667 49.6296 319C48.963 319 48.963 319 48.963 318.333C47.6296 317.667 46.963 317.667 45.6296 317C44.963 317 44.963 317 44.2963 317C42.963 316.333 42.2963 316.333 40.963 317C40.2963 317 40.2963 317.667 39.6296 318.333C39.6296 319 39.6296 319 39.6296 319C39.6296 319.667 40.2963 320.333 40.2963 321H39.6296C39.6296 321.667 40.2963 322.333 40.2963 322.333C40.963 323 40.963 323.667 41.6296 324.333C42.2963 325 42.963 325.667 43.6296 326.333C44.963 326.333 45.6296 327 46.963 327H47.6296C46.963 326.333 46.2963 326.333 45.6296 325.667C44.963 325.667 44.2963 325.667 44.2963 325C42.963 325 42.963 323.667 42.2963 323C41.6296 322.333 41.6296 321.667 41.6296 321C41.6296 320.333 41.6296 319.667 41.6296 319V318.333L42.2963 317.667C43.6296 317.667 44.963 317 46.2963 318.333H46.963C48.2963 319 49.6296 319 50.963 319.667C52.963 320.333 54.2963 321 56.2963 321.667C56.963 321.667 57.6296 322.333 58.2963 322.333C58.963 322.333 59.6296 323 60.2963 323C61.6296 323.667 62.2963 323.667 62.963 323.667C64.2963 323.667 65.6296 324.333 66.2963 325C66.963 325 67.6296 325.667 68.2963 325.667C69.6296 326.333 70.963 326.333 72.2963 327C74.2963 327.667 75.6296 327.667 76.963 329C76.963 329 77.6296 329 77.6296 329.667C78.2963 329.667 78.2963 330.333 78.963 330.333C79.6296 331 80.963 331 81.6296 331.667C82.963 332.333 83.6296 333 84.963 334.333C86.2963 335.667 87.6296 336.333 88.2963 337.667C89.6296 339 90.2963 340.333 90.963 341.667C92.2963 343 93.6296 345 94.963 346.333C95.6296 347 95.6296 347 96.2963 347C96.963 347 97.6296 347.667 98.963 347.667C99.6296 347.667 100.296 348.333 100.296 348.333C100.963 349 101.63 349 102.963 349.667C104.963 350.333 106.296 351 108.296 351.667C110.296 352.333 111.63 353 113.63 353C114.963 353.667 116.296 353.667 118.296 354.333C120.296 355 121.63 355.667 123.63 356.333C124.296 356.333 124.963 357 125.63 357C126.296 357 126.296 357 126.296 357C128.963 357.667 131.63 359 134.963 359.667C136.296 360.333 136.963 360.333 138.296 360.333C140.296 361 142.963 361 144.963 361.667C146.296 361.667 147.63 362.333 148.963 362.333C149.63 362.333 150.296 362.333 150.963 362.333C152.296 362.333 152.963 363 154.296 363C155.63 363 156.963 363.667 158.963 363.667C160.296 363.667 161.63 364.333 162.963 364.333C163.63 364.333 164.963 364.333 165.63 365C166.296 365 166.963 365.667 168.296 365.667C169.63 365.667 170.296 366.333 171.63 366.333C172.963 366.333 173.63 367 174.963 367C176.296 367 177.63 367.667 178.963 367.667C180.296 367.667 180.963 368.333 182.296 368.333C183.63 368.333 184.296 368.333 184.963 368.333C186.963 368.333 188.296 369 189.63 369C191.63 369 192.963 369 194.963 369C195.63 369 196.296 369 196.963 369C197.63 369 198.296 369 198.963 369C199.63 369 199.63 369 200.296 368.333C200.963 368.333 201.63 368.333 202.296 367.667C202.963 367.667 203.63 367 204.963 367H205.63C206.963 367.667 208.296 369 208.963 370.333C209.63 371.667 210.963 373 211.63 373.667C212.296 375 212.963 376.333 214.296 378.333C214.963 379.667 215.63 381.667 216.296 383C216.963 384.333 218.296 385.667 218.963 387.667C218.963 387.667 218.963 388.333 219.63 388.333C220.296 389 220.963 389.667 222.296 389.667C222.296 389 222.963 388.333 222.296 388.333C221.63 387.667 221.63 386.333 220.963 385.667C220.963 384.333 220.296 383.667 219.63 382.333C218.963 381.667 218.963 381 218.963 380.333C218.963 379.667 218.296 378.333 218.296 377.667C217.63 376.333 217.63 375.667 216.963 374.333C216.963 374.333 216.963 374.333 216.963 373.667C216.296 372.333 215.63 371.667 214.963 370.333C214.296 369.667 213.63 369 213.63 368.333C212.963 367 211.63 366.333 210.296 365C209.63 364.333 208.963 364.333 208.296 364.333C207.63 364.333 207.63 363.667 206.963 363.667C208.296 363 208.296 363 208.963 363C209.63 363 209.63 363 210.296 363C210.963 363 210.963 363 211.63 363C212.963 363.667 213.63 364.333 214.963 365C216.963 367 218.963 369 220.963 371C222.963 372.333 224.296 373.667 226.296 375C226.963 375.667 227.63 375.667 228.296 375.667C228.963 375.667 229.63 376.333 230.296 376.333C231.63 377 232.963 377 234.963 377C236.296 377 238.296 377 239.63 377C240.963 376.333 242.296 376.333 243.63 375.667C245.63 375 247.63 374.333 248.963 373C249.63 372.333 250.963 371 250.963 370.333C251.63 369.667 251.63 369 251.63 368.333C252.296 367 252.963 366.333 252.963 365C252.963 368.333 252.963 367 253.63 366.333Z" fill="#221E22"/>
<path d="M249.63 394.333C250.296 394.333 250.963 394.333 251.63 394.333C250.963 393.667 250.296 394.333 249.63 394.333Z" fill="#221E22"/>
<path d="M233.63 391C234.296 390.333 234.963 389.667 234.963 389.667C235.63 390.333 236.296 391 236.963 391C237.63 391 238.296 391 238.296 391.667H238.963V391C238.296 391 238.296 391 237.63 391C236.963 391 236.296 391 236.296 390.333C235.63 390.333 235.63 389.667 235.63 389.667H236.296H236.963C237.63 389.667 237.63 389.667 237.63 388.333C236.963 387.667 235.63 388.333 234.963 388.333C234.963 388.333 234.963 388.333 234.963 387.667C234.963 387 234.963 386.333 234.296 387C233.63 387 233.63 387.667 232.963 387.667C232.296 388.333 231.63 388.333 230.963 389C230.963 388.333 231.63 387.667 230.963 387C229.63 387.667 228.963 389 227.63 389.667C227.63 388.333 228.963 387.667 228.963 386.333C228.296 387 227.63 387 226.963 387C226.296 387 225.63 387 224.963 386.333C224.963 387 224.963 387 224.296 387C225.63 387 226.963 387 228.296 387C227.63 388.333 226.963 389 226.963 390.333C227.63 390.333 227.63 389.667 227.63 389.667C228.296 389 229.63 387.667 230.296 387C230.296 387 230.963 386.333 230.963 387C230.296 387.667 230.296 389 229.63 389.667L230.296 389C230.963 387.667 231.63 387 232.963 387C232.963 387 233.63 387 234.296 387C234.963 389 233.63 389.667 233.63 391Z" fill="#221E22"/>
<path d="M24.2963 373C23.6297 374.333 22.963 376.333 22.2963 377.667C20.963 379.667 20.2963 381 18.963 383C18.963 383.667 19.6297 383.667 19.6297 383.667C19.6297 384.333 20.2963 384.333 20.2963 384.333C20.963 384.333 20.963 384.333 21.6297 383.667C22.2963 383 22.2963 383 22.963 383C24.963 381.667 26.963 379.667 28.2963 377C28.963 375.667 29.6297 374.333 30.2963 373C30.963 371.667 30.963 371 31.6297 369.667C31.6297 369 31.6297 367.667 31.6297 367C31.6297 364.333 31.6297 362.333 30.963 359.667C30.2963 357.667 30.2963 355 28.963 353C28.963 353 28.963 353 28.2963 353C27.6297 352.333 26.963 351 26.963 349.667L26.2963 349C25.6297 348.333 24.963 347 24.2963 346.333C22.963 347.667 22.963 347 22.2963 346.333C21.6297 345 20.963 343.667 20.2963 343C19.6297 341.667 19.6297 341 18.963 339.667C18.2963 337.667 18.2963 336.333 18.2963 334.333C18.2963 332.333 18.2963 331 18.963 329C19.6297 327 20.2963 325 20.2963 323C20.963 321 22.2963 319 23.6297 317C24.2963 315.667 25.6297 315 26.2963 313.667C26.963 312.333 28.2963 311 28.2963 309C28.2963 307.667 28.2963 306.333 28.2963 305C27.6297 303 27.6297 301 26.963 299.667C26.2963 298.333 25.6297 297 25.6297 295.667C24.963 293.667 24.2963 292.333 24.2963 290.333C24.2963 289 24.2963 287 24.963 285.667C25.6297 283.667 26.2963 281.667 26.963 279.667C27.6297 278.333 28.2963 277 28.963 275.667C30.2963 274.333 30.963 273 31.6297 271.667C32.2963 271 32.2963 270.333 32.963 269.667C33.6297 268.333 34.2963 267.667 34.963 266.333C34.963 266.333 34.2963 266.333 34.2963 267C34.2963 267.667 33.6297 268.333 32.963 269C32.2963 269.667 31.6297 270.333 30.963 271C30.2963 273 29.6297 274.333 28.2963 275.667C27.6297 276.333 26.963 277.667 26.2963 278.333C25.6297 279 24.963 280.333 24.963 281C24.2963 281.667 23.6297 282.333 23.6297 283.667C22.963 285 22.2963 286.333 22.2963 287.667C21.6297 289.667 21.6297 291 22.2963 293C22.963 294.333 22.963 295.667 23.6297 296.333C22.963 298.333 22.963 299 24.2963 299.667C24.963 300.333 24.963 301 24.963 301C24.963 301.667 24.963 301.667 25.6297 302.333C25.6297 303 26.2963 303.667 26.2963 304.333C26.2963 305.667 26.2963 306.333 26.2963 307.667C26.2963 309.667 25.6297 311.667 23.6297 313.667C22.2963 315 20.963 316.333 19.6297 318.333C18.963 319 18.2963 319.667 17.6297 321C15.6297 323.667 14.2963 327 13.6297 330.333C13.6297 331 13.6297 331.667 12.963 332.333C12.963 333 12.2963 334.333 12.2963 335C12.2963 336.333 12.2963 337 12.963 338.333C12.963 339.667 12.963 340.333 13.6297 341C14.2963 342.333 14.2963 343.667 14.963 345C14.963 345.667 14.963 345.667 15.6297 346.333C16.2963 347 16.2963 347.667 16.963 349C17.6297 350.333 17.6297 351 18.2963 351.667C18.963 352.333 18.963 353 19.6297 353.667C20.2963 354.333 20.963 355.667 20.963 356.333C21.6297 358.333 22.963 359.667 22.963 361.667C22.963 362.333 23.6297 362.333 23.6297 363C23.6297 363.667 24.2963 363.667 24.2963 363.667C24.2963 365 24.963 365.667 24.963 367C24.963 367.667 24.963 368.333 24.963 369.667C24.2963 370.333 24.2963 371.667 24.2963 373Z" fill="#221E22"/>
<path d="M36.963 361.667C37.6297 363 38.2963 363.667 38.963 365C39.6297 365.667 39.6297 366.333 39.6297 366.333C39.6297 367.667 39.6297 369 40.963 370.333C41.6297 371 41.6297 371.667 42.2963 372.333C42.963 373 42.963 373.667 43.6297 374.333C44.963 375.667 46.2963 377 47.6297 377.667C48.2963 378.333 48.963 378.333 49.6297 379.667C49.6297 380.333 50.2964 380.333 50.2964 380.333H50.963C50.963 381 51.6297 381 52.2963 381.667C52.2963 381.667 52.963 381.667 52.963 382.333C53.6297 382.333 53.6297 383 54.2963 383C55.6297 383.667 56.2963 383.667 57.6297 384.333C58.2963 384.333 58.963 384.333 60.2964 383.667C60.963 383.667 61.6297 383 62.2963 383C63.6297 382.333 64.963 382.333 65.6297 381.667C65.6297 381.667 65.6297 381.667 66.2963 381.667C67.6297 381.667 68.963 381 69.6297 381C70.963 380.333 72.963 380.333 74.2963 379.667C75.6297 379 76.2963 379 77.6297 378.333C78.963 377.667 80.2964 377.667 80.963 377.667C82.2964 377 83.6297 377 85.6297 377C86.2964 377 86.2964 377 86.963 377C88.2964 377 90.2964 377.667 91.6297 377.667C92.963 377.667 93.6297 378.333 94.2964 378.333C95.6297 379 96.963 379.667 98.2964 381C99.6297 382.333 101.63 382.333 103.63 382.333C104.296 382.333 104.296 382.333 104.963 382.333C105.63 382.333 106.963 381.667 107.63 382.333C108.296 382.333 108.963 382.333 109.63 383C110.296 383 110.963 383 111.63 383C112.296 383 112.963 383 112.963 383.667H113.63C114.963 383.667 115.63 384.333 116.963 384.333C117.63 384.333 117.63 384.333 118.296 384.333H118.963C120.296 385 120.963 385 122.296 385.667C121.63 385.667 121.63 385 121.63 385C120.963 384.333 120.296 384.333 119.63 383.667C119.63 383.667 119.63 383.667 118.963 383.667C116.963 383 115.63 382.333 113.63 382.333C113.63 382.333 112.963 382.333 112.963 381.667H112.296C109.63 381 108.296 381 107.63 381C106.296 380.333 104.296 380.333 102.963 381C101.63 381 99.6297 381 98.2964 380.333H97.6297C96.963 379.667 96.2964 379.667 96.2964 379C95.6297 378.333 94.2964 377.667 92.963 377.667C92.2964 377.667 90.963 377 90.2964 377C89.6297 377 88.963 377 88.2964 377C86.963 377 85.6297 377 84.963 377C83.6297 377 81.6297 377 80.2964 377C78.2964 377 76.2963 377.667 74.2963 377.667C72.963 377.667 71.6297 378.333 70.963 378.333C68.963 379 66.963 379 64.963 379.667C62.963 380.333 60.963 381 58.963 381C57.6297 381 56.2963 381 54.963 381C53.6297 380.333 52.2963 379.667 51.6297 379C50.2963 377.667 49.6297 377 48.2963 376.333C46.963 375 44.963 374.333 43.6297 373L42.963 372.333C42.2963 371.667 42.2963 371 41.6297 370.333C40.2963 369 40.2963 368.333 40.2963 366.333C40.963 367 41.6297 367 41.6297 367C41.6297 367 42.2963 367.667 42.963 367.667L43.6297 367C42.963 367 42.963 366.333 42.2963 365.667C41.6297 365 40.963 364.333 40.2963 364.333C39.6297 363.667 38.963 363.667 38.963 363C38.963 362.333 38.2963 362.333 38.2963 361.667C37.6297 361 36.963 359.667 37.6297 358.333C38.2963 358.333 38.2963 359 38.2963 359C38.963 359.667 39.6297 359.667 40.2963 360.333C40.963 361 41.6297 361 42.2963 361.667C42.963 361.667 42.963 362.333 43.6297 362.333C44.2963 363 44.963 362.333 44.963 363.667C45.6297 363.667 46.2963 364.333 46.963 364.333C47.6297 364.333 48.2963 365 48.963 365.667C49.6297 365.667 49.6297 365 49.6297 365L48.963 364.333C48.2963 363.667 48.2963 363.667 47.6297 363C46.963 362.333 46.2963 361.667 45.6297 361C45.6297 360.333 45.6297 360.333 44.963 359.667C44.2963 359 44.2963 359 44.963 358.333C44.963 357.667 44.963 357 44.963 356.333C44.963 355 43.6297 353.667 42.963 353C42.2963 352.333 40.963 351.667 40.2963 351C38.2963 349 36.2963 347.667 34.2963 346.333C32.2963 345 30.963 343.667 30.963 341.667C30.963 341 30.963 340.333 30.963 339.667C31.6297 338.333 32.2963 337 32.2963 336.333C32.963 335.667 32.963 335 31.6297 334.333C31.6297 335.667 30.2963 336.333 30.2963 337.667C29.6297 338.333 28.963 339.667 28.963 341C28.963 343 29.6297 344.333 30.963 345.667V346.333C29.6297 347 29.6297 347.667 29.6297 349C29.6297 350.333 30.2963 351.667 30.963 353C31.6297 353.667 32.2963 354.333 32.963 355.667C32.963 355.667 32.963 355.667 33.6297 356.333C34.2963 357 35.6297 358.333 36.2963 359C36.2963 359.667 36.2963 359.667 35.6297 360.333C36.2963 360.333 36.2963 361 36.963 361.667ZM36.2963 353L35.6297 352.333C34.963 351.667 34.2963 351 33.6297 349.667L32.963 349C32.2963 348.333 32.2963 348.333 32.963 347.667C33.6297 347.667 34.2963 347.667 34.2963 348.333C34.963 349 36.2963 349 36.963 349.667C37.6297 350.333 38.963 351 39.6297 351.667C40.2963 352.333 41.6297 353 42.2963 353C42.963 353.667 43.6297 353.667 44.2963 354.333L44.963 355C44.963 356.333 44.963 358.333 44.963 359.667H44.2963C43.6297 359.667 43.6297 359 42.963 359C42.963 359 42.2963 359 42.2963 358.333C41.6297 357.667 40.963 357 40.2963 356.333C39.6297 355.667 38.963 355.667 38.963 355L38.2963 354.333C37.6297 354.333 36.963 353.667 36.2963 353Z" fill="#221E22"/>
<path d="M270.296 336.333C270.296 337.667 270.963 339.667 270.963 341C270.963 343 271.63 345.667 271.63 347.667C272.296 349.667 272.296 351.667 272.296 353.667C272.963 353.667 272.963 353.667 272.963 353C272.963 352.333 272.963 352.333 272.963 351.667C272.963 351 272.963 349.667 273.63 349C273.63 346.333 273.63 344.333 273.63 341.667C273.63 339.667 273.63 337.667 273.63 335.667C273.63 333.667 273.63 331.667 272.963 330.333C272.296 327.667 272.296 325 271.63 322.333C271.63 321.667 271.63 321 270.963 320.333C270.296 318.333 270.296 315.667 269.63 313.667C269.63 313 269.63 313 268.963 313V312.333C268.963 312.333 268.963 313 269.63 313C269.63 312.333 269.63 311.667 268.963 311C268.296 310.333 268.963 309.667 268.963 309.667V309C268.963 308.333 268.296 308.333 268.296 308.333C268.296 307 267.63 305.667 267.63 305V304.333C266.963 303.667 266.963 303 266.963 303C266.963 302.333 266.963 302.333 266.963 301.667V302.333C266.296 301.667 266.296 301 266.963 300.333C266.963 299.667 266.963 299 266.296 298.333C265.63 298.333 265.63 297 265.63 297C265.63 296.333 266.296 296.333 266.296 296.333C265.63 296.333 265.63 296.333 265.63 295.667C265.63 295 265.63 295 265.63 294.333V293.667C265.63 293 265.63 292.333 264.963 291.667C264.296 289.667 264.296 287.667 263.63 285.667C262.963 283.667 262.296 282.333 262.296 280.333C260.963 276.333 260.296 272.333 259.63 269C259.63 268.333 259.63 267.667 258.963 267.667C258.296 265.667 258.296 264.333 257.63 262.333C256.963 261 256.963 259.667 256.963 258.333C256.296 255.667 256.296 253.667 256.296 251C256.296 249.667 256.296 248.333 256.296 246.333C256.296 245 256.296 243 256.296 241.667C256.296 239.667 256.296 237.667 256.296 235.667C256.296 234.333 256.296 233 256.296 232.333C256.296 229.667 256.296 227 255.63 225C254.963 222.333 254.963 220.333 253.63 218.333C253.63 217.667 252.963 217.667 252.963 217C252.963 215 252.296 213.667 251.63 212.333C250.963 211 250.963 210.333 250.296 209V209.667C250.963 211 250.963 212.333 250.963 213.667C250.963 214.333 250.963 214.333 251.63 215C251.63 215.667 252.296 215.667 252.296 216.333C252.296 217 252.296 217.667 252.296 218.333C252.296 220.333 252.296 222.333 252.296 225C252.296 225.667 252.296 226.333 252.296 227C252.296 229.667 252.296 232.333 251.63 235C251.63 236.333 251.63 237.667 251.63 239C251.63 240.333 251.63 241 251.63 242.333C250.963 245 250.963 247 250.296 249C250.296 251.667 250.296 255 250.296 257.667C250.296 259 250.296 259.667 250.963 261C251.63 263 251.63 265 251.63 266.333C251.63 267.667 252.296 269 252.296 269.667C252.296 271 252.963 272.333 252.963 273.667C253.63 275.667 254.296 277.667 254.296 279.667C254.296 281 254.963 282.333 254.963 283.667C255.63 286.333 256.296 289.667 256.963 292.333C257.63 294.333 258.296 295.667 258.296 297.667C258.296 299 258.963 300.333 259.63 301C260.296 303 260.296 304.333 260.963 306.333V307C261.63 308.333 262.296 310.333 262.296 311.667C262.296 313 262.963 314.333 262.963 315.667C262.963 316.333 263.63 317.667 263.63 318.333C264.296 320.333 264.296 321.667 264.963 323.667C264.963 324.333 265.63 325 265.63 325.667C266.296 327 266.296 328.333 266.296 329.667C266.296 331 266.963 331.667 266.963 333C269.63 333 270.296 334.333 270.296 336.333Z" fill="#221E22"/>
<path d="M187.63 274.333C187.63 275.667 188.296 276.333 188.963 277C188.963 276.333 188.963 275.667 188.963 275C188.963 273 188.296 271.667 187.63 270.333C186.963 269.667 185.63 269.667 184.963 270.333V271C184.963 272.333 185.63 273 186.296 273C187.63 273 187.63 273.667 187.63 274.333Z" fill="#221E22"/>
<path d="M273.63 393C272.963 392.333 272.963 392.333 273.63 393C272.963 393 272.963 393 273.63 393Z" fill="#221E22"/>
<path d="M147.63 327C146.963 329 146.963 331 146.296 333C146.296 334.333 145.63 335 145.63 335.667C144.963 337 144.963 338.333 144.963 339.667C144.296 341.667 143.63 343 142.963 345C141.63 348.333 140.296 351.667 138.963 355C139.63 354.333 140.963 353.667 141.63 353C142.296 351.667 142.963 351 142.963 349.667C143.63 347.667 144.296 346.333 144.963 344.333C145.63 342.333 146.296 341 146.963 339C147.63 337.667 147.63 336.333 148.296 335C148.963 334.333 148.963 333 148.963 332.333C148.963 331 149.63 329.667 149.63 329C149.63 327.667 149.63 326.333 150.296 325.667C150.963 323.667 150.296 322.333 149.63 320.333C149.63 320.333 149.63 320.333 149.63 319.667C149.63 319 148.963 319 148.296 319C147.63 319 147.63 319.667 147.63 319.667C147.63 320.333 148.296 321 148.296 321.667C148.296 324.333 147.63 325.667 147.63 327Z" fill="#221E22"/>
<path d="M182.963 355C184.296 354.333 185.63 353.667 186.963 352.333C188.963 351 190.296 349.667 192.296 347.667C193.63 346.333 194.963 344.333 196.296 343C197.63 341.667 198.296 339.667 198.963 338.333C199.63 337.667 199.63 337 199.63 337C200.296 336.333 200.963 335.667 200.963 334.333C201.63 332.333 202.963 330.333 203.63 328.333C204.296 327 204.296 325.667 204.963 325C205.63 324.333 205.63 323.667 205.63 323C205.63 322.333 206.296 321.667 206.296 321.667C206.963 319.667 207.63 318.333 207.63 316.333C207.63 315.667 207.63 314.333 207.63 313.667C207.63 312.333 207.63 311.667 207.63 311C207.63 310.333 207.63 310.333 207.63 309.667C207.63 309 207.63 309 206.963 308.333V309C206.963 311 206.963 312.333 206.296 314.333C206.296 315.667 205.63 317 205.63 318.333C205.63 319.667 204.963 320.333 204.296 321C203.63 322.333 203.63 323 202.963 324.333C202.296 325.667 201.63 326.333 200.963 327.667C200.296 329 199.63 330.333 198.296 332.333C197.63 333.667 196.963 334.333 196.296 335.667C195.63 336.333 194.963 337 194.963 337.667C194.296 338.333 194.296 338.333 193.63 339C192.963 339.667 192.963 340.333 192.963 340.333C192.296 341 192.296 341.667 191.63 342.333C190.963 343 190.963 343.667 190.296 343.667C189.63 344.333 188.963 345 188.296 345.667C187.63 346.333 187.63 346.333 186.963 347C186.296 347.667 185.63 348.333 185.63 349C185.63 349 185.63 349.667 184.963 349.667C184.963 349.667 184.963 349.667 184.296 350.333L183.63 351C182.296 351.667 181.63 353 180.296 353.667L179.63 354.333C178.963 354.333 178.296 355 177.63 355.667C176.296 356.333 174.963 357.667 173.63 357.667C174.296 357.667 174.296 358.333 174.296 358.333C174.963 358.333 175.63 358.333 176.296 358.333C180.296 356.333 181.63 355.667 182.963 355Z" fill="#221E22"/>
<path d="M34.2963 282.333C34.2963 281 34.963 280.333 35.6296 279C35.6296 278.333 36.2963 278.333 36.2963 277.667C36.963 277 36.963 276.333 37.6296 276.333C38.2963 275.667 38.2963 275.667 38.2963 275C37.6296 275 37.6296 275 36.963 275.667C36.963 275.667 36.963 275.667 36.2963 276.333C35.6296 277 34.963 277.667 34.2963 277.667C33.6296 278.333 32.963 279 32.963 279.667C32.2963 280.333 32.2963 281.667 31.6296 282.333C31.6296 283 30.963 283 30.963 283.667C30.2963 285 29.6296 286.333 29.6296 288.333C29.6296 290.333 29.6296 292.333 29.6296 293.667C29.6296 295 29.6296 295.667 29.6296 297C29.6296 299 30.2963 300.333 30.2963 302.333C30.2963 304.333 30.963 306.333 30.963 308.333C30.963 309.667 30.963 310.333 31.6296 311C32.2963 313.667 32.963 316.333 32.963 319.667C32.963 321.667 33.6296 323.667 33.6296 325.667C33.6296 327 34.2963 327.667 34.2963 328.333C34.2963 329.667 34.963 331 34.963 333C34.963 334.333 35.6296 335.667 35.6296 336.333C35.6296 337 35.6296 337.667 36.2963 338.333V339C36.963 339.667 37.6296 339.667 37.6296 339.667C38.2963 339.667 38.2963 340.333 38.963 340.333C39.6296 341 41.6296 341 43.6296 341C45.6296 341 46.963 341 48.2963 340.333C49.6296 340.333 50.2963 339.667 51.6296 340.333C53.6296 340.333 54.963 340.333 56.963 340.333C57.6296 340.333 58.963 339.667 59.6296 340.333C60.963 340.333 61.6296 340.333 62.963 340.333C63.6296 340.333 64.2963 339.667 64.963 339C63.6296 337.667 62.963 337 61.6296 336.333C60.963 335.667 60.963 335 60.2963 335C59.6296 335 59.6296 334.333 58.963 334.333C58.2963 334.333 58.2963 333.667 57.6296 333.667C56.963 333 55.6296 332.333 54.963 332.333C53.6296 331.667 52.2963 331 50.963 330.333C50.2963 330.333 49.6296 330.333 48.963 330.333C49.6296 330.333 49.6296 331 50.2963 331C50.963 331.667 51.6296 331.667 52.2963 331.667C53.6296 332.333 54.2963 333 54.963 333.667C55.6296 334.333 56.2963 334.333 56.2963 335C56.2963 335.667 56.963 336.333 57.6296 336.333C56.963 337 56.2963 336.333 55.6296 337C54.2963 337 52.2963 337.667 50.963 337.667C50.2963 337.667 50.2963 337.667 49.6296 337.667C48.963 337 48.963 337.667 48.963 337.667C48.2963 337.667 48.2963 337.667 47.6296 337.667C47.6296 337.667 47.6296 337.667 46.963 337.667C46.2963 337.667 46.2963 337.667 45.6296 337.667C44.963 338.333 44.963 337.667 44.2963 337.667C43.6296 337.667 42.963 337 42.2963 337.667C41.6296 337.667 41.6296 337.667 41.6296 337.667C41.6296 337.667 40.963 337.667 40.963 337H40.2963C39.6296 337 39.6296 336.333 39.6296 336.333C38.963 336.333 38.963 336.333 38.2963 336.333C37.6296 336.333 37.6296 335.667 37.6296 335C37.6296 334.333 36.963 334.333 36.963 333.667V333C36.2963 332.333 36.2963 331.667 36.2963 331C36.2963 329.667 36.2963 329 35.6296 327.667C35.6296 326.333 34.963 325 34.963 323.667C34.963 323 34.2963 321.667 34.2963 321C34.2963 319 33.6296 317 33.6296 315C32.963 313.667 32.963 311.667 32.963 310.333C32.963 309.667 32.963 309 32.963 309C32.963 307 32.2963 304.333 32.2963 302.333C31.6296 299.667 31.6296 297 31.6296 294.333C31.6296 293.667 31.6296 293 31.6296 293C30.963 291 32.2963 289 32.2963 287C32.963 285 33.6296 283.667 34.2963 282.333Z" fill="#221E22"/>
<path d="M184.296 279C184.296 278.333 184.296 277.667 183.63 277C183.63 276.333 182.963 275.667 182.296 275.667C180.963 275 178.963 274.333 177.63 274.333C176.296 273.667 175.63 273.667 174.296 273.667C172.296 273 170.963 273 169.63 272.333C168.963 272.333 168.963 271.667 168.296 271.667C168.296 272.333 168.963 273.667 168.963 274.333C168.963 275 169.63 276.333 169.63 277C169.63 279.667 170.963 282.333 172.963 283.667C173.63 284.333 174.296 284.333 174.963 285C176.296 285.667 177.63 285.667 178.963 285.667C180.296 285.667 181.63 285 183.63 284.333C184.296 284.333 184.963 283.667 185.63 283C186.296 282.333 186.296 282.333 186.296 281.667C186.296 281 186.296 280.333 186.963 279.667C186.963 278.333 186.296 278.333 185.63 278.333C184.963 279.667 184.963 279.667 184.296 279Z" fill="#221E22"/>
<path d="M71.6297 265.667C70.2963 265 69.6297 264.333 68.2963 264.333H67.6297C66.963 264.333 66.2963 263.667 66.2963 263.667C65.6297 263.667 64.2963 263 63.6297 263C62.963 263 62.963 263 62.2963 263H61.6297C59.6297 262.333 58.2963 262.333 56.2963 263C55.6297 263 55.6297 263 54.963 263C53.6297 263 53.6297 263 52.963 263.667C53.6297 263.667 53.6297 263.667 54.2963 263.667C54.963 263.667 56.2963 263.667 56.963 263C58.2963 263 58.963 263 60.2963 263C60.963 263 62.2963 263.667 62.963 263.667H63.6297C64.2963 264.333 65.6297 264.333 66.2963 265C66.963 265 67.6297 265.667 68.2963 266.333C68.2963 266.333 68.2963 266.333 68.963 266.333C70.2963 267 71.6297 267.667 72.963 269C73.6297 269.667 74.2963 270.333 75.6297 271C76.2963 271.667 76.963 271.667 76.963 272.333C77.6297 273 78.2963 273 78.2963 273.667C79.6297 274.333 80.963 275 82.2963 276.333C82.963 277 84.2963 277.667 84.963 278.333C85.6297 279 86.2963 279 86.963 279.667C88.963 281 90.963 282.333 92.963 283.667C92.963 283.667 92.963 283.667 93.6297 283.667C95.6297 284.333 96.963 285.667 98.2963 286.333C99.6297 287 100.296 287.667 101.63 287.667C102.963 288.333 104.296 288.333 106.296 289C107.63 289 108.296 289.667 109.63 289.667C111.63 289.667 113.63 289.667 115.63 289.667C116.963 289.667 118.296 289 119.63 289C121.63 288.333 122.963 287.667 124.963 287C126.296 286.333 127.63 285.667 128.963 285C131.63 283.667 133.63 281.667 135.63 279.667C136.963 277.667 138.296 276.333 139.63 274.333C140.296 273.667 140.963 272.333 142.296 271.667C142.963 271 143.63 270.333 144.296 270.333C144.963 269.667 146.296 269.667 146.963 269.667C147.63 269.667 147.63 269.667 148.296 269.667V270.333C148.296 269.667 148.963 269.667 148.963 269.667H149.63C150.296 269 150.963 269.667 151.63 269C152.296 269 152.296 269 152.963 269C154.296 269 154.963 269 156.296 269C156.963 269 156.963 269 156.963 269C158.963 268.333 160.963 267.667 162.296 267C164.963 265.667 166.963 263 168.296 261C169.63 259 170.296 257 170.296 254.333C170.296 253 170.296 251.667 170.296 250.333C170.296 249 169.63 247.667 169.63 246.333C169.63 245 169.63 243.667 169.63 243C169.63 242.333 170.296 241.667 170.296 241C170.963 240.333 170.963 239 172.296 239C172.963 238.333 172.963 238.333 173.63 238.333C174.296 238.333 174.963 238.333 175.63 238.333C176.296 238.333 176.963 238.333 177.63 238.333C178.296 238.333 178.963 239 179.63 239C180.963 239.667 181.63 239.667 182.963 240.333C183.63 240.333 184.296 241 184.963 241C185.63 241 186.296 241 186.963 241.667H187.63C188.963 241.667 190.296 241.667 191.63 241C192.963 240.333 194.963 239.667 196.296 238.333C197.63 237 198.296 235.667 198.963 234.333C199.63 233.667 199.63 233 200.296 231.667C200.963 230.333 201.63 229.667 202.963 228.333C203.63 227.667 204.296 227.667 204.963 227C205.63 226.333 205.63 227 206.296 227C206.963 227 207.63 227 208.296 227C208.963 227.667 209.63 227.667 210.963 227.667C211.63 227.667 211.63 227.667 212.296 227.667C212.963 227.667 212.963 227.667 213.63 228.333C214.296 229 214.296 228.333 214.963 229C215.63 229.667 216.296 230.333 217.63 230.333C218.296 230.333 218.963 231 218.963 231C219.63 231 219.63 231.667 220.296 231.667C220.963 232.333 222.296 232.333 222.963 233C224.296 233.667 224.963 234.333 226.296 234.333C226.296 234.333 226.296 234.333 226.963 234.333C227.63 235 228.296 235 228.963 235C229.63 235 230.296 235 231.63 235C232.296 235 232.963 235 232.963 235C233.63 235 234.963 234.333 235.63 234.333C236.296 234.333 236.963 234.333 237.63 233.667C238.296 233 239.63 232.333 240.296 231.667L240.963 231C240.296 231 240.296 231 239.63 231.667C238.296 232.333 237.63 232.333 236.296 233C233.63 233 231.63 233 229.63 232.333C228.963 232.333 227.63 231.667 226.963 231.667C226.296 231.667 225.63 231 225.63 231C224.963 231 224.296 230.333 223.63 230.333C222.296 229.667 220.963 229 220.296 228.333C218.296 227 216.296 226.333 214.296 225.667C212.963 225 210.963 224.333 209.63 224.333C208.296 223.667 206.963 223.667 205.63 223.667C202.963 223.667 200.963 225 199.63 226.333C198.963 227 198.296 228.333 197.63 229C196.963 230.333 196.296 231.667 194.963 233C194.296 233.667 194.296 234.333 193.63 234.333C192.296 235 191.63 235.667 190.296 236.333C189.63 236.333 188.963 237 188.296 237C186.963 237 185.63 237 184.296 236.333C183.63 236.333 182.963 235.667 182.963 235.667C180.296 235 178.296 233.667 176.296 233.667C174.963 233.667 174.296 233 172.963 233.667C172.296 233.667 171.63 234.333 170.296 234.333C169.63 234.333 168.963 235 168.963 235.667C168.296 236.333 168.296 237 167.63 237.667C166.963 239 166.296 239.667 166.296 241C166.296 241 166.296 241 166.296 241.667C165.63 242.333 165.63 243 165.63 243.667C165.63 244.333 165.63 245 165.63 245.667C165.63 247 165.63 248.333 165.63 249.667C165.63 250.333 165.63 251 165.63 252.333C165.63 253.667 164.963 254.333 164.963 255.667C164.296 257.667 163.63 259 162.296 260.333C161.63 261 160.963 261 160.963 261.667C159.63 263 158.296 263.667 156.963 264.333C154.963 265.667 152.963 265.667 150.963 265.667C148.963 265.667 146.963 265.667 144.963 266.333C143.63 267 141.63 267 140.296 267.667C137.63 269 134.963 270.333 132.963 273C132.296 274.333 131.63 275.667 130.963 276.333C129.63 277.667 128.963 279 127.63 280.333C125.63 282.333 122.963 283.667 120.296 284.333C118.296 285 115.63 285.667 113.63 286.333C112.963 286.333 112.296 286.333 111.63 286.333C110.963 286.333 110.296 286.333 110.296 286.333C110.296 286.333 108.963 286.333 108.296 286.333C107.63 286.333 107.63 286.333 106.963 286.333C106.296 286.333 105.63 286.333 104.963 286.333C103.63 285.667 102.296 285.667 100.963 285C99.6297 284.333 98.2963 284.333 96.963 283.667C94.963 282.333 92.963 281.667 90.963 280.333C90.2963 280.333 90.2963 279.667 89.6297 279.667C88.963 279 88.2963 279 87.6297 278.333C86.2963 277.667 84.963 277 84.2963 275.667C82.963 274.333 81.6297 273.667 80.2963 273C78.2963 271.667 76.2963 270.333 74.963 269C73.6297 267.667 72.963 266.333 71.6297 265.667Z" fill="#221E22"/>
<path d="M52.963 375.667C52.2963 375 51.6296 374.333 50.963 373.667L50.2963 373C49.6296 371.667 49.6296 370.333 49.6296 369V368.333C50.2963 368.333 50.2963 367.667 50.2963 367C50.2963 366.333 50.2963 365.667 49.6296 365.667C49.6296 365.667 48.963 365.667 48.2963 365.667L47.6296 366.333C48.2963 366.333 48.2963 367 48.2963 367V367.667C48.2963 369 47.6296 369.667 48.2963 371C48.2963 371.667 48.2963 371.667 48.963 371.667L49.6296 372.333C49.6296 374.333 49.6296 374.333 50.2963 374.333C50.963 375 50.963 375.667 52.2963 375.667C52.2963 375.667 52.963 375.667 52.963 376.333C53.6296 377 53.6296 377.667 53.6296 378.333C53.6296 378.333 54.2963 378.333 54.2963 379C53.6296 377.667 52.963 377 52.963 375.667Z" fill="#221E22"/>
<path d="M282.963 6.66667C282.963 5.33333 282.963 4 282.296 3.33333C282.296 2.66667 282.296 2 282.296 1.33333C282.296 0.666667 282.296 0.666668 281.63 0.666668C280.963 0.666668 279.63 9.4374e-07 278.963 0.666668H278.296C277.63 0.666668 276.296 9.4374e-07 275.63 0.666668C273.63 0.666668 272.296 0.666667 270.963 1.33333C268.296 1.33333 265.63 1.33333 262.963 1.33333H262.296C259.63 0.666667 257.63 0.666667 255.63 0C254.963 0 254.963 0 254.296 0C254.296 0 254.296 0 253.63 0H252.963C252.296 0 252.296 0.666667 251.63 0C250.963 0 250.963 0 250.296 0C250.296 0 249.63 0.666667 249.63 0H250.296C249.63 0 249.63 0 248.963 0C248.296 0 247.63 0 247.63 0C246.296 0 244.963 0 242.963 0C240.963 0 238.963 0 236.296 0C234.963 0 234.296 0 232.963 0C232.296 0 230.963 0 230.296 0C228.963 0 226.963 0 225.63 0C224.296 0 223.63 0 222.963 0C220.963 0 218.296 9.4374e-07 216.296 0.666668C215.63 0.666668 214.963 0.666668 213.63 0.666668C212.296 0.666668 210.963 0.666668 209.63 0.666668C208.963 0.666668 208.296 0.666668 207.63 0.666668C206.296 0.666668 204.963 0.666668 203.63 0.666668C201.63 0.666668 200.296 0.666668 198.296 0.666668C196.963 0.666668 195.63 0.666668 193.63 0.666668H192.963C190.963 1.33333 188.963 1.33333 186.963 1.33333C185.63 2 184.296 1.33333 182.963 2C182.296 2 181.63 2 180.963 2C180.296 2 178.963 2.66667 178.296 2.66667H177.63C176.963 2.66667 176.963 2.66667 176.296 2.66667C175.63 2.66667 175.63 2.66667 174.963 2.66667C174.296 2.66667 172.963 2.66667 172.296 2.66667C171.63 2.66667 171.63 2.66667 170.963 2C168.963 2 166.963 1.33333 165.63 1.33333C164.963 1.33333 164.296 1.33333 163.63 1.33333C162.963 1.33333 162.296 1.33333 161.63 1.33333C160.296 1.33333 158.963 1.33333 157.63 1.33333C156.296 1.33333 154.296 1.33333 152.963 1.33333C150.963 1.33333 149.63 1.33333 147.63 1.33333C146.963 1.33333 146.296 1.33333 144.963 1.33333C143.63 1.33333 142.963 1.33333 141.63 1.33333C139.63 1.33333 138.296 1.33333 136.296 0.666668C135.63 0.666668 134.963 0.666668 134.963 0.666668C132.963 0.666668 131.63 0.666668 129.63 0.666668C128.296 0.666668 126.963 1.33333 125.63 0.666668C124.296 1.33333 122.296 0.666667 120.963 1.33333C120.296 1.33333 120.296 1.33333 119.63 1.33333C117.63 1.33333 115.63 1.33333 113.63 1.33333C112.963 1.33333 111.63 1.33333 110.963 1.33333C109.63 1.33333 108.963 1.33333 107.63 1.33333C106.963 1.33333 106.296 1.33333 105.63 1.33333C104.296 1.33333 102.296 2 100.963 2C99.6296 2 98.963 2 97.6296 2C95.6296 2 94.2963 2 92.2963 2C91.6296 2 91.6296 2 91.6296 2C90.963 2 90.963 1.33333 90.2963 1.33333C89.6296 1.33333 88.2963 0.666668 87.6296 0.666668C86.2963 0.666668 84.963 0.666667 83.6296 0C82.963 0 82.2963 0 81.6296 0C78.963 0 76.963 0 74.2963 0C73.6296 0 72.2963 0 71.6296 0C69.6296 0 67.6296 0.666668 65.6296 0.666668C64.2963 0.666668 62.963 0.666667 61.6296 1.33333C60.963 1.33333 59.6296 1.33333 58.963 2C58.2963 2 58.2963 2 57.6296 2C56.2963 2 54.963 2 53.6296 2C52.963 2 51.6296 2 50.963 2C49.6296 1.33333 48.2963 2 46.963 1.33333C47.6296 2.66667 44.963 2.66667 42.963 2.66667C41.6296 2.66667 40.2963 2 39.6296 2C37.6296 2 36.2963 1.33333 34.2963 1.33333C33.6296 1.33333 33.6296 1.33333 32.963 1.33333C31.6296 0.666667 29.6296 0.666667 27.6296 0C26.2963 0 24.2963 9.4374e-07 22.963 0.666668C21.6296 9.4374e-07 20.963 0.666668 20.2963 0.666668C18.2963 1.33333 16.963 1.33333 14.963 1.33333C14.2963 1.33333 13.6296 1.33333 12.963 1.33333C11.6296 1.33333 9.62963 1.33333 8.2963 1.33333C7.62963 1.33333 6.96296 1.33333 6.2963 1.33333C5.62963 1.33333 4.96296 1.33333 4.2963 1.33333C3.62963 1.33333 2.96296 2 2.96296 2.66667C2.96296 3.33333 2.96296 4 2.96296 4.66667C2.96296 6 2.96296 6.66667 2.96296 8C2.96296 10.6667 2.96296 14 2.96296 16.6667C2.96296 17.3333 2.96296 18 2.2963 18.6667C2.96296 19.3333 2.96296 20 2.2963 20.6667L1.62963 21.3333C1.62963 22 1.62963 22.6667 0.962964 23.3333C0.962964 23.3333 0.962963 23.3333 1.62963 22.6667C1.62963 23.3333 1.62963 24 0.962964 24.6667C1.62963 25.3333 1.62963 25.3333 0.962964 26C1.62963 26.6667 1.62963 26.6667 1.62963 27.3333C1.62963 28 1.62963 28 1.62963 28.6667C1.62963 29.3333 2.2963 30 1.62963 30.6667C0.962963 31.3333 1.62963 32.6667 1.62963 33.3333C1.62963 34 1.62963 34 1.62963 34.6667C1.62963 36 1.62963 37.3333 1.62963 38.6667C1.62963 39.3333 1.62963 40 1.62963 41.3333C1.62963 42.6667 1.62963 44 1.62963 45.3333C1.62963 46.6667 1.62963 48 1.62963 48.6667C1.62963 50 1.62963 52 1.62963 53.3333C1.62963 54 1.62963 54 1.62963 54.6667C1.62963 55.3333 1.62963 55.3333 1.62963 56C0.962963 56.6667 0.962964 56.6667 0.962964 57.3333V58C0.296297 58.6667 0.962963 58.6667 0.296296 59.3333C0.296296 60 0.296296 60 0.296296 60.6667C0.296296 61.3333 0.296296 62 0.296296 62.6667C0.296296 64 -0.37037 65.3333 0.296296 66.6667C0.296296 67.3333 0.296296 68 0.296296 68C-0.37037 69.3333 0.296296 71.3333 0.296296 72.6667C0.296296 74 0.296296 75.3333 0.296296 76.6667C0.296296 78.6667 0.296296 80 0.296296 81.3333C0.296296 83.3333 0.962964 84.6667 0.962964 86C0.962964 86.6667 0.962964 86.6667 0.962964 86.6667C0.962964 88 0.962964 89.3333 0.962964 90.6667V91.3333C0.962964 91.3333 0.962963 90.6667 1.62963 90.6667C1.62963 91.3333 1.62963 91.3333 1.62963 91.3333C2.2963 91.3333 2.96296 91.3333 2.96296 90.6667C2.96296 90 2.96296 90 2.96296 89.3333C2.96296 88.6667 2.96296 88.6667 3.62963 88C3.62963 88.6667 3.62963 89.3333 3.62963 89.3333C3.62963 90.6667 3.62963 92 4.2963 93.3333C4.2963 94 4.2963 95.3333 4.96296 96C4.96296 98 5.62963 98 6.2963 98C6.96296 98 6.96296 98 7.62963 98C7.62963 97.3333 7.62963 96.6667 7.62963 96C8.2963 95.3333 7.62963 94 8.2963 93.3333C8.96296 92.6667 8.96296 91.3333 8.96296 90.6667C8.96296 90 8.96296 88.6667 8.96296 88C8.96296 87.3333 8.96296 86 8.96296 85.3333C8.96296 84.6667 8.96296 84 8.96296 83.3333C8.96296 82.6667 8.96296 82 8.96296 82C8.96296 80.6667 8.96296 78.6667 8.96296 77.3333C8.96296 75.3333 8.96296 72.6667 8.96296 70.6667C8.96296 69.3333 8.96296 69.3333 8.2963 68.6667C8.96296 68.6667 8.96296 68 8.96296 68C8.96296 68 8.96296 68 8.96296 67.3333C8.96296 65.3333 8.96296 62.6667 8.96296 60.6667C8.96296 59.3333 8.96296 57.3333 8.96296 56C8.96296 55.3333 8.96296 55.3333 8.96296 54.6667C8.96296 54 8.96296 54 8.2963 53.3333C8.2963 53.3333 8.96296 53.3333 8.96296 52.6667C8.96296 52 8.96296 51.3333 8.96296 50.6667C8.96296 48.6667 8.96296 46.6667 8.96296 44.6667C8.96296 43.3333 8.96296 41.3333 8.96296 40C8.96296 38.6667 8.96296 36.6667 8.96296 35.3333C8.96296 34.6667 8.96296 34 8.96296 33.3333C8.96296 32.6667 8.96296 31.3333 8.96296 30.6667C8.96296 29.3333 8.96296 28.6667 8.96296 27.3333C8.96296 26 8.96296 24.6667 8.2963 24C8.2963 23.3333 8.2963 23.3333 8.2963 22.6667V22C8.2963 20.6667 8.2963 20 8.2963 18.6667C8.2963 18 8.2963 17.3333 8.2963 17.3333C8.2963 16.6667 8.2963 16.6667 8.2963 16.6667C7.62963 16.6667 7.62963 16.6667 7.62963 16C7.62963 16 7.62963 16.6667 8.2963 16.6667C8.2963 16.6667 8.2963 16.6667 8.2963 16C7.62963 14.6667 8.2963 14 8.2963 12.6667C8.2963 11.3333 8.2963 10 8.96296 8.66667C9.62963 8.66667 10.2963 9.33333 10.963 9.33333C11.6296 9.33333 12.2963 9.33333 12.963 10C12.963 9.33333 13.6296 9.33333 14.2963 9.33333C14.963 9.33333 15.6296 10 15.6296 10.6667C16.2963 10.6667 16.2963 10.6667 16.963 10.6667V10C18.2963 10 18.963 10 19.6296 10C19.6296 10 19.6296 10 18.963 10C19.6296 10 20.2963 10 20.2963 9.33333H20.963C20.2963 9.33333 20.2963 9.33333 20.2963 10C20.963 10 20.963 10 20.963 10C21.6296 9.33333 22.963 8.66667 23.6296 10C24.2963 10 24.2963 10 24.963 10C24.963 10 24.963 10 25.6296 10C26.2963 9.33333 26.963 9.33333 27.6296 9.33333H28.2963V10L28.963 9.33333C28.963 9.33333 28.963 9.33333 29.6296 9.33333C30.963 9.33333 32.2963 9.33333 33.6296 9.33333C34.2963 9.33333 34.2963 10 34.963 9.33333C34.963 9.33333 35.6296 9.33333 36.2963 9.33333C39.6296 9.33333 42.963 9.33333 46.2963 9.33333C48.2963 9.33333 50.2963 9.33333 52.963 9.33333C54.2963 9.33333 54.963 9.33333 56.2963 9.33333C56.963 9.33333 57.6296 9.33333 58.2963 8.66667C58.2963 9.33333 58.963 9.33333 59.6296 9.33333H60.2963C62.2963 9.33333 63.6296 9.33333 65.6296 8.66667C66.2963 8.66667 66.963 8.66667 67.6296 8C67.6296 8 67.6296 8 68.2963 8H68.963C69.6296 8 70.2963 8 70.2963 8.66667C70.963 8 71.6296 8 72.2963 8.66667C72.963 9.33333 73.6296 9.33333 74.2963 8.66667C73.6296 8.66667 73.6296 8.66667 72.963 8.66667C73.6296 8 73.6296 8.66667 74.2963 8.66667C74.963 8.66667 74.963 8.66667 75.6296 9.33333C75.6296 9.33333 75.6296 9.33333 75.6296 8.66667C75.6296 8.66667 75.6296 8.66667 76.2963 8.66667C76.963 8 77.6296 8 78.2963 8.66667C78.963 8.66667 79.6296 9.33333 80.2963 9.33333C80.963 9.33333 81.6296 9.33333 81.6296 10C81.6296 10 82.2963 10 82.963 10H82.2963C82.963 10 82.963 10 82.963 10C83.6296 10.6667 83.6296 10.6667 84.2963 10.6667C84.2963 10.6667 83.6296 10.6667 83.6296 10H84.2963C84.2963 10 84.2963 10.6667 84.963 10.6667C85.6296 10 85.6296 10 86.2963 10C86.963 10 87.6296 10 87.6296 9.33333H88.2963C88.963 9.33333 90.2963 9.33333 90.963 9.33333H91.6296C92.2963 8.66667 92.2963 9.33333 92.963 8.66667C93.6296 8.66667 94.2963 8.66667 94.2963 8C94.963 8.66667 95.6296 8 96.2963 8.66667C96.963 9.33333 96.963 9.33333 97.6296 8.66667C98.2963 8 98.2963 8 98.963 8.66667C99.6296 8.66667 99.6296 8.66667 100.296 8.66667C100.963 8.66667 100.963 8 101.63 8C102.296 8 102.296 8 102.296 8.66667C102.963 8 102.963 8 103.63 8C104.296 8.66667 104.963 8 105.63 8C106.296 8 107.63 8 108.296 8C110.296 8 112.963 8 114.963 8C115.63 8 115.63 8 116.296 7.33333C116.963 6.66667 117.63 6.66667 118.296 7.33333L118.963 8C118.963 7.33333 118.963 7.33333 118.963 7.33333C119.63 7.33333 119.63 7.33333 120.296 7.33333C121.63 8 122.296 7.33333 123.63 8C123.63 8 123.63 8.66667 122.963 8.66667C124.296 8.66667 124.963 9.33333 126.296 8.66667C125.63 8.66667 124.963 8.66667 124.296 8C124.963 7.33333 124.963 7.33333 125.63 7.33333C126.296 7.33333 127.63 8 128.296 8H127.63C128.296 8 128.963 8 128.963 8C128.963 7.33333 129.63 6.66667 130.296 7.33333C130.963 8 131.63 8 132.296 7.33333C132.963 7.33333 132.963 7.33333 133.63 8L134.296 8.66667C135.63 8.66667 136.963 8.66667 138.296 8.66667C138.296 8.66667 138.296 8 138.963 8C138.963 8 138.296 8 138.296 8.66667C138.963 8.66667 140.296 8.66667 140.963 8.66667C142.296 8.66667 143.63 8.66667 144.963 8.66667C146.963 8.66667 149.63 8.66667 151.63 8C153.63 8 155.63 7.33333 157.63 7.33333C158.296 7.33333 159.63 7.33333 160.296 7.33333C160.963 7.33333 161.63 7.33333 162.296 7.33333C162.963 7.33333 162.963 6.66667 163.63 6.66667C164.296 6.66667 164.963 6.66667 165.63 6.66667C166.296 6.66667 166.963 6.66667 167.63 7.33333C168.296 7.33333 168.296 8 168.963 8C170.963 8 172.296 8 173.63 8C174.963 8 176.963 8 178.296 8C179.63 8 181.63 8.66667 182.963 8.66667H183.63C184.296 8.66667 184.296 8.66667 184.963 8.66667C185.63 8.66667 185.63 8.66667 185.63 8.66667C186.296 8.66667 186.963 8.66667 187.63 8.66667C188.296 8.66667 188.296 8.66667 188.963 9.33333H189.63V8.66667C190.296 8.66667 190.296 8.66667 190.963 8.66667C191.63 9.33333 191.63 9.33333 191.63 9.33333C192.963 8 193.63 8 194.963 9.33333C195.63 8.66667 196.296 8.66667 196.963 9.33333C197.63 9.33333 197.63 8.66667 198.296 8.66667C198.963 8.66667 198.963 9.33333 199.63 8.66667C199.63 8.66667 199.63 8.66667 200.296 8.66667H200.963C201.63 8.66667 202.296 8.66667 202.296 9.33333C202.963 9.33333 202.963 9.33333 203.63 9.33333C202.963 8.66667 203.63 8.66667 204.296 8.66667C204.296 8.66667 204.963 8.66667 204.963 9.33333C205.63 10 206.296 10 206.963 10C207.63 10 208.296 9.33333 208.963 10V10.6667C210.296 10.6667 211.63 10.6667 212.963 10C213.63 10 214.296 9.33333 214.963 9.33333C215.63 10 215.63 10 216.296 9.33333H216.963C217.63 10 217.63 10 218.296 9.33333C218.963 10 218.963 8.66667 218.963 8.66667C219.63 9.33333 220.296 8.66667 220.296 8.66667C220.963 8 221.63 8 222.296 7.33333C222.963 8 223.63 7.33333 224.296 7.33333L224.963 8C225.63 8 226.296 8 226.296 8C225.63 8 225.63 8 224.963 8C224.963 7.33333 225.63 7.33333 225.63 7.33333H226.296C226.963 6.66667 227.63 7.33333 227.63 8C228.296 8 228.963 7.33333 230.296 7.33333C230.296 7.33333 230.296 7.33333 230.963 7.33333C231.63 7.33333 232.296 7.33333 232.296 7.33333C232.963 7.33333 233.63 7.33333 234.296 7.33333C234.963 8 235.63 7.33333 235.63 7.33333C236.296 7.33333 236.963 8 237.63 8C238.296 8 238.296 8 238.963 8C239.63 8 240.296 8 240.296 8C241.63 7.33333 242.963 8 243.63 7.33333C243.63 7.33333 243.63 7.33333 244.296 7.33333C245.63 7.33333 246.963 8 247.63 7.33333C248.296 7.33333 248.963 7.33333 248.963 7.33333C249.63 7.33333 249.63 7.33333 250.296 7.33333C251.63 7.33333 252.296 7.33333 253.63 8C254.296 8 255.63 8.66667 256.296 8H256.963C257.63 8 258.296 7.33333 258.963 7.33333C259.63 8 260.296 8 260.963 8C261.63 8 261.63 8 262.296 8C262.963 8.66667 262.963 8.66667 263.63 8C264.296 8.66667 264.296 8.66667 264.963 8.66667C265.63 8 265.63 8.66667 266.296 8.66667C266.296 8.66667 266.963 8.66667 266.963 9.33333C267.63 8.66667 267.63 8.66667 268.296 8.66667C268.296 8.66667 268.296 8.66667 267.63 8.66667C267.63 8.66667 267.63 8.66667 266.963 8.66667C268.296 9.33333 270.296 9.33333 271.63 8.66667H272.296C272.963 8.66667 273.63 8.66667 273.63 8.66667C274.963 8 274.963 8 275.63 8C275.63 8 275.63 8 274.963 8C275.63 8 276.296 8 276.963 8C278.296 8 279.63 8 280.963 7.33333C281.63 7.33333 281.63 7.33333 281.63 7.33333C281.63 8 281.63 8.66667 281.63 8.66667C281.63 9.33333 281.63 10.6667 281.63 11.3333C281.63 12.6667 281.63 13.3333 281.63 14.6667C281.63 16.6667 281.63 18.6667 281.63 20C281.63 22 280.963 23.3333 281.63 25.3333C281.63 26.6667 281.63 28 280.963 29.3333C280.963 30 280.296 30.6667 280.963 31.3333V32C280.296 32 280.963 32.6667 280.963 32.6667V33.3333C280.296 34.6667 280.963 35.3333 280.963 36.6667C280.963 38 280.963 40 280.963 41.3333C280.963 43.3333 280.296 45.3333 280.296 47.3333C280.296 48 280.296 48.6667 280.296 49.3333C280.296 50 280.296 50.6667 280.296 50.6667C280.296 51.3333 279.63 51.3333 279.63 52V52.6667C279.63 53.3333 278.963 54.6667 278.963 55.3333V56C279.63 56.6667 279.63 56.6667 279.63 57.3333C279.63 58 279.63 58.6667 280.296 58.6667C280.963 59.3333 280.963 60 280.296 60.6667V61.3333C280.296 62 280.296 63.3333 280.963 64C280.963 65.3333 281.63 66.6667 281.63 68C281.63 69.3333 281.63 70.6667 281.63 72C281.63 73.3333 282.296 74.6667 283.63 74.6667C284.296 74.6667 284.296 75.3333 284.296 75.3333V76C284.296 76.6667 284.963 77.3333 286.296 77.3333C286.963 77.3333 286.963 76.6667 286.963 76.6667C287.63 76.6667 287.63 76 287.63 76C287.63 74.6667 287.63 73.3333 287.63 72.6667C287.63 71.3333 287.63 70.6667 287.63 70C288.296 67.3333 288.296 65.3333 288.296 62.6667C288.296 62 288.296 61.3333 288.296 60C288.296 59.3333 288.296 58.6667 288.296 57.3333C288.296 56 288.296 55.3333 288.296 54C288.296 52 287.63 50 287.63 48C287.63 45.3333 287.63 42 288.296 39.3333C288.296 38 288.963 36.6667 288.963 35.3333C288.963 32.6667 288.963 30 289.63 27.3333C289.63 25.3333 290.296 23.3333 290.296 21.3333C290.296 20 290.296 18.6667 290.296 17.3333C290.296 16 290.296 14.6667 290.296 13.3333C290.296 12.6667 290.296 12 290.296 11.3333C290.296 10.6667 290.296 10 290.296 9.33333C282.963 7.33333 282.963 7.33333 282.963 6.66667ZM2.2963 57.3333C1.62963 57.3333 1.62963 57.3333 2.2963 57.3333ZM3.62963 80C2.96296 79.3333 2.96296 78 3.62963 75.3333C3.62963 76.6667 3.62963 78 3.62963 80ZM38.963 5.33333C36.963 5.33333 34.963 4.66667 32.963 5.33333C30.963 5.33333 28.963 5.33333 26.963 5.33333C25.6296 5.33333 24.963 5.33333 23.6296 5.33333C22.963 5.33333 22.963 5.33333 22.963 5.33333C22.2963 6 21.6296 5.33333 21.6296 5.33333C20.963 5.33333 20.2963 5.33333 18.963 4.66667C18.2963 4.66667 18.2963 4.66667 17.6296 4.66667C16.963 6 16.2963 5.33333 15.6296 5.33333C14.963 4.66667 14.2963 4.66667 13.6296 4.66667C13.6296 4 14.2963 4 14.963 4C15.6296 4 16.2963 4 16.963 4C18.2963 4 18.963 3.33333 18.963 2.66667C19.6296 2.66667 20.963 2.66667 21.6296 2.66667C22.2963 2.66667 22.963 2.66667 23.6296 3.33333H24.2963C24.963 2.66667 25.6296 2.66667 26.2963 2.66667C26.963 2.66667 27.6296 2.66667 28.2963 2.66667C28.2963 2.66667 28.2963 2.66667 28.963 2.66667C28.963 2.66667 28.963 2.66667 28.963 3.33333C29.6296 4 29.6296 3.33333 30.2963 2.66667C30.963 2.66667 30.963 2.66667 30.2963 3.33333C31.6296 3.33333 32.2963 3.33333 32.963 4C32.963 4 32.963 4 32.2963 3.33333V2.66667H32.963C33.6296 2.66667 34.2963 3.33333 35.6296 3.33333C35.6296 3.33333 36.2963 3.33333 36.2963 4C36.2963 4 36.2963 4.66667 36.963 4.66667H37.6296C38.2963 4 38.963 4.66667 38.963 4.66667C38.2963 4.66667 37.6296 4 38.963 4.66667H39.6296C40.963 4.66667 40.963 4.66667 40.963 6C40.2963 5.33333 39.6296 5.33333 38.963 5.33333ZM86.963 5.33333C84.963 5.33333 82.963 5.33333 80.963 5.33333C80.2963 5.33333 80.2963 5.33333 79.6296 5.33333L80.2963 4.66667C82.2963 4.66667 83.6296 4 85.6296 4.66667C86.2963 4.66667 87.6296 4.66667 88.2963 4.66667C88.2963 4.66667 88.2963 4.66667 88.963 4.66667C88.2963 5.33333 87.6296 5.33333 86.963 5.33333ZM90.2963 4C90.963 4 90.963 4 91.6296 4C90.963 4.66667 90.2963 4 90.2963 4ZM92.2963 4C92.2963 3.33333 92.963 3.33333 92.963 4H92.2963ZM130.963 2.66667C130.963 2 130.296 2 130.963 2.66667ZM132.296 4C130.963 4 129.63 4 128.296 4C127.63 4 126.296 4 125.63 4C124.963 4 124.296 3.33333 123.63 3.33333H124.296C124.963 3.33333 124.963 3.33333 125.63 2.66667C126.296 2.66667 126.296 2.66667 126.963 2.66667C126.963 3.33333 126.963 3.33333 126.963 4C128.296 3.33333 130.296 3.33333 132.296 4ZM234.963 6C235.63 6 235.63 6 234.963 6ZM276.963 60.6667C276.296 60 276.296 58.6667 275.63 58C275.63 58 275.63 57.3333 274.963 57.3333C274.296 56.6667 273.63 55.3333 274.296 54.6667C274.296 54 274.963 53.3333 274.963 52C274.963 51.3333 274.963 50.6667 274.963 50C274.963 48.6667 275.63 47.3333 276.296 46C276.296 50.6667 276.296 56 276.963 60.6667Z" fill="#221E22"/>
<path d="M62.4633 152.138C64.5194 152.138 66.0957 152.659 67.1923 153.701C68.3163 154.743 68.8783 156.141 68.8783 157.895C68.8783 159.622 68.5493 161.034 67.8914 162.131C67.2608 163.227 66.3288 164.091 65.0951 164.721C63.8889 165.352 62.4633 165.667 60.8185 165.667H58.8446V165.708L59.0091 172H54.8147L55.0615 166.079L54.8147 152.179L62.4633 152.138ZM64.5605 158.553C64.5605 157.429 64.2727 156.607 63.697 156.086C63.1487 155.538 62.2851 155.25 61.1063 155.222L59.0091 155.346L58.9269 162.46L61.7231 162.624C63.6147 162.049 64.5605 160.692 64.5605 158.553ZM76.5164 157.402C78.3531 157.402 79.7238 157.758 80.6285 158.471C81.5332 159.184 81.9855 160.171 81.9855 161.432C81.9855 161.788 81.917 162.953 81.7799 164.927C81.7799 164.927 81.7388 166.051 81.6565 168.299C81.6565 168.655 81.6977 168.902 81.7799 169.039C81.8622 169.149 82.0266 169.204 82.2734 169.204C82.5201 169.204 82.808 169.163 83.1369 169.08L83.4659 169.327L83.0547 171.465C82.3967 171.877 81.6565 172.137 80.8341 172.247C79.5182 172.137 78.7232 171.383 78.4491 169.985H78.2435C77.2017 171.082 76.1463 171.849 75.0771 172.288C73.5967 172.26 72.4316 171.863 71.5818 171.095C70.7319 170.328 70.307 169.3 70.307 168.011C70.307 166.01 71.3625 164.804 73.4734 164.393L78.2023 163.529V162.254C78.2023 160.911 77.5718 160.239 76.3108 160.239C75.0497 160.239 73.5693 160.829 71.8696 162.007L71.5407 161.843L71.0883 159.129C72.8977 157.978 74.707 157.402 76.5164 157.402ZM74.9126 166.284C74.2821 166.421 73.9668 166.805 73.9668 167.436C73.9668 168.669 74.5014 169.286 75.5706 169.286C76.3656 169.286 77.2154 168.806 78.1201 167.847L78.2023 165.544L74.9126 166.284ZM99.8509 159.622C99.3026 159.76 98.5076 159.91 97.4658 160.075L97.3836 160.198C97.6852 160.801 97.8359 161.487 97.8359 162.254C97.8359 163.789 97.2739 165.023 96.1499 165.955C95.0534 166.86 93.5456 167.312 91.6266 167.312C91.0509 167.312 90.4615 167.257 89.8584 167.148C89.5568 167.449 89.406 167.723 89.406 167.97C89.406 168.326 89.639 168.587 90.1051 168.751C90.5985 168.888 91.421 169.026 92.5724 169.163C93.7238 169.3 94.697 169.478 95.492 169.697C96.287 169.889 96.9724 170.245 97.5481 170.766C98.1512 171.287 98.4528 172.014 98.4528 172.946C98.4528 173.905 98.1512 174.769 97.5481 175.536C96.287 177.181 94.2447 178.004 91.421 178.004C89.5568 178.004 88.1176 177.62 87.1032 176.852C86.0889 176.085 85.5817 175.084 85.5817 173.85C86.2123 172.973 87.0758 172.206 88.1724 171.548V171.383C86.692 170.835 85.9518 169.903 85.9518 168.587C86.5001 167.929 87.1992 167.298 88.049 166.695V166.572C86.5412 165.75 85.7873 164.488 85.7873 162.789C85.7873 161.062 86.3356 159.746 87.4322 158.841C88.5562 157.909 90.0777 157.443 91.9967 157.443C93.1207 157.443 94.1213 157.635 94.9985 158.019C96.4789 157.745 97.9867 157.333 99.5219 156.785L99.8509 157.073V159.622ZM94.2995 162.336C94.2995 160.774 93.4633 159.993 91.7911 159.993C90.1462 159.993 89.3238 160.788 89.3238 162.378C89.3238 164.05 90.1325 164.872 91.7499 164.845C93.4496 164.872 94.2995 164.036 94.2995 162.336ZM95.0397 173.727C95.0397 173.151 94.7381 172.754 94.135 172.535C93.5319 172.343 92.7917 172.192 91.9144 172.082C91.0646 172 90.5574 171.931 90.3929 171.877C89.4334 172.535 88.9537 173.151 88.9537 173.727C88.9537 174.33 89.2004 174.796 89.6939 175.125C90.1873 175.454 90.9001 175.619 91.8322 175.619C92.7917 175.619 93.5593 175.44 94.135 175.084C94.7381 174.755 95.0397 174.303 95.0397 173.727ZM104.254 165.379C104.419 167.984 105.68 169.286 108.037 169.286C109.381 169.286 110.765 168.902 112.191 168.135L112.52 168.381L111.985 171.383C110.56 171.986 109.12 172.302 107.667 172.329C105.392 172.329 103.624 171.671 102.363 170.355C101.102 169.039 100.471 167.23 100.471 164.927C100.471 162.597 101.102 160.774 102.363 159.458C103.651 158.115 105.282 157.443 107.256 157.443C109.23 157.443 110.697 157.95 111.656 158.964C112.643 159.951 113.136 161.322 113.136 163.077C113.136 163.625 113.095 164.187 113.013 164.763L112.396 165.338L104.254 165.379ZM107.379 160.116C106.584 160.116 105.913 160.376 105.365 160.897C104.844 161.418 104.501 162.158 104.336 163.118L109.518 162.953L109.6 162.624C109.573 160.952 108.832 160.116 107.379 160.116ZM129.295 163.077C129.295 161.569 128.651 160.815 127.362 160.815C126.43 160.815 125.443 161.254 124.402 162.131V165.708L124.607 172H120.495L120.701 166.079L120.536 157.936L124.443 157.607V159.705H124.648C125.827 158.663 127.061 157.923 128.349 157.484C129.912 157.484 131.091 157.84 131.886 158.553C132.708 159.266 133.106 160.28 133.078 161.596L132.996 165.708L133.16 172H129.048L129.295 163.077ZM142.533 157.402C144.727 157.402 146.371 158.019 147.468 159.252C148.565 160.486 149.113 162.309 149.113 164.721C149.113 167.134 148.51 169.012 147.304 170.355C146.125 171.671 144.452 172.329 142.287 172.329C140.148 172.329 138.517 171.712 137.393 170.479C136.297 169.217 135.748 167.381 135.748 164.968C135.748 162.556 136.338 160.692 137.517 159.376C138.695 158.06 140.368 157.402 142.533 157.402ZM142.41 160.157C141.423 160.157 140.71 160.5 140.272 161.185C139.833 161.843 139.614 163.008 139.614 164.68C139.614 166.353 139.833 167.586 140.272 168.381C140.71 169.149 141.437 169.533 142.451 169.533C143.466 169.533 144.192 169.217 144.631 168.587C145.069 167.956 145.289 166.805 145.289 165.133C145.289 163.46 145.056 162.213 144.59 161.391C144.124 160.568 143.397 160.157 142.41 160.157ZM157.743 168.957C158.373 168.957 159.045 168.793 159.758 168.464L160.086 168.793L159.675 171.178C158.661 171.726 157.605 172.055 156.509 172.164C153.74 171.89 152.342 170.547 152.315 168.135L152.479 165.544V160.239H150.546L150.382 160.075L150.587 157.813H152.397V155.428L156.139 154.236L156.427 154.482L156.303 157.813H160.004L160.128 158.019L159.963 160.239H156.262L156.098 167.148C156.098 167.806 156.207 168.272 156.427 168.546C156.673 168.82 157.112 168.957 157.743 168.957ZM174.299 150.329C175.149 150.302 176.04 150.384 176.972 150.576L176.726 153.619L176.438 153.824C175.478 153.413 174.628 153.207 173.888 153.207C172.627 153.207 171.983 153.934 171.955 155.387L171.914 157.813H175.41L175.533 158.019L175.369 160.239H171.873L171.75 165.708L171.997 172H167.884L168.131 166.037L168.09 160.239H165.911L165.787 160.075L165.952 157.813H168.049L168.008 156.127C168.008 154.29 168.556 152.865 169.653 151.85C170.749 150.836 172.298 150.329 174.299 150.329ZM182.752 157.402C184.945 157.402 186.59 158.019 187.687 159.252C188.783 160.486 189.332 162.309 189.332 164.721C189.332 167.134 188.729 169.012 187.522 170.355C186.343 171.671 184.671 172.329 182.505 172.329C180.367 172.329 178.736 171.712 177.612 170.479C176.515 169.217 175.967 167.381 175.967 164.968C175.967 162.556 176.557 160.692 177.735 159.376C178.914 158.06 180.586 157.402 182.752 157.402ZM182.629 160.157C181.642 160.157 180.929 160.5 180.491 161.185C180.052 161.843 179.833 163.008 179.833 164.68C179.833 166.353 180.052 167.586 180.491 168.381C180.929 169.149 181.656 169.533 182.67 169.533C183.684 169.533 184.411 169.217 184.849 168.587C185.288 167.956 185.507 166.805 185.507 165.133C185.507 163.46 185.274 162.213 184.808 161.391C184.342 160.568 183.616 160.157 182.629 160.157ZM204.664 169.204C204.911 169.204 205.199 169.163 205.528 169.08L205.816 169.327L205.445 171.465C204.787 171.877 204.034 172.137 203.184 172.247C201.895 172.137 201.087 171.369 200.758 169.944H200.429C199.25 171.068 198.044 171.808 196.81 172.164C195.275 172.164 194.096 171.822 193.273 171.136C192.451 170.424 192.04 169.396 192.04 168.052L192.122 164.434L191.999 157.936L195.946 157.607L195.823 166.695C195.823 168.148 196.44 168.875 197.673 168.875C198.551 168.875 199.442 168.477 200.346 167.682V157.936L204.253 157.607L204.006 168.299C204.006 168.902 204.225 169.204 204.664 169.204ZM216.908 163.077C216.908 161.569 216.264 160.815 214.976 160.815C214.043 160.815 213.057 161.254 212.015 162.131V165.708L212.22 172H208.108L208.314 166.079L208.149 157.936L212.056 157.607V159.705H212.262C213.44 158.663 214.674 157.923 215.962 157.484C217.525 157.484 218.704 157.84 219.499 158.553C220.321 159.266 220.719 160.28 220.691 161.596L220.609 165.708L220.774 172H216.662L216.908 163.077ZM236.315 168.299C236.342 168.655 236.397 168.902 236.479 169.039C236.562 169.149 236.726 169.204 236.973 169.204C237.22 169.204 237.507 169.163 237.836 169.08L238.124 169.327L237.754 171.465C237.096 171.877 236.342 172.137 235.493 172.247C234.177 172.137 233.341 171.424 232.984 170.108H232.737C231.75 171.04 230.722 171.74 229.653 172.206C227.625 172.206 226.062 171.575 224.965 170.314C223.869 169.026 223.321 167.202 223.321 164.845C223.321 162.487 223.951 160.664 225.212 159.376C226.501 158.087 228.269 157.443 230.517 157.443C231.12 157.443 231.778 157.498 232.491 157.607L232.45 150.699L236.521 150.37L236.233 165.708L236.315 168.299ZM227.145 164.187C227.145 167.394 228.118 168.998 230.065 168.998C230.942 168.998 231.778 168.573 232.573 167.723L232.614 166.037L232.532 160.733C231.737 160.376 230.983 160.198 230.27 160.198C228.187 160.198 227.145 161.528 227.145 164.187Z" fill="#221E22"/>
<path d="M74.4972 200L72.4785 193.523H72.3102L70.2635 200H67.2635L63.4785 186.486H66.2822L66.4785 188.112L68.8616 197.056H69.0859L71.357 189.766L70.3757 186.486H73.2915L73.6 188.421L76.0392 197.056H76.2355L78.9551 188.336L79.2915 186.486H81.9551L77.4972 200H74.4972ZM85.2373 195.486C85.3494 197.262 86.2092 198.15 87.8167 198.15C88.7326 198.15 89.6765 197.888 90.6485 197.364L90.8728 197.533L90.5083 199.579C89.5363 199.991 88.555 200.206 87.5644 200.224C86.013 200.224 84.8074 199.776 83.9476 198.879C83.0877 197.981 82.6578 196.748 82.6578 195.178C82.6578 193.589 83.0877 192.346 83.9476 191.449C84.8261 190.533 85.9382 190.075 87.284 190.075C88.6298 190.075 89.6298 190.421 90.284 191.112C90.9569 191.785 91.2934 192.72 91.2934 193.916C91.2934 194.29 91.2653 194.673 91.2092 195.065L90.7887 195.458L85.2373 195.486ZM87.3681 191.897C86.8261 191.897 86.3681 192.075 85.9943 192.43C85.6391 192.785 85.4055 193.29 85.2934 193.944L88.8261 193.832L88.8821 193.607C88.8634 192.467 88.3588 191.897 87.3681 191.897ZM96.8041 178.91C96.6241 179.61 96.3941 180.37 96.1141 181.19C95.8341 182.01 95.5241 182.83 95.1841 183.65C94.8641 184.45 94.5441 185.21 94.2241 185.93H92.2741C92.4141 185.37 92.5541 184.77 92.6941 184.13C92.8541 183.49 92.9941 182.85 93.1141 182.21C93.2541 181.55 93.3741 180.91 93.4741 180.29C93.5941 179.67 93.6941 179.1 93.7741 178.58H96.5941L96.8041 178.91ZM103.803 190.215C103.934 190.234 104.111 190.252 104.336 190.271V192.822L104.055 192.935C103.812 192.841 103.551 192.794 103.27 192.794C102.467 192.794 101.728 193.308 101.055 194.336V195.71L101.224 200H98.4199L98.5601 195.963L98.4479 190.411L101.111 190.187L101.083 192.121H101.252C101.925 190.869 102.775 190.234 103.803 190.215ZM107.62 195.486C107.732 197.262 108.592 198.15 110.2 198.15C111.115 198.15 112.059 197.888 113.031 197.364L113.256 197.533L112.891 199.579C111.919 199.991 110.938 200.206 109.947 200.224C108.396 200.224 107.19 199.776 106.33 198.879C105.471 197.981 105.041 196.748 105.041 195.178C105.041 193.589 105.471 192.346 106.33 191.449C107.209 190.533 108.321 190.075 109.667 190.075C111.013 190.075 112.013 190.421 112.667 191.112C113.34 191.785 113.676 192.72 113.676 193.916C113.676 194.29 113.648 194.673 113.592 195.065L113.171 195.458L107.62 195.486ZM109.751 191.897C109.209 191.897 108.751 192.075 108.377 192.43C108.022 192.785 107.788 193.29 107.676 193.944L111.209 193.832L111.265 193.607C111.246 192.467 110.742 191.897 109.751 191.897ZM121.665 197.196H121.862L123.319 191.869L123.656 190.215H126.348L126.572 191.701L127.805 197.168H127.974L129.404 191.869L129.74 190.215H132.095L129.039 200H126.432L124.918 193.72H124.721L123.011 200H120.235L117.712 190.299L120.235 190.159L120.46 191.701L121.665 197.196ZM137.323 190.047C138.818 190.047 139.94 190.467 140.688 191.308C141.435 192.15 141.809 193.393 141.809 195.037C141.809 196.682 141.398 197.963 140.575 198.879C139.772 199.776 138.631 200.224 137.155 200.224C135.697 200.224 134.585 199.804 133.818 198.963C133.071 198.103 132.697 196.85 132.697 195.206C132.697 193.561 133.099 192.29 133.903 191.393C134.706 190.495 135.846 190.047 137.323 190.047ZM137.239 191.925C136.566 191.925 136.08 192.159 135.781 192.626C135.482 193.075 135.332 193.869 135.332 195.009C135.332 196.15 135.482 196.991 135.781 197.533C136.08 198.056 136.575 198.318 137.267 198.318C137.959 198.318 138.454 198.103 138.753 197.673C139.052 197.243 139.202 196.458 139.202 195.318C139.202 194.178 139.043 193.327 138.725 192.766C138.407 192.206 137.912 191.925 137.239 191.925ZM149.067 190.215C149.198 190.234 149.375 190.252 149.599 190.271V192.822L149.319 192.935C149.076 192.841 148.814 192.794 148.534 192.794C147.73 192.794 146.992 193.308 146.319 194.336V195.71L146.487 200H143.684L143.824 195.963L143.712 190.411L146.375 190.187L146.347 192.121H146.515C147.188 190.869 148.039 190.234 149.067 190.215ZM153.837 200H151.061L151.202 195.935L151.089 185.477L153.865 185.252L153.697 195.71L153.837 200ZM156.529 194.645C157.22 195.729 158.351 197.355 159.921 199.523V199.832C159.454 199.925 158.585 200.056 157.314 200.224L157.033 200.084C155.725 198.234 154.659 196.505 153.837 194.897V194.701L156.276 191.252L156.781 190.215H159.725L156.529 194.645ZM162.806 185.449C163.255 185.449 163.601 185.579 163.844 185.841C164.087 186.084 164.208 186.439 164.208 186.907C164.208 187.355 164.077 187.72 163.816 188C163.554 188.28 163.189 188.421 162.722 188.421C162.274 188.421 161.918 188.299 161.657 188.056C161.414 187.794 161.292 187.439 161.292 186.991C161.292 186.542 161.432 186.178 161.713 185.897C161.993 185.598 162.358 185.449 162.806 185.449ZM164.124 200H161.32L161.46 195.963L161.348 190.411L164.152 190.187L163.956 195.71L164.124 200ZM172.623 193.916C172.623 192.888 172.184 192.374 171.305 192.374C170.67 192.374 169.997 192.673 169.287 193.271V195.71L169.427 200H166.623L166.763 195.963L166.651 190.411L169.315 190.187V191.617H169.455C170.259 190.907 171.1 190.402 171.978 190.103C173.044 190.103 173.847 190.346 174.389 190.832C174.95 191.318 175.221 192.009 175.202 192.907L175.146 195.71L175.259 200H172.455L172.623 193.916ZM187.088 191.561C186.715 191.654 186.173 191.757 185.462 191.869L185.406 191.953C185.612 192.364 185.715 192.832 185.715 193.355C185.715 194.402 185.331 195.243 184.565 195.879C183.817 196.495 182.789 196.804 181.481 196.804C181.088 196.804 180.687 196.766 180.275 196.692C180.07 196.897 179.967 197.084 179.967 197.252C179.967 197.495 180.126 197.673 180.444 197.785C180.78 197.879 181.341 197.972 182.126 198.065C182.911 198.159 183.574 198.28 184.117 198.43C184.659 198.561 185.126 198.804 185.518 199.159C185.93 199.514 186.135 200.009 186.135 200.645C186.135 201.299 185.93 201.888 185.518 202.411C184.659 203.533 183.266 204.093 181.341 204.093C180.07 204.093 179.088 203.832 178.397 203.308C177.705 202.785 177.36 202.103 177.36 201.262C177.789 200.664 178.378 200.14 179.126 199.692V199.579C178.117 199.206 177.612 198.57 177.612 197.673C177.986 197.224 178.462 196.794 179.042 196.383V196.299C178.014 195.738 177.5 194.879 177.5 193.72C177.5 192.542 177.874 191.645 178.621 191.028C179.388 190.393 180.425 190.075 181.733 190.075C182.5 190.075 183.182 190.206 183.78 190.467C184.789 190.28 185.817 190 186.864 189.626L187.088 189.822V191.561ZM183.303 193.411C183.303 192.346 182.733 191.813 181.593 191.813C180.472 191.813 179.911 192.355 179.911 193.439C179.911 194.579 180.462 195.14 181.565 195.121C182.724 195.14 183.303 194.57 183.303 193.411ZM183.808 201.178C183.808 200.785 183.603 200.514 183.191 200.364C182.78 200.234 182.275 200.131 181.677 200.056C181.098 200 180.752 199.953 180.64 199.916C179.986 200.364 179.659 200.785 179.659 201.178C179.659 201.589 179.827 201.907 180.163 202.131C180.5 202.355 180.986 202.467 181.621 202.467C182.275 202.467 182.799 202.346 183.191 202.103C183.603 201.879 183.808 201.57 183.808 201.178ZM195.272 190.047C196.768 190.047 197.889 190.467 198.637 191.308C199.384 192.15 199.758 193.393 199.758 195.037C199.758 196.682 199.347 197.963 198.525 198.879C197.721 199.776 196.581 200.224 195.104 200.224C193.646 200.224 192.534 199.804 191.768 198.963C191.02 198.103 190.646 196.85 190.646 195.206C190.646 193.561 191.048 192.29 191.852 191.393C192.655 190.495 193.796 190.047 195.272 190.047ZM195.188 191.925C194.515 191.925 194.029 192.159 193.73 192.626C193.431 193.075 193.282 193.869 193.282 195.009C193.282 196.15 193.431 196.991 193.73 197.533C194.029 198.056 194.525 198.318 195.216 198.318C195.908 198.318 196.403 198.103 196.702 197.673C197.001 197.243 197.151 196.458 197.151 195.318C197.151 194.178 196.992 193.327 196.674 192.766C196.356 192.206 195.861 191.925 195.188 191.925ZM207.633 193.916C207.633 192.888 207.194 192.374 206.315 192.374C205.68 192.374 205.007 192.673 204.296 193.271V195.71L204.437 200H201.633L201.773 195.963L201.661 190.411L204.324 190.187V191.617H204.465C205.268 190.907 206.109 190.402 206.988 190.103C208.053 190.103 208.857 190.346 209.399 190.832C209.96 191.318 210.231 192.009 210.212 192.907L210.156 195.71L210.268 200H207.465L207.633 193.916ZM217.298 185.449C217.747 185.449 218.093 185.579 218.336 185.841C218.579 186.084 218.7 186.439 218.7 186.907C218.7 187.355 218.569 187.72 218.308 188C218.046 188.28 217.682 188.421 217.214 188.421C216.766 188.421 216.411 188.299 216.149 188.056C215.906 187.794 215.784 187.439 215.784 186.991C215.784 186.542 215.925 186.178 216.205 185.897C216.485 185.598 216.85 185.449 217.298 185.449ZM218.616 200H215.812L215.953 195.963L215.841 190.411L218.644 190.187L218.448 195.71L218.616 200ZM225.125 197.925C225.554 197.925 226.012 197.813 226.498 197.589L226.723 197.813L226.442 199.439C225.751 199.813 225.031 200.037 224.283 200.112C222.396 199.925 221.442 199.009 221.424 197.364L221.536 195.598V191.981H220.218L220.106 191.869L220.246 190.327H221.48V188.701L224.031 187.888L224.227 188.056L224.143 190.327H226.667L226.751 190.467L226.639 191.981H224.115L224.003 196.692C224.003 197.14 224.078 197.458 224.227 197.645C224.396 197.832 224.695 197.925 225.125 197.925Z" fill="#221E22"/>
<line x1="34" y1="133.5" x2="256" y2="133.5" stroke="black"/>
</svg>
