<svg width="320" height="320" viewBox="0 0 320 320" fill="none" xmlns="http://www.w3.org/2000/svg">
<g clip-path="url(#clip0_19_346)">
<path d="M254 138C254 138 252.667 144.667 252.667 146C252.667 147.333 252 159.333 250.667 162C249.333 164.667 248.667 168.667 240 170.667C240 170.667 238.667 171.333 237.333 174C236 176.667 234 184.667 213.333 190C192.667 194.667 188.667 202.667 179.333 196C179.333 196 176 193.333 174.667 190.667C173.333 188 172.667 194.667 172 198.667C171.333 202.667 170.667 207.333 162.667 220.667C155.333 233.333 152 242.667 152 242.667C152 242.667 148 258.667 131.333 242.667C114.667 226.667 108.667 194.667 98.6667 182C98.6667 182 107.333 190 120 193.333C132.667 196.667 140 192.667 140 192.667C140 192.667 148 187.333 151.333 180.667C154.667 174 160 175.333 164.667 174.667C169.333 174 178.667 172.667 181.333 165.333C184 158 177.333 140 192.667 143.333C208 146.667 210.667 142 214 136C217.333 130 230 135.333 230 135.333C230 135.333 245.333 142.667 254 138Z" fill="#EDA82C"/>
<path d="M320 0H0V320H320V0Z" fill="white"/>
<path d="M68.6667 151.333C80 142 95.3333 139.333 108 132C122 124 134.667 114.667 148 105.333C172.667 88 202 72 233.333 80.6667C240.667 82.6667 247.333 86 253.333 90.6667C259.333 95.3334 262.667 102 267.333 108C267.333 108 272 114 272 146C272 178 276.667 189.333 279.333 200C282 210.667 286.667 226.667 288.667 248C290 268.667 296 302 296 302H64.6667H24C24 302 38.6667 291.333 40.6667 284.667C43.3333 278 46.6667 271.333 32.6667 244.667C32.6667 244.667 29.3333 235.333 40.6667 221.333C52 207.333 37.3333 208.667 39.3333 192.667C39.3333 192.667 40 189.333 44.6667 182C45.3333 181.333 52 165.333 68.6667 151.333Z" fill="#F2B51B"/>
<path d="M172 301.333H242.667C242.667 301.333 236 294 230 282C224.667 270 220.667 271.333 220.667 271.333C220.667 271.333 223.333 266 234 262L238.667 259.333C238.667 259.333 230.667 216.667 228 212.667C225.333 208.667 222.667 206.667 220.667 198.667C218.667 190.667 216.667 189.333 216.667 189.333C216.667 189.333 231.333 186.667 236.667 174.667C242.667 162.667 243.333 178 250 161.333C250 161.333 251.333 160 251.333 152.667C250.667 145.333 254 141.333 254 137.333C254 137.333 241.333 140 232 132.667C222.667 125.333 213.333 134.667 211.333 139.333C209.333 144 199.333 141.333 192.667 140C186 138.667 182.667 144.667 184 156.667C185.333 168 171.333 173.333 161.333 172C151.333 171.333 155.333 182.667 137.333 190.667C119.333 199.333 94 172.667 80.6667 168C67.3333 163.333 50.6667 183.333 49.3333 188.667C48 194 46.6667 195.333 50.6667 227.333C50.6667 227.333 52 236 48.6667 241.333C45.3333 246 49.3333 250.667 48.6667 252.667C48 254.667 54 260.667 54 264.667C53.3333 268.667 56.6667 268.667 57.3333 272.667C57.3333 272.667 57.3333 273.333 58.6667 276.667C60 280 62 289.333 66 298L172 301.333Z" fill="white"/>
<path d="M220 272C223.333 264.667 238 260 238 260C238 260 233.333 231.333 231.333 222.667C229.333 213.333 230 218 226 212C221.333 206 222 202 221.333 200C220.667 198 216.667 190.667 216.667 190.667H212.667C204.667 191.333 196.667 196.667 188.667 198.667C180.667 200.667 176.667 192 176.667 192C174 194.667 172.667 202.667 170.667 209.333C169.333 215.333 164.667 221.333 164.667 221.333L150.667 248.667C150.667 248.667 127.333 253.333 119.333 226.667C111.333 200 101.333 183.333 101.333 183.333L85.3333 172C90 178 94 184 100.667 205.333C103.333 214.667 104 229.333 106 244.667C106 244.667 107.333 249.333 115.333 254.667C123.333 260 131.333 261.333 131.333 261.333L164.667 270L198 276C198 276 216 278.667 219.333 276.667L220 272Z" fill="#2188BC"/>
<path d="M301.333 141.333C301.333 139.333 301.333 138 300.667 136C300 133.333 300.667 130 300.667 127.333C300.667 126 300.667 125.333 300.667 124C300.667 123.333 300 123.333 299.333 122.667C298.667 123.333 298.667 123.333 298 124C296.667 124.667 296.667 125.333 296 126.667C296 127.333 296 128 295.333 128C294.667 129.333 294.667 130 294.667 131.333C294.667 132.667 294.667 134.667 294.667 136C294.667 138 294.667 139.333 294 141.333C294 142 294 142.667 294 142.667C294 143.333 294 143.333 294 144C294 146 294 147.333 294 149.333C294 150.667 294 152.667 294 154C294 154.667 294 154.667 294 155.333V156C293.333 156.667 293.333 157.333 293.333 158C293.333 160 293.333 161.333 293.333 163.333C293.333 165.333 293.333 166.667 293.333 168.667C293.333 170 293.333 170.667 293.333 172C293.333 174 293.333 176 293.333 178C293.333 180.667 293.333 183.333 293.333 186C293.333 188 293.333 189.333 293.333 191.333C293.333 192 293.333 192 293.333 192.667C293.333 194.667 293.333 196.667 293.333 198C293.333 200 293.333 202 292.667 204C292.667 205.333 292.667 207.333 292.667 208.667C292.667 209.333 292.667 209.333 292.667 210H293.333C293.333 210.667 293.333 210.667 292.667 211.333V210.667C292.667 211.333 292.667 212 292.667 212.667C293.333 212.667 293.333 212.667 293.333 213.333C293.333 212.667 292.667 212.667 292.667 212.667C292.667 214.667 292.667 217.333 292.667 219.333C292.667 219.333 293.333 219.333 293.333 218.667V219.333C293.333 220 292.667 220 293.333 220.667C293.333 221.333 293.333 222 292.667 222V222.667C292.667 224 292.667 225.333 292.667 226.667C292.667 228.667 292.667 230.667 292.667 232.667C292.667 234 292.667 235.333 292.667 236.667C292.667 238.667 292.667 240 292 242C292 242.667 292 243.333 292 244C292 246 292 247.333 292 249.333C292 250.667 292 252 291.333 254C291.333 255.333 291.333 256 291.333 257.333C291.333 258.667 291.333 260 291.333 260.667C291.333 262 291.333 264 291.333 265.333C291.333 267.333 291.333 269.333 291.333 272C291.333 273.333 291.333 274 291.333 275.333C291.333 277.333 291.333 280 292 282C292 283.333 292 285.333 292 286.667C292 288.667 292 290 292 291.333C292 293.333 292 294.667 292 296.667C292 298 292 299.333 292 300.667C291.333 301.333 291.333 301.333 290.667 301.333C290 302 290 302 289.333 301.333C288.667 300.667 288.667 301.333 288 301.333C287.333 302 287.333 302 286.667 301.333C288 300 287.333 300 286.667 300C286 300.667 286 300.667 285.333 300.667C284.667 300.667 284 300.667 283.333 300.667C280.667 300.667 278 300.667 275.333 300.667C274.667 300.667 274.667 300.667 274 300.667H273.333C273.333 300.667 273.333 300.667 274 300.667C273.333 300.667 272.667 300.667 272 300.667C270.667 300.667 269.333 300.667 268 300.667C266.667 300.667 265.333 300.667 264 300.667C262.667 300.667 261.333 300 260 300.667C258.667 300.667 258 300.667 257.333 300C254.667 300 252.667 300 250 300C248.667 300 248 300 247.333 300C246.667 300.667 246 300 245.333 300C244.667 300 244.667 300 244 300H243.333C243.333 300.667 242.667 300.667 242.667 300.667C242 300.667 241.333 300.667 240.667 300.667H240V300C240.667 300.667 240 300 239.333 300C238.667 300.667 238.667 300.667 238 300.667C238 300 237.333 300 236.667 300V299.333C236 299.333 235.333 299.333 235.333 299.333C234.667 299.333 234 299.333 233.333 299.333C232.667 299.333 231.333 299.333 230.667 298.667C228.667 298 227.333 298 226 298C224 298 222.667 298 220.667 298C218 298 215.333 298 212.667 298.667C212.667 298.667 212.667 298.667 212 298.667C211.333 298.667 211.333 298.667 210.667 298.667H210C209.333 298 208.667 298.667 208 298.667C206.667 298.667 206 298.667 205.333 299.333C205.333 298.667 204.667 299.333 204 299.333C203.333 299.333 202.667 299.333 202 299.333C201.333 299.333 200.667 299.333 200 299.333C199.333 300 198.667 299.333 198.667 299.333C198 299.333 197.333 299.333 196.667 299.333C195.333 299.333 194 299.333 193.333 299.333C192 299.333 190.667 299.333 189.333 299.333H188.667C188 298.667 187.333 299.333 187.333 299.333C186.667 300 186.667 299.333 186 299.333H185.333C184.667 299.333 184.667 299.333 184 299.333C182.667 299.333 181.333 299.333 180.667 299.333C179.333 299.333 178.667 299.333 178 299.333C176.667 299.333 176 300 175.333 299.333H174.667C174 299.333 173.333 300 173.333 299.333C173.333 300 173.333 299.333 172.667 299.333H172C171.333 299.333 170 299.333 169.333 299.333C166.667 299.333 164 299.333 160.667 299.333C159.333 299.333 158 299.333 156.667 299.333C155.333 299.333 153.333 299.333 152 299.333C150.667 299.333 149.333 299.333 148 299.333C147.333 299.333 146 299.333 145.333 299.333C142.667 299.333 139.333 299.333 136.667 299.333C135.333 299.333 133.333 299.333 132 299.333C130.667 299.333 129.333 299.333 128 299.333C126 299.333 124.667 299.333 122.667 299.333C120.667 299.333 118.667 299.333 116.667 299.333C115.333 299.333 113.333 299.333 112 299.333C110 299.333 108 299.333 106.667 299.333C103.333 299.333 100.667 298.667 97.3333 298.667C96.6667 298.667 96 298.667 95.3333 298.667C92.6667 298 90.6667 298 88 298C84.6667 298 82 298 78.6667 298C77.3333 298 76 298 74.6667 298C73.3333 298 72 298 70.6667 297.333C69.3333 297.333 68.6667 297.333 67.3333 297.333C66.6667 297.333 66.6667 297.333 66 297.333C65.3333 298 64.6667 298 64 297.333C64 297.333 64.6667 297.333 65.3333 296.667C63.3333 296.667 62 296.667 60.6667 296.667C60.6667 297.333 60.6667 297.333 60 297.333C60 296.667 60 296 60 296C59.3333 296 58.6667 296 58 296C58 296 58 296.667 57.3333 296.667C57.3333 296.667 57.3333 296.667 56.6667 296L56 296.667C55.3333 296 55.3333 295.333 54.6667 296C54 295.333 53.3333 296 52.6667 296C50.6667 296 49.3333 296 47.3333 296C46.6667 296 45.3333 296 44.6667 296C43.3333 296 42 296 41.3333 296C40.6667 296 40.6667 296 40.6667 296C39.3333 295.333 37.3333 295.333 36 294.667C34.6667 294 32.6667 294 31.3333 294C30 294 28.6667 293.333 28 293.333C27.3333 293.333 27.3333 292.667 27.3333 292.667C28 292 28 290.667 28 290C28 288.667 28 288 28.6667 286.667C28.6667 286 28.6667 286 28.6667 285.333V284.667C28.6667 284 28.6667 283.333 28 283.333C26.6667 282.667 26.6667 282.667 26.6667 282C26.6667 280.667 27.3333 278.667 26.6667 277.333C26.6667 276.667 26 275.333 26.6667 274.667C26.6667 273.333 26.6667 272.667 26.6667 271.333C26.6667 270 26.6667 268.667 26.6667 267.333C26.6667 266.667 26.6667 266 26.6667 264.667C26.6667 264.667 26.6667 264 27.3333 264C28 263.333 28 262.667 28 262C27.3333 261.333 26.6667 260.667 26.6667 260V259.333C26.6667 258.667 26 258.667 26.6667 258C26.6667 256.667 26.6667 256 26.6667 255.333V254.667C26.6667 254 26.6667 253.333 26.6667 253.333C26.6667 250.667 26 248 26.6667 245.333C26.6667 244.667 26.6667 244 26.6667 243.333C26.6667 240.667 26.6667 238 26.6667 235.333C26.6667 234 26.6667 232.667 26.6667 232C26.6667 230 26.6667 228 26.6667 226.667C26.6667 224 26.6667 221.333 27.3333 218.667C27.3333 216 27.3333 213.333 27.3333 210.667C27.3333 210 27.3333 210 27.3333 209.333C27.3333 208.667 27.3333 207.333 26.6667 207.333C26.6667 205.333 26.6667 202.667 26 200.667C25.3333 200.667 24.6667 200 24.6667 200C24.6667 199.333 24 199.333 24 198.667C24 198 23.3333 198 23.3333 198.667C22.6667 199.333 22 200.667 21.3333 201.333C20.6667 202 20 203.333 20 204.667C20 206 20 207.333 20 209.333C20 210 20 210.667 20 211.333C20 214 20 216 20 218.667C20 220.667 20 223.333 20 225.333C20 227.333 20 229.333 20 232C20 234.667 20 237.333 20 240C20 240.667 20 240.667 20 240.667C20 241.333 20 241.333 20 241.333C20 242 20 242 20 242.667C20 244 20 244.667 20 246C20 246.667 20 246.667 20 246.667C20 249.333 20.6667 251.333 20.6667 253.333C20.6667 254 20.6667 255.333 20.6667 256C20.6667 258.667 20.6667 261.333 20.6667 264C20.6667 265.333 20.6667 266.667 20.6667 268C20.6667 268.667 20.6667 269.333 20.6667 269.333C20.6667 271.333 20 273.333 20 276C20 276.667 20 276.667 20 277.333C20 279.333 20 282 20.6667 284C20.6667 285.333 20.6667 286.667 20.6667 288.667C20.6667 290 21.3333 290.667 20 292C20 292.667 20 293.333 20 293.333C20 294 20 294.667 20 295.333C20 295.333 20 295.333 20.6667 294.667C20.6667 295.333 20.6667 295.333 20.6667 296C20.6667 295.333 20 295.333 20 294.667C20 296 20 296.667 20 298C20 299.333 20 300 20.6667 301.333H21.3333C22 302 22.6667 302 23.3333 302C24 302 24 302 24.6667 302C25.3333 302 26.6667 302 27.3333 302C28 302 28.6667 302 28.6667 302C30 302 32 302.667 33.3333 302C34 302 34.6667 301.333 36 301.333C36.6667 301.333 37.3333 301.333 38 301.333C39.3333 301.333 41.3333 302 42.6667 302C43.3333 302 44.6667 302.667 45.3333 302C45.3333 302 45.3333 302 46 302C46.6667 302 46 302 46.6667 302C47.3333 302 48 302 49.3333 302C51.3333 302 52.6667 302 54.6667 302C56 302 57.3333 302 58.6667 302C60 302 62 302 63.3333 302C66 302 68 302 70 302C71.3333 302 72 302 73.3333 302C74.6667 302 75.3333 302 76.6667 302C78 302 79.3333 302 80 302C80.6667 302 81.3333 302 81.3333 301.333C82 302 82 302 83.3333 302C85.3333 302 87.3333 302 89.3333 302C91.3333 302 92.6667 302 94.6667 302C96 302 98 302 99.3333 302C100 302 100.667 302 101.333 302C102 302 102.667 302 102.667 302C104 302 104.667 302 105.333 302C108 302 110.667 302 113.333 302C116 302 118.667 302 121.333 302C122 302 122.667 302 123.333 302C125.333 302 127.333 302.667 129.333 302.667C132 302.667 134.667 303.333 137.333 303.333C140 303.333 142 303.333 144.667 303.333C147.333 303.333 149.333 303.333 152 303.333C155.333 303.333 158 303.333 161.333 303.333C164 303.333 166 303.333 168.667 304C170 304 171.333 304 172.667 304C173.333 304 174.667 304 175.333 304C176.667 304 178 304 178.667 304C179.333 304 180.667 304 182 304C182.667 304 182.667 304 183.333 304C184 304 184.667 304 185.333 304C187.333 304 188.667 304 190.667 304H191.333C192 303.333 192 303.333 192.667 303.333H193.333C194 303.333 194.667 303.333 195.333 303.333C196 303.333 196.667 304 198 303.333H198.667C198.667 303.333 198.667 304 198 304H197.333C198 304 199.333 304 200 304V303.333C200.667 303.333 200.667 302.667 201.333 302.667C202 302.667 202.667 302.667 203.333 302.667C204 303.333 204 304 202.667 304C204 304 205.333 304.667 206.667 304.667C208 304.667 208.667 305.333 209.333 305.333C210 305.333 211.333 305.333 212 305.333C213.333 305.333 214.667 305.333 216.667 305.333C218 305.333 220 305.333 221.333 305.333C224 305.333 226.667 304.667 229.333 304.667C231.333 304.667 233.333 304.667 235.333 304.667C237.333 304.667 238.667 304.667 240.667 304.667C242.667 304.667 244.667 304.667 246 304.667C247.333 304.667 248 304.667 249.333 305.333C251.333 305.333 253.333 305.333 254.667 305.333C256.667 305.333 258.667 305.333 260.667 306C263.333 306 266 306 268.667 306C270.667 306 273.333 306 275.333 306C277.333 306 278.667 306 280.667 306C280.667 306 280.667 306 281.333 306C282.667 305.333 283.333 306 284.667 306C286 306 287.333 306 288 306H288.667C288.667 306 288.667 306 289.333 306C290.667 306 291.333 306.667 292 306C292.667 306 292.667 306 293.333 306C294 306 294 306 294 306C294.667 306 294.667 306 295.333 306C296 305.333 296.667 305.333 296.667 306C298 306.667 298.667 306.667 299.333 305.333C299.333 305.333 299.333 305.333 299.333 304.667C300 304.667 300 304 299.333 304C299.333 303.333 299.333 303.333 299.333 302.667V302C299.333 301.333 299.333 300.667 299.333 300V299.333C298.667 298.667 298.667 298.667 298.667 298C299.333 294 299.333 290.667 299.333 286.667C299.333 286 299.333 284.667 299.333 284C299.333 282 300 280 300 278C300 277.333 300 276.667 300 276C300 275.333 300 274.667 300 274C300 273.333 300 272.667 300 272C300 271.333 300 270.667 300 270C300 269.333 300 268.667 300 267.333C300 266.667 300 266 300 265.333C300 262.667 300 260 300 257.333C300 256.667 300 256 300 255.333C300 253.333 300 252 300 250.667C300 248.667 300 246.667 300 244.667C300 242.667 300 241.333 300 239.333C300 238.667 300 238 300 237.333C300 236.667 300 235.333 300 234.667V234C300.667 234 300.667 233.333 300.667 233.333C300.667 232.667 300.667 231.333 300.667 230.667C300.667 229.333 300.667 228 300.667 226.667C300.667 225.333 300.667 224 300.667 222.667C300.667 222 300.667 222 300.667 221.333C300.667 220 300.667 219.333 300.667 218C300.667 216.667 300.667 215.333 300.667 214C300.667 213.333 300.667 212.667 300.667 212C300.667 211.333 300.667 210 300.667 209.333C300.667 208 300.667 206 300.667 204.667C300.667 203.333 300.667 202 300.667 200.667C300.667 200 300.667 199.333 300.667 198.667C300.667 197.333 300.667 196 300.667 195.333C300.667 194 300.667 193.333 300.667 192C300.667 190.667 300.667 190 300.667 189.333C300.667 188 300.667 187.333 300.667 186C300.667 184.667 300.667 183.333 300.667 182.667C300.667 181.333 300 180.667 300.667 180C300.667 179.333 300.667 178.667 300.667 177.333C300 176 300.667 174.667 300.667 173.333C300.667 172 300.667 171.333 300.667 170C300.667 169.333 300.667 168.667 300.667 168C300.667 166.667 301.333 165.333 301.333 164C301.333 162.667 301.333 162 301.333 161.333C301.333 160 301.333 158.667 302 157.333C302 155.333 302 153.333 302 151.333C302 149.333 302 147.333 302 146C302 143.333 301.333 142 301.333 141.333ZM24 246.667C23.3333 249.333 24 251.333 24 253.333C24 254 24 254 24 254.667C24 255.333 24 255.333 23.3333 256C23.3333 255.333 23.3333 254.667 23.3333 254.667C23.3333 254 23.3333 252.667 23.3333 252V251.333C23.3333 250.667 23.3333 250 23.3333 249.333C23.3333 249.333 23.3333 248.667 23.3333 248C23.3333 246 23.3333 244 23.3333 242C23.3333 241.333 23.3333 240 24 239.333C24 238.667 24 238.667 24.6667 238C25.3333 238.667 24.6667 239.333 25.3333 240C25.3333 240.667 25.3333 242 25.3333 242.667C25.3333 243.333 25.3333 244 25.3333 244.667C24 245.333 24 246 24 246.667ZM47.3333 298.667C45.3333 298.667 42.6667 298.667 40.6667 298.667C38.6667 298.667 37.3333 298.667 35.3333 298.667C34 298.667 32.6667 298.667 30.6667 299.333C30 299.333 29.3333 299.333 28.6667 299.333V298.667C30 298.667 31.3333 298.667 32.6667 298.667C33.3333 298.667 34 298.667 34.6667 298.667C35.3333 298.667 35.3333 298.667 36 298.667C37.3333 298.667 38.6667 298.667 40.6667 298.667C42 298.667 44 298.667 45.3333 298.667C45.3333 298 46 298 47.3333 298.667C47.3333 298 48 298 48.6667 298C49.3333 298 50 298 50.6667 298C52 298 52.6667 298 54 298C51.3333 298.667 49.3333 298.667 47.3333 298.667ZM296.667 285.333C296 284.667 296 284 296 284C296 283.333 296 282 295.333 281.333C294.667 280 294.667 278.667 294.667 277.333C294.667 274 294.667 271.333 294.667 268C294.667 266.667 294.667 264.667 294.667 263.333C294.667 261.333 294.667 259.333 294.667 258C294.667 256.667 294.667 254 294.667 252C294.667 250.667 294.667 250 294.667 248.667C294.667 248 294.667 248 294.667 247.333C295.333 248 295.333 248 295.333 248.667C295.333 250 295.333 252 295.333 253.333C295.333 255.333 295.333 256.667 295.333 258.667C295.333 260.667 295.333 262.667 295.333 265.333C295.333 268.667 295.333 271.333 295.333 274.667C295.333 276.667 295.333 279.333 295.333 281.333C295.333 282.667 295.333 283.333 295.333 284.667C296.667 284 296.667 284.667 296.667 285.333ZM298.667 259.333C298 256.667 298 254.667 298 252V252.667C298.667 254.667 298.667 256.667 298.667 259.333ZM298.667 250V250.667C298.667 250 298.667 249.333 298.667 248.667C298.667 247.333 298.667 246 298.667 244.667C298.667 244 298.667 242.667 298.667 242C298.667 241.333 298.667 241.333 298.667 240.667C298.667 240 298.667 239.333 298.667 238.667C298.667 238 298.667 238 298.667 237.333C298.667 235.333 298.667 234 298.667 232C298.667 230.667 298.667 228.667 298.667 227.333C298.667 226.667 298.667 226 298.667 225.333C298.667 224.667 298.667 224 298.667 224C298.667 223.333 298.667 222.667 298.667 222.667C298 222 298 222 298 221.333C298 219.333 298 217.333 298.667 215.333C298.667 214.667 298.667 214 298.667 213.333C298.667 212.667 298.667 212 298.667 211.333C298.667 210.667 298.667 210 298.667 209.333V208.667C298.667 208 298.667 206.667 298.667 206C298.667 205.333 298.667 204 298.667 203.333C298.667 202.667 298.667 202 298.667 201.333C298.667 200.667 298.667 200 298.667 199.333C298.667 198.667 298.667 198.667 298.667 198.667C299.333 198 298.667 197.333 298.667 197.333C298.667 196.667 298 196 298 195.333V194.667C298.667 194 298.667 193.333 298.667 192.667C298.667 192 298.667 190.667 298.667 190C298.667 189.333 298 188.667 298 188.667V188C298 185.333 298 182.667 298 180.667C298 180 298 178.667 298.667 178C299.333 178.667 299.333 178.667 299.333 179.333C299.333 180.667 299.333 181.333 299.333 182V182.667V183.333V184C299.333 184.667 300 184.667 299.333 184.667C299.333 185.333 299.333 186 299.333 186.667C299.333 187.333 299.333 188.667 299.333 189.333C299.333 190.667 299.333 191.333 299.333 192C299.333 194 299.333 196 299.333 198C299.333 200 299.333 202 299.333 204.667C299.333 208 299.333 211.333 299.333 214.667C299.333 216 299.333 217.333 299.333 219.333C299.333 220.667 299.333 221.333 299.333 222.667C299.333 224 299.333 225.333 299.333 226.667C299.333 227.333 299.333 228.667 299.333 229.333C299.333 231.333 299.333 234 299.333 236C299.333 238 299.333 240.667 299.333 242.667C298.667 245.333 298.667 247.333 298.667 250Z" fill="#221E22"/>
<path d="M270.667 272V271.333C270.667 269.333 271.333 267.333 271.333 265.333C271.333 264.667 271.333 263.333 271.333 262.667C271.333 261.333 270.667 260.667 270.667 259.333C270.667 258 270 256 270 254.667C270 254 270 254 270 253.333C270 252 270 251.333 270 250C270 248.667 270 247.333 270 246C270 244.667 270 244 270 242.667C270 241.333 270 240.667 270 240C270 238.667 270 237.333 269.333 236.667C269.333 237.333 269.333 238 269.333 238C269.333 238.667 268.667 239.333 269.333 240.667C269.333 241.333 269.333 242 269.333 242.667C269.333 243.333 269.333 244 269.333 244.667C269.333 247.333 268.667 249.333 268.667 252C268.667 252.667 268 253.333 268 253.333C268 255.333 268 257.333 268.667 259.333C268.667 260.667 269.333 261.333 269.333 262.667C269.333 265.333 269.333 267.333 268.667 270C268 271.333 268 272.667 267.333 274C266.667 275.333 266 276.667 264.667 278C264 278.667 264 279.333 263.333 280C262.667 281.333 261.333 282 260 282.667C259.333 283.333 258.667 283.333 257.333 283.333C256 284 254.667 284 253.333 284C252 284 250.667 284 249.333 283.333C248.667 283.333 247.333 283.333 246.667 282.667C245.333 282 244 282 243.333 280.667C242 280 240.667 279.333 240 278C238 276.667 237.333 275.333 236 274C235.333 273.333 234.667 272.667 234 272.667C233.333 272 232 271.333 230.667 270.667C228.667 269.333 226.667 269.333 224.667 269.333C224 269.333 222.667 269.333 222 270C222 269.333 222 269.333 222 269.333C222.667 268.667 223.333 268 224 267.333C225.333 266.667 227.333 265.333 228.667 264.667C230.667 264 232.667 263.333 234.667 262.667C235.333 262.667 236.667 262 237.333 262C238 261.333 238.667 261.333 239.333 260.667C240 260 240.667 260 241.333 259.333C242.667 258 243.333 257.333 244.667 256C245.333 255.333 245.333 254.667 246 254C246.667 252.667 247.333 251.333 248 250C248.667 249.333 248.667 248 248.667 247.333C248.667 245.333 249.333 244 249.333 242C249.333 240.667 249.333 240 249.333 238.667C249.333 237.333 248.667 236.667 248.667 236C248.667 234.667 248 232.667 248 231.333C248 229.333 247.333 228 247.333 226C247.333 224 246.667 222.667 246.667 220.667C246.667 218.667 246.667 217.333 247.333 215.333C248 214 248 212.667 248.667 211.333C249.333 210 250 208 250.667 206.667C252 203.333 254 200 255.333 196.667C256.667 193.333 258 190 258.667 186C259.333 184 260 182 260 179.333C260 177.333 260 176 260 174C260 172 259.333 170 258.667 168C258 166.667 257.333 165.333 257.333 164.667C256.667 163.333 256 162 255.333 160.667C254.667 159.333 254.667 158 254 156.667C254 155.333 253.333 154.667 253.333 153.333C253.333 152.667 253.333 152 253.333 151.333C253.333 150 253.333 148 253.333 146.667C253.333 146 253.333 146 254 145.333C254 145.333 254 145.333 254 144.667C253.333 142.667 254 141.333 254 140C254 139.333 254.667 138.667 254.667 137.333C254.667 136.667 254.667 136 254 135.333C254 135.333 254 135.333 254 136C254 137.333 253.333 138.667 252.667 139.333V140C252.667 140.667 252.667 140.667 252.667 141.333C252.667 142 252.667 142 252 142.667C252 143.333 251.333 144 251.333 144.667C251.333 145.333 251.333 146.667 251.333 147.333C250.667 149.333 251.333 151.333 251.333 152.667C251.333 153.333 251.333 153.333 251.333 154C251.333 156 250 157.333 249.333 158.667C248.667 160 248 161.333 246.667 162.667C246 163.333 245.333 164 244.667 164.667C243.333 165.333 242 166 241.333 166C240 166.667 238.667 166.667 238 168C237.333 168.667 236.667 169.333 236 170C234.667 172 233.333 174 232 176C230 178 228 180 226 181.333C226 181.333 226 181.333 225.333 181.333C224 182 223.333 182 222 182C220.667 182.667 218.667 182.667 217.333 183.333C215.333 184 214 184 212.667 184.667H212C211.333 184.667 211.333 184.667 210.667 184.667H210C209.333 184.667 209.333 184.667 208.667 184.667C207.333 185.333 206.667 185.333 205.333 186H204.667C204 186 204 186 204 186C202.667 186.667 202 186.667 200.667 187.333C199.333 188 198 188 197.333 188.667C196 189.333 195.333 189.333 194 190C193.333 190.667 192.667 190.667 192 190.667H191.333C190.667 190.667 190.667 190.667 190.667 191.333C190.667 192 190 192 189.333 192H188.667C188 192.667 186.667 192.667 186 192.667C184.667 192.667 183.333 192.667 182 191.333C180.667 190.667 179.333 189.333 178 188.667C176.667 188 176 186.667 175.333 186C174.667 184.667 173.333 182.667 172.667 181.333C172 180.667 172 179.333 171.333 178.667C171.333 178 170.667 177.333 170.667 177.333C170 176 169.333 174.667 168 173.333C168 172.667 167.333 172.667 167.333 172C167.333 173.333 167.333 174 168 174.667L168.667 175.333C168.667 176 169.333 176.667 169.333 177.333C169.333 178 170 178.667 170 179.333C170 179.333 170 180 170.667 180L171.333 180.667C172 182 172 183.333 172.667 184C172.667 184.667 173.333 185.333 173.333 186C174 186.667 174 187.333 174.667 188C175.333 189.333 176 190.667 176.667 191.333C177.333 192 177.333 192.667 178 192.667C179.333 193.333 180.667 194.667 182.667 195.333C184 196 185.333 196 186.667 196C187.333 196 187.333 196 188 196C189.333 196.667 190 195.333 191.333 195.333C192.667 194.667 194.667 194 196 193.333C197.333 192.667 198 192.667 199.333 192C200 191.333 201.333 191.333 202 190.667C202.667 190 204 190 204.667 190H205.333C206 189.333 207.333 189.333 208.667 188.667C210 188 211.333 188 212 188C213.333 188 214 187.333 215.333 187.333C216 187.333 216 187.333 216.667 187.333C217.333 188 217.333 188 217.333 188.667C218 190 219.333 191.333 219.333 192.667C219.333 192.667 219.333 193.333 220 193.333C220 194 220.667 194.667 220.667 195.333C221.333 196.667 221.333 198 221.333 199.333C222 201.333 222.667 203.333 223.333 204.667C224 206.667 225.333 208 226.667 209.333C227.333 210 228.667 210.667 228.667 212C229.333 213.333 230 214.667 230 216C230.667 217.333 230.667 218.667 230.667 219.333C231.333 221.333 232 223.333 232 225.333C232 226.667 232.667 227.333 232.667 228.667C232.667 230 233.333 231.333 233.333 232.667C234 234.667 234.667 237.333 234.667 239.333C234.667 240.667 235.333 241.333 235.333 242.667C235.333 243.333 236 244 236 244.667C236.667 246.667 236.667 248.667 237.333 250C237.333 250.667 237.333 252 238 252.667C238 253.333 238.667 254 238.667 255.333C238.667 256 238.667 256.667 238 256.667C236.667 257.333 235.333 258 234 258.667C233.333 259.333 232.667 259.333 231.333 259.333C230 260 229.333 260 228 260.667C226.667 261.333 225.333 262 224 262.667C222.667 263.333 222 264.667 221.333 266C220 267.333 219.333 268.667 219.333 270C219.333 270.667 219.333 270.667 218.667 271.333C218 271.333 218 271.333 217.333 271.333C215.333 270.667 213.333 270.667 212 270C210.667 270 209.333 269.333 208 269.333C206.667 269.333 206 269.333 205.333 268.667C204 268.667 202.667 268 201.333 268C199.333 267.333 197.333 267.333 195.333 266.667C194.667 266.667 194 266.667 193.333 266.667C192 266.667 191.333 266.667 190 266C188.667 266 187.333 265.333 186 265.333C184.667 265.333 183.333 265.333 182 264.667C180 264.667 178.667 264 176.667 264C176 264 175.333 264 174.667 263.333C173.333 263.333 172 262.667 171.333 262.667C170 262.667 168.667 262 167.333 262C163.333 261.333 159.333 260.667 156 260C154 259.333 152.667 259.333 151.333 258.667C150.667 258.667 150 258.667 149.333 258C147.333 257.333 146 257.333 144 256.667H143.333C144.667 256 146 255.333 146.667 254.667C148 253.333 149.333 252 150 250.667C151.333 249.333 152 248 153.333 246C154 244.667 154.667 243.333 155.333 242.667C156.667 240.667 157.333 239.333 158 237.333C158 236.667 158 236 158.667 236C159.333 235.333 159.333 234.667 159.333 234C160 232.667 160 232 160.667 230.667C161.333 229.333 162 228 162 226.667C162 225.333 163.333 224 163.333 222.667C164 222 164 221.333 164 220.667C164.667 220 164.667 219.333 164.667 218.667C165.333 218 165.333 216.667 166 216C166.667 214.667 168 213.333 168.667 212.667C169.333 212 169.333 212 169.333 211.333C170 209.333 171.333 207.333 171.333 205.333C171.333 204 172 202 172 200.667C172 200 172 199.333 172 199.333C172 198 172.667 197.333 172.667 196C172.667 194.667 173.333 193.333 173.333 192C173.333 191.333 173.333 191.333 173.333 190.667C173.333 190 173.333 190 172.667 190C172.667 190.667 172.667 190.667 172 191.333C171.333 192.667 170.667 194 170.667 196C170 198 170 199.333 169.333 201.333C168.667 202.667 168 204.667 167.333 206C167.333 206.667 166.667 207.333 166.667 207.333C166 208 166 208.667 165.333 209.333C164 212 162 214 160 216C159.333 217.333 158 218 157.333 219.333C156 221.333 155.333 223.333 154 226C153.333 228 152 230 151.333 232.667C150.667 234.667 150 236.667 148.667 238.667C148 240.667 147.333 242.667 146 244C145.333 245.333 144.667 246.667 144 247.333C143.333 248.667 142 250.667 141.333 252C140.667 254 139.333 254.667 138.667 256.667C137.333 256 136 256 134.667 255.333C134 255.333 133.333 254.667 132 254.667C130.667 254 128.667 254 127.333 253.333C126 252.667 124 252.667 122.667 252C121.333 251.333 120 251.333 118.667 250C117.333 248.667 116 248.667 114.667 248C113.333 247.333 112.667 247.333 112 246C111.333 244.667 110.667 244.667 110 243.333C109.333 242.667 108.667 241.333 108 240.667C108 240.667 107.333 240 108 240C107.333 239.333 107.333 238.667 107.333 238C106.667 237.333 106.667 236 106.667 235.333C106 234 106 232.667 106 231.333C106 230.667 106 230.667 106 230C105.333 229.333 105.333 228.667 105.333 228C105.333 227.333 105.333 226.667 105.333 226C105.333 224 105.333 222 104.667 220C104.667 218.667 104.667 217.333 104 216.667C103.333 214 103.333 211.333 102.667 208C102.667 206.667 102.667 206 102 204.667C101.333 203.333 101.333 202.667 101.333 202C100.667 200.667 100.667 198.667 100 197.333C100 196 99.3334 195.333 99.3334 194.667C100 198.667 100 197.333 100 196V195.333C100 194.667 99.3334 194.667 99.3334 194C98.6667 192.667 98 190.667 97.3334 189.333C96.6667 188.667 96.6667 187.333 96 186.667C95.3334 185.333 94.6667 184 94 183.333C93.3334 182 92.6667 181.333 92 180C92 179.333 91.3334 179.333 91.3334 178.667C90.6667 178 90 177.333 89.3334 176.667L88.6667 176C89.3334 177.333 90.6667 178.667 91.3334 180C91.3334 180.667 92 180.667 92 180.667C92.6667 182 92.6667 182.667 93.3334 184C94 186.667 95.3334 188.667 95.3334 191.333C96 194 96.6667 196.667 96.6667 199.333C96.6667 201.333 97.3334 203.333 98 204.667C98 206 98.6667 208 99.3334 209.333C99.3334 210 100 211.333 100 212C101.333 216 101.333 220.667 102 224.667C102 225.333 102 226 102 226C102 227.333 102 228 102.667 229.333C102.667 231.333 103.333 232.667 103.333 234.667C103.333 235.333 103.333 236 103.333 236.667C102 236 100.667 234.667 98.6667 234C98 234 98 233.333 98 233.333C97.3334 233.333 96.6667 232.667 96 232.667C94.6667 232 93.3334 231.333 92.6667 231.333C90.6667 230.667 88 230.667 86 230C84 229.333 82 229.333 80.6667 228.667C80 228.667 80 228.667 79.3334 228.667C78.6667 228.667 78 228.667 76.6667 228C74.6667 227.333 73.3334 227.333 72 226.667C70 226 68 225.333 66.6667 224.667C66 224.667 66 224.667 66 224C64.6667 223.333 64 223.333 62.6667 222.667C62 222.667 62 222.667 61.3334 222.667C60 222 59.3334 222 58 222.667C57.3334 222.667 57.3334 223.333 56.6667 224C56.6667 224.667 56.6667 224.667 56.6667 224.667C56.6667 225.333 57.3334 226 57.3334 226.667H56.6667C56.6667 227.333 57.3334 228 57.3334 228C58 228.667 58 229.333 58.6667 230C59.3334 230.667 60 231.333 60.6667 232C62 232 62.6667 232.667 64 232.667H64.6667C64 232 63.3334 232 62.6667 231.333C62 231.333 61.3334 231.333 61.3334 230.667C60 230.667 60 229.333 59.3334 228.667C58.6667 228 58.6667 227.333 58.6667 226.667C58.6667 226 58.6667 225.333 58.6667 224.667V224L59.3334 223.333C60.6667 223.333 62 222.667 63.3334 224H64C65.3334 224.667 66.6667 224.667 68 225.333C70 226 71.3334 226.667 73.3334 227.333C74 227.333 74.6667 228 75.3334 228C76 228 76.6667 228.667 77.3334 228.667C78.6667 229.333 79.3334 229.333 80 229.333C81.3334 229.333 82.6667 230 83.3334 230.667C84 230.667 84.6667 231.333 85.3334 231.333C86.6667 232 88 232 89.3334 232.667C91.3334 233.333 92.6667 233.333 94 234.667C94 234.667 94.6667 234.667 94.6667 235.333C95.3334 235.333 95.3334 236 96 236C96.6667 236.667 98 236.667 98.6667 237.333C100 238 100.667 238.667 102 240C103.333 241.333 104.667 242 105.333 243.333C106.667 244.667 107.333 246 108 247.333C109.333 248.667 110.667 250.667 112 252C112.667 252.667 112.667 252.667 113.333 252.667C114 252.667 114.667 253.333 116 253.333C116.667 253.333 117.333 254 117.333 254C118 254.667 118.667 254.667 120 255.333C122 256 123.333 256.667 125.333 257.333C127.333 258 128.667 258.667 130.667 258.667C132 259.333 133.333 259.333 135.333 260C137.333 260.667 138.667 261.333 140.667 262C141.333 262 142 262.667 142.667 262.667C143.333 262.667 143.333 262.667 143.333 262.667C146 263.333 148.667 264.667 152 265.333C153.333 266 154 266 155.333 266C157.333 266.667 160 266.667 162 267.333C163.333 267.333 164.667 268 166 268C166.667 268 167.333 268 168 268C169.333 268 170 268.667 171.333 268.667C172.667 268.667 174 269.333 176 269.333C177.333 269.333 178.667 270 180 270C180.667 270 182 270 182.667 270.667C183.333 270.667 184 271.333 185.333 271.333C186.667 271.333 187.333 272 188.667 272C190 272 190.667 272.667 192 272.667C193.333 272.667 194.667 273.333 196 273.333C197.333 273.333 198 274 199.333 274C200.667 274 201.333 274 202 274C204 274 205.333 274.667 206.667 274.667C208.667 274.667 210 274.667 212 274.667C212.667 274.667 213.333 274.667 214 274.667C214.667 274.667 215.333 274.667 216 274.667C216.667 274.667 216.667 274.667 217.333 274C218 274 218.667 274 219.333 273.333C220 273.333 220.667 272.667 222 272.667H222.667C224 273.333 225.333 274.667 226 276C226.667 277.333 228 278.667 228.667 279.333C229.333 280.667 230 282 231.333 284C232 285.333 232.667 287.333 233.333 288.667C234 290 235.333 291.333 236 293.333C236 293.333 236 294 236.667 294C237.333 294.667 238 295.333 239.333 295.333C239.333 294.667 240 294 239.333 294C238.667 293.333 238.667 292 238 291.333C238 290 237.333 289.333 236.667 288C236 287.333 236 286.667 236 286C236 285.333 235.333 284 235.333 283.333C234.667 282 234.667 281.333 234 280C234 280 234 280 234 279.333C233.333 278 232.667 277.333 232 276C231.333 275.333 230.667 274.667 230.667 274C230 272.667 228.667 272 227.333 270.667C226.667 270 226 270 225.333 270C224.667 270 224.667 269.333 224 269.333C225.333 268.667 225.333 268.667 226 268.667C226.667 268.667 226.667 268.667 227.333 268.667C228 268.667 228 268.667 228.667 268.667C230 269.333 230.667 270 232 270.667C234 272.667 236 274.667 238 276.667C240 278 241.333 279.333 243.333 280.667C244 281.333 244.667 281.333 245.333 281.333C246 281.333 246.667 282 247.333 282C248.667 282.667 250 282.667 252 282.667C253.333 282.667 255.333 282.667 256.667 282.667C258 282 259.333 282 260.667 281.333C262.667 280.667 264.667 280 266 278.667C266.667 278 268 276.667 268 276C268.667 275.333 268.667 274.667 268.667 274C269.333 272.667 270 272 270 270.667C270 274 270 272.667 270.667 272Z" fill="#221E22"/>
<path d="M266.667 300C267.333 300 268 300 268.667 300C268 299.333 267.333 300 266.667 300Z" fill="#221E22"/>
<path d="M250.667 296.667C251.333 296 252 295.333 252 295.333C252.667 296 253.333 296.667 254 296.667C254.667 296.667 255.333 296.667 255.333 297.333H256V296.667C255.333 296.667 255.333 296.667 254.667 296.667C254 296.667 253.333 296.667 253.333 296C252.667 296 252.667 295.333 252.667 295.333H253.333H254C254.667 295.333 254.667 295.333 254.667 294C254 293.333 252.667 294 252 294C252 294 252 294 252 293.333C252 292.667 252 292 251.333 292.667C250.667 292.667 250.667 293.333 250 293.333C249.333 294 248.667 294 248 294.667C248 294 248.667 293.333 248 292.667C246.667 293.333 246 294.667 244.667 295.333C244.667 294 246 293.333 246 292C245.333 292.667 244.667 292.667 244 292.667C243.333 292.667 242.667 292.667 242 292C242 292.667 242 292.667 241.333 292.667C242.667 292.667 244 292.667 245.333 292.667C244.667 294 244 294.667 244 296C244.667 296 244.667 295.333 244.667 295.333C245.333 294.667 246.667 293.333 247.333 292.667C247.333 292.667 248 292 248 292.667C247.333 293.333 247.333 294.667 246.667 295.333L247.333 294.667C248 293.333 248.667 292.667 250 292.667C250 292.667 250.667 292.667 251.333 292.667C252 294.667 250.667 295.333 250.667 296.667Z" fill="#221E22"/>
<path d="M41.3333 278.667C40.6667 280 40 282 39.3333 283.333C38 285.333 37.3333 286.667 36 288.667C36 289.333 36.6667 289.333 36.6667 289.333C36.6667 290 37.3333 290 37.3333 290C38 290 38 290 38.6667 289.333C39.3333 288.667 39.3333 288.667 40 288.667C42 287.333 44 285.333 45.3333 282.667C46 281.333 46.6667 280 47.3333 278.667C48 277.333 48 276.667 48.6667 275.333C48.6667 274.667 48.6667 273.333 48.6667 272.667C48.6667 270 48.6667 268 48 265.333C47.3333 263.333 47.3333 260.667 46 258.667C46 258.667 46 258.667 45.3333 258.667C44.6667 258 44 256.667 44 255.333L43.3333 254.667C42.6667 254 42 252.667 41.3333 252C40 253.333 40 252.667 39.3333 252C38.6667 250.667 38 249.333 37.3333 248.667C36.6667 247.333 36.6667 246.667 36 245.333C35.3333 243.333 35.3333 242 35.3333 240C35.3333 238 35.3333 236.667 36 234.667C36.6667 232.667 37.3333 230.667 37.3333 228.667C38 226.667 39.3333 224.667 40.6667 222.667C41.3333 221.333 42.6667 220.667 43.3333 219.333C44 218 45.3333 216.667 45.3333 214.667C45.3333 213.333 45.3333 212 45.3333 210.667C44.6667 208.667 44.6667 206.667 44 205.333C43.3333 204 42.6667 202.667 42.6667 201.333C42 199.333 41.3333 198 41.3333 196C41.3333 194.667 41.3333 192.667 42 191.333C42.6667 189.333 43.3333 187.333 44 185.333C44.6667 184 45.3333 182.667 46 181.333C47.3333 180 48 178.667 48.6667 177.333C49.3333 176.667 49.3333 176 50 175.333C50.6667 174 51.3333 173.333 52 172C52 172 51.3333 172 51.3333 172.667C51.3333 173.333 50.6667 174 50 174.667C49.3333 175.333 48.6667 176 48 176.667C47.3333 178.667 46.6667 180 45.3333 181.333C44.6667 182 44 183.333 43.3333 184C42.6667 184.667 42 186 42 186.667C41.3333 187.333 40.6667 188 40.6667 189.333C40 190.667 39.3333 192 39.3333 193.333C38.6667 195.333 38.6667 196.667 39.3333 198.667C40 200 40 201.333 40.6667 202C40 204 40 204.667 41.3333 205.333C42 206 42 206.667 42 206.667C42 207.333 42 207.333 42.6667 208C42.6667 208.667 43.3333 209.333 43.3333 210C43.3333 211.333 43.3333 212 43.3333 213.333C43.3333 215.333 42.6667 217.333 40.6667 219.333C39.3333 220.667 38 222 36.6667 224C36 224.667 35.3333 225.333 34.6667 226.667C32.6667 229.333 31.3333 232.667 30.6667 236C30.6667 236.667 30.6667 237.333 30 238C30 238.667 29.3333 240 29.3333 240.667C29.3333 242 29.3333 242.667 30 244C30 245.333 30 246 30.6667 246.667C31.3333 248 31.3333 249.333 32 250.667C32 251.333 32 251.333 32.6667 252C33.3333 252.667 33.3333 253.333 34 254.667C34.6667 256 34.6667 256.667 35.3333 257.333C36 258 36 258.667 36.6667 259.333C37.3333 260 38 261.333 38 262C38.6667 264 40 265.333 40 267.333C40 268 40.6667 268 40.6667 268.667C40.6667 269.333 41.3333 269.333 41.3333 269.333C41.3333 270.667 42 271.333 42 272.667C42 273.333 42 274 42 275.333C41.3333 276 41.3333 277.333 41.3333 278.667Z" fill="#221E22"/>
<path d="M54 267.333C54.6667 268.667 55.3333 269.333 56 270.667C56.6667 271.333 56.6667 272 56.6667 272C56.6667 273.333 56.6667 274.667 58 276C58.6667 276.667 58.6667 277.333 59.3333 278C60 278.667 60 279.333 60.6667 280C62 281.333 63.3333 282.667 64.6667 283.333C65.3333 284 66 284 66.6667 285.333C66.6667 286 67.3333 286 67.3333 286H68C68 286.667 68.6667 286.667 69.3333 287.333C69.3333 287.333 70 287.333 70 288C70.6667 288 70.6667 288.667 71.3333 288.667C72.6667 289.333 73.3333 289.333 74.6667 290C75.3333 290 76 290 77.3333 289.333C78 289.333 78.6667 288.667 79.3333 288.667C80.6667 288 82 288 82.6667 287.333C82.6667 287.333 82.6667 287.333 83.3333 287.333C84.6667 287.333 86 286.667 86.6667 286.667C88 286 90 286 91.3333 285.333C92.6667 284.667 93.3333 284.667 94.6667 284C96 283.333 97.3333 283.333 98 283.333C99.3333 282.667 100.667 282.667 102.667 282.667C103.333 282.667 103.333 282.667 104 282.667C105.333 282.667 107.333 283.333 108.667 283.333C110 283.333 110.667 284 111.333 284C112.667 284.667 114 285.333 115.333 286.667C116.667 288 118.667 288 120.667 288C121.333 288 121.333 288 122 288C122.667 288 124 287.333 124.667 288C125.333 288 126 288 126.667 288.667C127.333 288.667 128 288.667 128.667 288.667C129.333 288.667 130 288.667 130 289.333H130.667C132 289.333 132.667 290 134 290C134.667 290 134.667 290 135.333 290H136C137.333 290.667 138 290.667 139.333 291.333C138.667 291.333 138.667 290.667 138.667 290.667C138 290 137.333 290 136.667 289.333C136.667 289.333 136.667 289.333 136 289.333C134 288.667 132.667 288 130.667 288C130.667 288 130 288 130 287.333H129.333C126.667 286.667 125.333 286.667 124.667 286.667C123.333 286 121.333 286 120 286.667C118.667 286.667 116.667 286.667 115.333 286H114.667C114 285.333 113.333 285.333 113.333 284.667C112.667 284 111.333 283.333 110 283.333C109.333 283.333 108 282.667 107.333 282.667C106.667 282.667 106 282.667 105.333 282.667C104 282.667 102.667 282.667 102 282.667C100.667 282.667 98.6667 282.667 97.3333 282.667C95.3333 282.667 93.3333 283.333 91.3333 283.333C90 283.333 88.6667 284 88 284C86 284.667 84 284.667 82 285.333C80 286 78 286.667 76 286.667C74.6667 286.667 73.3333 286.667 72 286.667C70.6667 286 69.3333 285.333 68.6667 284.667C67.3333 283.333 66.6667 282.667 65.3333 282C64 280.667 62 280 60.6667 278.667L60 278C59.3333 277.333 59.3333 276.667 58.6667 276C57.3333 274.667 57.3333 274 57.3333 272C58 272.667 58.6667 272.667 58.6667 272.667C58.6667 272.667 59.3333 273.333 60 273.333L60.6667 272.667C60 272.667 60 272 59.3333 271.333C58.6667 270.667 58 270 57.3333 270C56.6667 269.333 56 269.333 56 268.667C56 268 55.3333 268 55.3333 267.333C54.6667 266.667 54 265.333 54.6667 264C55.3333 264 55.3333 264.667 55.3333 264.667C56 265.333 56.6667 265.333 57.3333 266C58 266.667 58.6667 266.667 59.3333 267.333C60 267.333 60 268 60.6667 268C61.3333 268.667 62 268 62 269.333C62.6667 269.333 63.3333 270 64 270C64.6667 270 65.3333 270.667 66 271.333C66.6667 271.333 66.6667 270.667 66.6667 270.667L66 270C65.3333 269.333 65.3333 269.333 64.6667 268.667C64 268 63.3333 267.333 62.6667 266.667C62.6667 266 62.6667 266 62 265.333C61.3333 264.667 61.3333 264.667 62 264C62 263.333 62 262.667 62 262C62 260.667 60.6667 259.333 60 258.667C59.3333 258 58 257.333 57.3333 256.667C55.3333 254.667 53.3333 253.333 51.3333 252C49.3333 250.667 48 249.333 48 247.333C48 246.667 48 246 48 245.333C48.6667 244 49.3333 242.667 49.3333 242C50 241.333 50 240.667 48.6667 240C48.6667 241.333 47.3333 242 47.3333 243.333C46.6667 244 46 245.333 46 246.667C46 248.667 46.6667 250 48 251.333V252C46.6667 252.667 46.6667 253.333 46.6667 254.667C46.6667 256 47.3333 257.333 48 258.667C48.6667 259.333 49.3333 260 50 261.333C50 261.333 50 261.333 50.6667 262C51.3333 262.667 52.6667 264 53.3333 264.667C53.3333 265.333 53.3333 265.333 52.6667 266C53.3333 266 53.3333 266.667 54 267.333ZM53.3333 258.667L52.6667 258C52 257.333 51.3333 256.667 50.6667 255.333L50 254.667C49.3333 254 49.3333 254 50 253.333C50.6667 253.333 51.3333 253.333 51.3333 254C52 254.667 53.3333 254.667 54 255.333C54.6667 256 56 256.667 56.6667 257.333C57.3333 258 58.6667 258.667 59.3333 258.667C60 259.333 60.6667 259.333 61.3333 260L62 260.667C62 262 62 264 62 265.333H61.3333C60.6667 265.333 60.6667 264.667 60 264.667C60 264.667 59.3333 264.667 59.3333 264C58.6667 263.333 58 262.667 57.3333 262C56.6667 261.333 56 261.333 56 260.667L55.3333 260C54.6667 260 54 259.333 53.3333 258.667Z" fill="#221E22"/>
<path d="M287.333 242C287.333 243.333 288 245.333 288 246.667C288 248.667 288.667 251.333 288.667 253.333C289.333 255.333 289.333 257.333 289.333 259.333C290 259.333 290 259.333 290 258.667C290 258 290 258 290 257.333C290 256.667 290 255.333 290.667 254.667C290.667 252 290.667 250 290.667 247.333C290.667 245.333 290.667 243.333 290.667 241.333C290.667 239.333 290.667 237.333 290 236C289.333 233.333 289.333 230.667 288.667 228C288.667 227.333 288.667 226.667 288 226C287.333 224 287.333 221.333 286.667 219.333C286.667 218.667 286.667 218.667 286 218.667V218C286 218 286 218.667 286.667 218.667C286.667 218 286.667 217.333 286 216.667C285.333 216 286 215.333 286 215.333V214.667C286 214 285.333 214 285.333 214C285.333 212.667 284.667 211.333 284.667 210.667V210C284 209.333 284 208.667 284 208.667C284 208 284 208 284 207.333V208C283.333 207.333 283.333 206.667 284 206C284 205.333 284 204.667 283.333 204C282.667 204 282.667 202.667 282.667 202.667C282.667 202 283.333 202 283.333 202C282.667 202 282.667 202 282.667 201.333C282.667 200.667 282.667 200.667 282.667 200V199.333C282.667 198.667 282.667 198 282 197.333C281.333 195.333 281.333 193.333 280.667 191.333C280 189.333 279.333 188 279.333 186C278 182 277.333 178 276.667 174.667C276.667 174 276.667 173.333 276 173.333C275.333 171.333 275.333 170 274.667 168C274 166.667 274 165.333 274 164C273.333 161.333 273.333 159.333 273.333 156.667C273.333 155.333 273.333 154 273.333 152C273.333 150.667 273.333 148.667 273.333 147.333C273.333 145.333 273.333 143.333 273.333 141.333C273.333 140 273.333 138.667 273.333 138C273.333 135.333 273.333 132.667 272.667 130.667C272 128 272 126 270.667 124C270.667 123.333 270 123.333 270 122.667C270 120.667 269.333 119.333 268.667 118C268 116.667 268 116 267.333 114.667V115.333C268 116.667 268 118 268 119.333C268 120 268 120 268.667 120.667C268.667 121.333 269.333 121.333 269.333 122C269.333 122.667 269.333 123.333 269.333 124C269.333 126 269.333 128 269.333 130.667C269.333 131.333 269.333 132 269.333 132.667C269.333 135.333 269.333 138 268.667 140.667C268.667 142 268.667 143.333 268.667 144.667C268.667 146 268.667 146.667 268.667 148C268 150.667 268 152.667 267.333 154.667C267.333 157.333 267.333 160.667 267.333 163.333C267.333 164.667 267.333 165.333 268 166.667C268.667 168.667 268.667 170.667 268.667 172C268.667 173.333 269.333 174.667 269.333 175.333C269.333 176.667 270 178 270 179.333C270.667 181.333 271.333 183.333 271.333 185.333C271.333 186.667 272 188 272 189.333C272.667 192 273.333 195.333 274 198C274.667 200 275.333 201.333 275.333 203.333C275.333 204.667 276 206 276.667 206.667C277.333 208.667 277.333 210 278 212V212.667C278.667 214 279.333 216 279.333 217.333C279.333 218.667 280 220 280 221.333C280 222 280.667 223.333 280.667 224C281.333 226 281.333 227.333 282 229.333C282 230 282.667 230.667 282.667 231.333C283.333 232.667 283.333 234 283.333 235.333C283.333 236.667 284 237.333 284 238.667C286.667 238.667 287.333 240 287.333 242Z" fill="#221E22"/>
<path d="M204.667 180C204.667 181.333 205.333 182 206 182.667C206 182 206 181.333 206 180.667C206 178.667 205.333 177.333 204.667 176C204 175.333 202.667 175.333 202 176V176.667C202 178 202.667 178.667 203.333 178.667C204.667 178.667 204.667 179.333 204.667 180Z" fill="#221E22"/>
<path d="M290.667 298.667C290 298 290 298 290.667 298.667C290 298.667 290 298.667 290.667 298.667Z" fill="#221E22"/>
<path d="M164.667 232.667C164 234.667 164 236.667 163.333 238.667C163.333 240 162.667 240.667 162.667 241.333C162 242.667 162 244 162 245.333C161.333 247.333 160.667 248.667 160 250.667C158.667 254 157.333 257.333 156 260.667C156.667 260 158 259.333 158.667 258.667C159.333 257.333 160 256.667 160 255.333C160.667 253.333 161.333 252 162 250C162.667 248 163.333 246.667 164 244.667C164.667 243.333 164.667 242 165.333 240.667C166 240 166 238.667 166 238C166 236.667 166.667 235.333 166.667 234.667C166.667 233.333 166.667 232 167.333 231.333C168 229.333 167.333 228 166.667 226C166.667 226 166.667 226 166.667 225.333C166.667 224.667 166 224.667 165.333 224.667C164.667 224.667 164.667 225.333 164.667 225.333C164.667 226 165.333 226.667 165.333 227.333C165.333 230 164.667 231.333 164.667 232.667Z" fill="#221E22"/>
<path d="M200 260.667C201.333 260 202.667 259.333 204 258C206 256.667 207.333 255.333 209.333 253.333C210.667 252 212 250 213.333 248.667C214.667 247.333 215.333 245.333 216 244C216.667 243.333 216.667 242.667 216.667 242.667C217.333 242 218 241.333 218 240C218.667 238 220 236 220.667 234C221.333 232.667 221.333 231.333 222 230.667C222.667 230 222.667 229.333 222.667 228.667C222.667 228 223.333 227.333 223.333 227.333C224 225.333 224.667 224 224.667 222C224.667 221.333 224.667 220 224.667 219.333C224.667 218 224.667 217.333 224.667 216.667C224.667 216 224.667 216 224.667 215.333C224.667 214.667 224.667 214.667 224 214V214.667C224 216.667 224 218 223.333 220C223.333 221.333 222.667 222.667 222.667 224C222.667 225.333 222 226 221.333 226.667C220.667 228 220.667 228.667 220 230C219.333 231.333 218.667 232 218 233.333C217.333 234.667 216.667 236 215.333 238C214.667 239.333 214 240 213.333 241.333C212.667 242 212 242.667 212 243.333C211.333 244 211.333 244 210.667 244.667C210 245.333 210 246 210 246C209.333 246.667 209.333 247.333 208.667 248C208 248.667 208 249.333 207.333 249.333C206.667 250 206 250.667 205.333 251.333C204.667 252 204.667 252 204 252.667C203.333 253.333 202.667 254 202.667 254.667C202.667 254.667 202.667 255.333 202 255.333C202 255.333 202 255.333 201.333 256L200.667 256.667C199.333 257.333 198.667 258.667 197.333 259.333L196.667 260C196 260 195.333 260.667 194.667 261.333C193.333 262 192 263.333 190.667 263.333C191.333 263.333 191.333 264 191.333 264C192 264 192.667 264 193.333 264C197.333 262 198.667 261.333 200 260.667Z" fill="#221E22"/>
<path d="M51.3334 188C51.3334 186.667 52 186 52.6667 184.667C52.6667 184 53.3334 184 53.3334 183.333C54 182.667 54 182 54.6667 182C55.3334 181.333 55.3334 181.333 55.3334 180.667C54.6667 180.667 54.6667 180.667 54 181.333C54 181.333 54 181.333 53.3334 182C52.6667 182.667 52 183.333 51.3334 183.333C50.6667 184 50 184.667 50 185.333C49.3334 186 49.3334 187.333 48.6667 188C48.6667 188.667 48 188.667 48 189.333C47.3334 190.667 46.6667 192 46.6667 194C46.6667 196 46.6667 198 46.6667 199.333C46.6667 200.667 46.6667 201.333 46.6667 202.667C46.6667 204.667 47.3334 206 47.3334 208C47.3334 210 48 212 48 214C48 215.333 48 216 48.6667 216.667C49.3334 219.333 50 222 50 225.333C50 227.333 50.6667 229.333 50.6667 231.333C50.6667 232.667 51.3334 233.333 51.3334 234C51.3334 235.333 52 236.667 52 238.667C52 240 52.6667 241.333 52.6667 242C52.6667 242.667 52.6667 243.333 53.3334 244V244.667C54 245.333 54.6667 245.333 54.6667 245.333C55.3334 245.333 55.3334 246 56 246C56.6667 246.667 58.6667 246.667 60.6667 246.667C62.6667 246.667 64 246.667 65.3334 246C66.6667 246 67.3334 245.333 68.6667 246C70.6667 246 72 246 74 246C74.6667 246 76 245.333 76.6667 246C78 246 78.6667 246 80 246C80.6667 246 81.3334 245.333 82 244.667C80.6667 243.333 80 242.667 78.6667 242C78 241.333 78 240.667 77.3334 240.667C76.6667 240.667 76.6667 240 76 240C75.3334 240 75.3334 239.333 74.6667 239.333C74 238.667 72.6667 238 72 238C70.6667 237.333 69.3334 236.667 68 236C67.3334 236 66.6667 236 66 236C66.6667 236 66.6667 236.667 67.3334 236.667C68 237.333 68.6667 237.333 69.3334 237.333C70.6667 238 71.3334 238.667 72 239.333C72.6667 240 73.3334 240 73.3334 240.667C73.3334 241.333 74 242 74.6667 242C74 242.667 73.3334 242 72.6667 242.667C71.3334 242.667 69.3334 243.333 68 243.333C67.3334 243.333 67.3334 243.333 66.6667 243.333C66 242.667 66 243.333 66 243.333C65.3334 243.333 65.3334 243.333 64.6667 243.333C64.6667 243.333 64.6667 243.333 64 243.333C63.3334 243.333 63.3334 243.333 62.6667 243.333C62 244 62 243.333 61.3334 243.333C60.6667 243.333 60 242.667 59.3334 243.333C58.6667 243.333 58.6667 243.333 58.6667 243.333C58.6667 243.333 58 243.333 58 242.667H57.3334C56.6667 242.667 56.6667 242 56.6667 242C56 242 56 242 55.3334 242C54.6667 242 54.6667 241.333 54.6667 240.667C54.6667 240 54 240 54 239.333V238.667C53.3334 238 53.3334 237.333 53.3334 236.667C53.3334 235.333 53.3334 234.667 52.6667 233.333C52.6667 232 52 230.667 52 229.333C52 228.667 51.3334 227.333 51.3334 226.667C51.3334 224.667 50.6667 222.667 50.6667 220.667C50 219.333 50 217.333 50 216C50 215.333 50 214.667 50 214.667C50 212.667 49.3334 210 49.3334 208C48.6667 205.333 48.6667 202.667 48.6667 200C48.6667 199.333 48.6667 198.667 48.6667 198.667C48 196.667 49.3334 194.667 49.3334 192.667C50 190.667 50.6667 189.333 51.3334 188Z" fill="#221E22"/>
<path d="M201.333 184.667C201.333 184 201.333 183.333 200.667 182.667C200.667 182 200 181.333 199.333 181.333C198 180.667 196 180 194.667 180C193.333 179.333 192.667 179.333 191.333 179.333C189.333 178.667 188 178.667 186.667 178C186 178 186 177.333 185.333 177.333C185.333 178 186 179.333 186 180C186 180.667 186.667 182 186.667 182.667C186.667 185.333 188 188 190 189.333C190.667 190 191.333 190 192 190.667C193.333 191.333 194.667 191.333 196 191.333C197.333 191.333 198.667 190.667 200.667 190C201.333 190 202 189.333 202.667 188.667C203.333 188 203.333 188 203.333 187.333C203.333 186.667 203.333 186 204 185.333C204 184 203.333 184 202.667 184C202 185.333 202 185.333 201.333 184.667Z" fill="#CE3016"/>
<path d="M88.6667 171.333C87.3333 170.667 86.6667 170 85.3333 170H84.6667C84 170 83.3333 169.333 83.3333 169.333C82.6667 169.333 81.3333 168.667 80.6667 168.667C80 168.667 80 168.667 79.3333 168.667H78.6667C76.6667 168 75.3333 168 73.3333 168.667C72.6667 168.667 72.6667 168.667 72 168.667C70.6667 168.667 70.6667 168.667 70 169.333C70.6667 169.333 70.6667 169.333 71.3333 169.333C72 169.333 73.3333 169.333 74 168.667C75.3333 168.667 76 168.667 77.3333 168.667C78 168.667 79.3333 169.333 80 169.333H80.6667C81.3333 170 82.6667 170 83.3333 170.667C84 170.667 84.6667 171.333 85.3333 172C85.3333 172 85.3333 172 86 172C87.3333 172.667 88.6667 173.333 90 174.667C90.6667 175.333 91.3333 176 92.6667 176.667C93.3333 177.333 94 177.333 94 178C94.6667 178.667 95.3333 178.667 95.3333 179.333C96.6667 180 98 180.667 99.3333 182C100 182.667 101.333 183.333 102 184C102.667 184.667 103.333 184.667 104 185.333C106 186.667 108 188 110 189.333C110 189.333 110 189.333 110.667 189.333C112.667 190 114 191.333 115.333 192C116.667 192.667 117.333 193.333 118.667 193.333C120 194 121.333 194 123.333 194.667C124.667 194.667 125.333 195.333 126.667 195.333C128.667 195.333 130.667 195.333 132.667 195.333C134 195.333 135.333 194.667 136.667 194.667C138.667 194 140 193.333 142 192.667C143.333 192 144.667 191.333 146 190.667C148.667 189.333 150.667 187.333 152.667 185.333C154 183.333 155.333 182 156.667 180C157.333 179.333 158 178 159.333 177.333C160 176.667 160.667 176 161.333 176C162 175.333 163.333 175.333 164 175.333C164.667 175.333 164.667 175.333 165.333 175.333V176C165.333 175.333 166 175.333 166 175.333H166.667C167.333 174.667 168 175.333 168.667 174.667C169.333 174.667 169.333 174.667 170 174.667C171.333 174.667 172 174.667 173.333 174.667C174 174.667 174 174.667 174 174.667C176 174 178 173.333 179.333 172.667C182 171.333 184 168.667 185.333 166.667C186.667 164.667 187.333 162.667 187.333 160C187.333 158.667 187.333 157.333 187.333 156C187.333 154.667 186.667 153.333 186.667 152C186.667 150.667 186.667 149.333 186.667 148.667C186.667 148 187.333 147.333 187.333 146.667C188 146 188 144.667 189.333 144.667C190 144 190 144 190.667 144C191.333 144 192 144 192.667 144C193.333 144 194 144 194.667 144C195.333 144 196 144.667 196.667 144.667C198 145.333 198.667 145.333 200 146C200.667 146 201.333 146.667 202 146.667C202.667 146.667 203.333 146.667 204 147.333H204.667C206 147.333 207.333 147.333 208.667 146.667C210 146 212 145.333 213.333 144C214.667 142.667 215.333 141.333 216 140C216.667 139.333 216.667 138.667 217.333 137.333C218 136 218.667 135.333 220 134C220.667 133.333 221.333 133.333 222 132.667C222.667 132 222.667 132.667 223.333 132.667C224 132.667 224.667 132.667 225.333 132.667C226 133.333 226.667 133.333 228 133.333C228.667 133.333 228.667 133.333 229.333 133.333C230 133.333 230 133.333 230.667 134C231.333 134.667 231.333 134 232 134.667C232.667 135.333 233.333 136 234.667 136C235.333 136 236 136.667 236 136.667C236.667 136.667 236.667 137.333 237.333 137.333C238 138 239.333 138 240 138.667C241.333 139.333 242 140 243.333 140C243.333 140 243.333 140 244 140C244.667 140.667 245.333 140.667 246 140.667C246.667 140.667 247.333 140.667 248.667 140.667C249.333 140.667 250 140.667 250 140.667C250.667 140.667 252 140 252.667 140C253.333 140 254 140 254.667 139.333C255.333 138.667 256.667 138 257.333 137.333L258 136.667C257.333 136.667 257.333 136.667 256.667 137.333C255.333 138 254.667 138 253.333 138.667C250.667 138.667 248.667 138.667 246.667 138C246 138 244.667 137.333 244 137.333C243.333 137.333 242.667 136.667 242.667 136.667C242 136.667 241.333 136 240.667 136C239.333 135.333 238 134.667 237.333 134C235.333 132.667 233.333 132 231.333 131.333C230 130.667 228 130 226.667 130C225.333 129.333 224 129.333 222.667 129.333C220 129.333 218 130.667 216.667 132C216 132.667 215.333 134 214.667 134.667C214 136 213.333 137.333 212 138.667C211.333 139.333 211.333 140 210.667 140C209.333 140.667 208.667 141.333 207.333 142C206.667 142 206 142.667 205.333 142.667C204 142.667 202.667 142.667 201.333 142C200.667 142 200 141.333 200 141.333C197.333 140.667 195.333 139.333 193.333 139.333C192 139.333 191.333 138.667 190 139.333C189.333 139.333 188.667 140 187.333 140C186.667 140 186 140.667 186 141.333C185.333 142 185.333 142.667 184.667 143.333C184 144.667 183.333 145.333 183.333 146.667C183.333 146.667 183.333 146.667 183.333 147.333C182.667 148 182.667 148.667 182.667 149.333C182.667 150 182.667 150.667 182.667 151.333C182.667 152.667 182.667 154 182.667 155.333C182.667 156 182.667 156.667 182.667 158C182.667 159.333 182 160 182 161.333C181.333 163.333 180.667 164.667 179.333 166C178.667 166.667 178 166.667 178 167.333C176.667 168.667 175.333 169.333 174 170C172 171.333 170 171.333 168 171.333C166 171.333 164 171.333 162 172C160.667 172.667 158.667 172.667 157.333 173.333C154.667 174.667 152 176 150 178.667C149.333 180 148.667 181.333 148 182C146.667 183.333 146 184.667 144.667 186C142.667 188 140 189.333 137.333 190C135.333 190.667 132.667 191.333 130.667 192C130 192 129.333 192 128.667 192C128 192 127.333 192 127.333 192C127.333 192 126 192 125.333 192C124.667 192 124.667 192 124 192C123.333 192 122.667 192 122 192C120.667 191.333 119.333 191.333 118 190.667C116.667 190 115.333 190 114 189.333C112 188 110 187.333 108 186C107.333 186 107.333 185.333 106.667 185.333C106 184.667 105.333 184.667 104.667 184C103.333 183.333 102 182.667 101.333 181.333C100 180 98.6667 179.333 97.3333 178.667C95.3333 177.333 93.3333 176 92 174.667C90.6667 173.333 90 172 88.6667 171.333Z" fill="#221E22"/>
<path d="M70 281.333C69.3334 280.667 68.6667 280 68 279.333L67.3334 278.667C66.6667 277.333 66.6667 276 66.6667 274.667V274C67.3334 274 67.3334 273.333 67.3334 272.667C67.3334 272 67.3334 271.333 66.6667 271.333C66.6667 271.333 66 271.333 65.3334 271.333L64.6667 272C65.3334 272 65.3334 272.667 65.3334 272.667V273.333C65.3334 274.667 64.6667 275.333 65.3334 276.667C65.3334 277.333 65.3334 277.333 66 277.333L66.6667 278C66.6667 280 66.6667 280 67.3334 280C68 280.667 68 281.333 69.3334 281.333C69.3334 281.333 70 281.333 70 282C70.6667 282.667 70.6667 283.333 70.6667 284C70.6667 284 71.3334 284 71.3334 284.667C70.6667 283.333 70 282.667 70 281.333Z" fill="#221E22"/>
<path d="M300 22C300 20.6666 300 19.3333 299.333 18.6666C299.333 18 299.333 17.3333 299.333 16.6666C299.333 16 299.333 16 298.667 16C298 16 296.667 15.3333 296 16H295.333C294.667 16 293.333 15.3333 292.667 16C290.667 16 289.333 16 288 16.6666C285.333 16.6666 282.667 16.6666 280 16.6666H279.333C276.667 16 274.667 16 272.667 15.3333C272 15.3333 272 15.3333 271.333 15.3333C271.333 15.3333 271.333 15.3333 270.667 15.3333H270C269.333 15.3333 269.333 16 268.667 15.3333C268 15.3333 268 15.3333 267.333 15.3333C267.333 15.3333 266.667 16 266.667 15.3333H267.333C266.667 15.3333 266.667 15.3333 266 15.3333C265.333 15.3333 264.667 15.3333 264.667 15.3333C263.333 15.3333 262 15.3333 260 15.3333C258 15.3333 256 15.3333 253.333 15.3333C252 15.3333 251.333 15.3333 250 15.3333C249.333 15.3333 248 15.3333 247.333 15.3333C246 15.3333 244 15.3333 242.667 15.3333C241.333 15.3333 240.667 15.3333 240 15.3333C238 15.3333 235.333 15.3333 233.333 16C232.667 16 232 16 230.667 16C229.333 16 228 16 226.667 16C226 16 225.333 16 224.667 16C223.333 16 222 16 220.667 16C218.667 16 217.333 16 215.333 16C214 16 212.667 16 210.667 16H210C208 16.6666 206 16.6666 204 16.6666C202.667 17.3333 201.333 16.6666 200 17.3333C199.333 17.3333 198.667 17.3333 198 17.3333C197.333 17.3333 196 18 195.333 18H194.667C194 18 194 18 193.333 18C192.667 18 192.667 18 192 18C191.333 18 190 18 189.333 18C188.667 18 188.667 18 188 17.3333C186 17.3333 184 16.6666 182.667 16.6666C182 16.6666 181.333 16.6666 180.667 16.6666C180 16.6666 179.333 16.6666 178.667 16.6666C177.333 16.6666 176 16.6666 174.667 16.6666C173.333 16.6666 171.333 16.6666 170 16.6666C168 16.6666 166.667 16.6666 164.667 16.6666C164 16.6666 163.333 16.6666 162 16.6666C160.667 16.6666 160 16.6666 158.667 16.6666C156.667 16.6666 155.333 16.6666 153.333 16C152.667 16 152 16 152 16C150 16 148.667 16 146.667 16C145.333 16 144 16.6666 142.667 16C141.333 16.6666 139.333 16 138 16.6666C137.333 16.6666 137.333 16.6666 136.667 16.6666C134.667 16.6666 132.667 16.6666 130.667 16.6666C130 16.6666 128.667 16.6666 128 16.6666C126.667 16.6666 126 16.6666 124.667 16.6666C124 16.6666 123.333 16.6666 122.667 16.6666C121.333 16.6666 119.333 17.3333 118 17.3333C116.667 17.3333 116 17.3333 114.667 17.3333C112.667 17.3333 111.333 17.3333 109.333 17.3333C108.667 17.3333 108.667 17.3333 108.667 17.3333C108 17.3333 108 16.6666 107.333 16.6666C106.667 16.6666 105.333 16 104.667 16C103.333 16 102 16 100.667 15.3333C100 15.3333 99.3334 15.3333 98.6667 15.3333C96 15.3333 94 15.3333 91.3333 15.3333C90.6667 15.3333 89.3334 15.3333 88.6667 15.3333C86.6667 15.3333 84.6667 16 82.6667 16C81.3333 16 80 16 78.6667 16.6666C78 16.6666 76.6667 16.6666 76 17.3333C75.3333 17.3333 75.3333 17.3333 74.6667 17.3333C73.3333 17.3333 72 17.3333 70.6667 17.3333C70 17.3333 68.6667 17.3333 68 17.3333C66.6667 16.6666 65.3334 17.3333 64 16.6666C64.6667 18 62 18 60 18C58.6667 18 57.3333 17.3333 56.6667 17.3333C54.6667 17.3333 53.3333 16.6666 51.3333 16.6666C50.6667 16.6666 50.6667 16.6666 50 16.6666C48.6667 16 46.6667 16 44.6667 15.3333C43.3333 15.3333 41.3333 15.3333 40 16C38.6667 15.3333 38 16 37.3333 16C35.3333 16.6666 34 16.6666 32 16.6666C31.3333 16.6666 30.6667 16.6666 30 16.6666C28.6667 16.6666 26.6667 16.6666 25.3333 16.6666C24.6667 16.6666 24 16.6666 23.3333 16.6666C22.6667 16.6666 22 16.6666 21.3333 16.6666C20.6667 16.6666 20 17.3333 20 18C20 18.6666 20 19.3333 20 20C20 21.3333 20 22 20 23.3333C20 26 20 29.3333 20 32C20 32.6666 20 33.3333 19.3333 34C20 34.6666 20 35.3333 19.3333 36L18.6667 36.6666C18.6667 37.3333 18.6667 38 18 38.6666C18 38.6666 18 38.6666 18.6667 38C18.6667 38.6666 18.6667 39.3333 18 40C18.6667 40.6666 18.6667 40.6666 18 41.3333C18.6667 42 18.6667 42 18.6667 42.6667C18.6667 43.3333 18.6667 43.3333 18.6667 44C18.6667 44.6666 19.3333 45.3333 18.6667 46C18 46.6667 18.6667 48 18.6667 48.6666C18.6667 49.3333 18.6667 49.3333 18.6667 50C18.6667 51.3333 18.6667 52.6666 18.6667 54C18.6667 54.6666 18.6667 55.3333 18.6667 56.6666C18.6667 58 18.6667 59.3333 18.6667 60.6666C18.6667 62 18.6667 63.3333 18.6667 64C18.6667 65.3333 18.6667 67.3333 18.6667 68.6666C18.6667 69.3333 18.6667 69.3333 18.6667 70C18.6667 70.6666 18.6667 70.6666 18.6667 71.3333C18 72 18 72 18 72.6666V73.3333C17.3333 74 18 74 17.3333 74.6666C17.3333 75.3333 17.3333 75.3333 17.3333 76C17.3333 76.6666 17.3333 77.3333 17.3333 78C17.3333 79.3333 16.6667 80.6666 17.3333 82C17.3333 82.6666 17.3333 83.3333 17.3333 83.3333C16.6667 84.6666 17.3333 86.6666 17.3333 88C17.3333 89.3333 17.3333 90.6666 17.3333 92C17.3333 94 17.3333 95.3333 17.3333 96.6666C17.3333 98.6666 18 100 18 101.333C18 102 18 102 18 102C18 103.333 18 104.667 18 106V106.667C18 106.667 18 106 18.6667 106C18.6667 106.667 18.6667 106.667 18.6667 106.667C19.3333 106.667 20 106.667 20 106C20 105.333 20 105.333 20 104.667C20 104 20 104 20.6667 103.333C20.6667 104 20.6667 104.667 20.6667 104.667C20.6667 106 20.6667 107.333 21.3333 108.667C21.3333 109.333 21.3333 110.667 22 111.333C22 113.333 22.6667 113.333 23.3333 113.333C24 113.333 24 113.333 24.6667 113.333C24.6667 112.667 24.6667 112 24.6667 111.333C25.3333 110.667 24.6667 109.333 25.3333 108.667C26 108 26 106.667 26 106C26 105.333 26 104 26 103.333C26 102.667 26 101.333 26 100.667C26 100 26 99.3333 26 98.6667C26 98 26 97.3333 26 97.3333C26 96 26 94 26 92.6666C26 90.6666 26 88 26 86C26 84.6666 26 84.6667 25.3333 84C26 84 26 83.3333 26 83.3333C26 83.3333 26 83.3333 26 82.6666C26 80.6666 26 78 26 76C26 74.6666 26 72.6666 26 71.3333C26 70.6666 26 70.6666 26 70C26 69.3333 26 69.3333 25.3333 68.6666C25.3333 68.6666 26 68.6666 26 68C26 67.3333 26 66.6666 26 66C26 64 26 62 26 60C26 58.6666 26 56.6666 26 55.3333C26 54 26 52 26 50.6666C26 50 26 49.3333 26 48.6666C26 48 26 46.6667 26 46C26 44.6667 26 44 26 42.6667C26 41.3333 26 40 25.3333 39.3333C25.3333 38.6666 25.3333 38.6666 25.3333 38V37.3333C25.3333 36 25.3333 35.3333 25.3333 34C25.3333 33.3333 25.3333 32.6666 25.3333 32.6666C25.3333 32 25.3333 32 25.3333 32C24.6667 32 24.6667 32 24.6667 31.3333C24.6667 31.3333 24.6667 32 25.3333 32C25.3333 32 25.3333 32 25.3333 31.3333C24.6667 30 25.3333 29.3333 25.3333 28C25.3333 26.6666 25.3333 25.3333 26 24C26.6667 24 27.3333 24.6666 28 24.6666C28.6667 24.6666 29.3333 24.6666 30 25.3333C30 24.6666 30.6667 24.6666 31.3333 24.6666C32 24.6666 32.6667 25.3333 32.6667 26C33.3333 26 33.3333 26 34 26V25.3333C35.3333 25.3333 36 25.3333 36.6667 25.3333C36.6667 25.3333 36.6667 25.3333 36 25.3333C36.6667 25.3333 37.3333 25.3333 37.3333 24.6666H38C37.3333 24.6666 37.3333 24.6666 37.3333 25.3333C38 25.3333 38 25.3333 38 25.3333C38.6667 24.6666 40 24 40.6667 25.3333C41.3333 25.3333 41.3333 25.3333 42 25.3333C42 25.3333 42 25.3333 42.6667 25.3333C43.3333 24.6666 44 24.6666 44.6667 24.6666H45.3333V25.3333L46 24.6666C46 24.6666 46 24.6666 46.6667 24.6666C48 24.6666 49.3333 24.6666 50.6667 24.6666C51.3333 24.6666 51.3333 25.3333 52 24.6666C52 24.6666 52.6667 24.6666 53.3333 24.6666C56.6667 24.6666 60 24.6666 63.3333 24.6666C65.3333 24.6666 67.3333 24.6666 70 24.6666C71.3333 24.6666 72 24.6666 73.3333 24.6666C74 24.6666 74.6667 24.6666 75.3334 24C75.3334 24.6666 76 24.6666 76.6667 24.6666H77.3334C79.3334 24.6666 80.6667 24.6666 82.6667 24C83.3333 24 84 24 84.6667 23.3333C84.6667 23.3333 84.6667 23.3333 85.3334 23.3333H86C86.6667 23.3333 87.3334 23.3333 87.3334 24C88 23.3333 88.6667 23.3333 89.3333 24C90 24.6666 90.6667 24.6666 91.3333 24C90.6667 24 90.6667 24 90 24C90.6667 23.3333 90.6667 24 91.3333 24C92 24 92 24 92.6667 24.6666C92.6667 24.6666 92.6667 24.6666 92.6667 24C92.6667 24 92.6667 24 93.3333 24C94 23.3333 94.6667 23.3333 95.3334 24C96 24 96.6667 24.6666 97.3334 24.6666C98 24.6666 98.6667 24.6666 98.6667 25.3333C98.6667 25.3333 99.3333 25.3333 100 25.3333H99.3333C100 25.3333 100 25.3333 100 25.3333C100.667 26 100.667 26 101.333 26C101.333 26 100.667 26 100.667 25.3333H101.333C101.333 25.3333 101.333 26 102 26C102.667 25.3333 102.667 25.3333 103.333 25.3333C104 25.3333 104.667 25.3333 104.667 24.6666H105.333C106 24.6666 107.333 24.6666 108 24.6666H108.667C109.333 24 109.333 24.6666 110 24C110.667 24 111.333 24 111.333 23.3333C112 24 112.667 23.3333 113.333 24C114 24.6666 114 24.6666 114.667 24C115.333 23.3333 115.333 23.3333 116 24C116.667 24 116.667 24 117.333 24C118 24 118 23.3333 118.667 23.3333C119.333 23.3333 119.333 23.3333 119.333 24C120 23.3333 120 23.3333 120.667 23.3333C121.333 24 122 23.3333 122.667 23.3333C123.333 23.3333 124.667 23.3333 125.333 23.3333C127.333 23.3333 130 23.3333 132 23.3333C132.667 23.3333 132.667 23.3333 133.333 22.6666C134 22 134.667 22 135.333 22.6666L136 23.3333C136 22.6666 136 22.6666 136 22.6666C136.667 22.6666 136.667 22.6666 137.333 22.6666C138.667 23.3333 139.333 22.6666 140.667 23.3333C140.667 23.3333 140.667 24 140 24C141.333 24 142 24.6666 143.333 24C142.667 24 142 24 141.333 23.3333C142 22.6666 142 22.6666 142.667 22.6666C143.333 22.6666 144.667 23.3333 145.333 23.3333H144.667C145.333 23.3333 146 23.3333 146 23.3333C146 22.6666 146.667 22 147.333 22.6666C148 23.3333 148.667 23.3333 149.333 22.6666C150 22.6666 150 22.6666 150.667 23.3333L151.333 24C152.667 24 154 24 155.333 24C155.333 24 155.333 23.3333 156 23.3333C156 23.3333 155.333 23.3333 155.333 24C156 24 157.333 24 158 24C159.333 24 160.667 24 162 24C164 24 166.667 24 168.667 23.3333C170.667 23.3333 172.667 22.6666 174.667 22.6666C175.333 22.6666 176.667 22.6666 177.333 22.6666C178 22.6666 178.667 22.6666 179.333 22.6666C180 22.6666 180 22 180.667 22C181.333 22 182 22 182.667 22C183.333 22 184 22 184.667 22.6666C185.333 22.6666 185.333 23.3333 186 23.3333C188 23.3333 189.333 23.3333 190.667 23.3333C192 23.3333 194 23.3333 195.333 23.3333C196.667 23.3333 198.667 24 200 24H200.667C201.333 24 201.333 24 202 24C202.667 24 202.667 24 202.667 24C203.333 24 204 24 204.667 24C205.333 24 205.333 24 206 24.6666H206.667V24C207.333 24 207.333 24 208 24C208.667 24.6666 208.667 24.6666 208.667 24.6666C210 23.3333 210.667 23.3333 212 24.6666C212.667 24 213.333 24 214 24.6666C214.667 24.6666 214.667 24 215.333 24C216 24 216 24.6666 216.667 24C216.667 24 216.667 24 217.333 24H218C218.667 24 219.333 24 219.333 24.6666C220 24.6666 220 24.6666 220.667 24.6666C220 24 220.667 24 221.333 24C221.333 24 222 24 222 24.6666C222.667 25.3333 223.333 25.3333 224 25.3333C224.667 25.3333 225.333 24.6666 226 25.3333V26C227.333 26 228.667 26 230 25.3333C230.667 25.3333 231.333 24.6666 232 24.6666C232.667 25.3333 232.667 25.3333 233.333 24.6666H234C234.667 25.3333 234.667 25.3333 235.333 24.6666C236 25.3333 236 24 236 24C236.667 24.6666 237.333 24 237.333 24C238 23.3333 238.667 23.3333 239.333 22.6666C240 23.3333 240.667 22.6666 241.333 22.6666L242 23.3333C242.667 23.3333 243.333 23.3333 243.333 23.3333C242.667 23.3333 242.667 23.3333 242 23.3333C242 22.6666 242.667 22.6666 242.667 22.6666H243.333C244 22 244.667 22.6666 244.667 23.3333C245.333 23.3333 246 22.6666 247.333 22.6666C247.333 22.6666 247.333 22.6666 248 22.6666C248.667 22.6666 249.333 22.6666 249.333 22.6666C250 22.6666 250.667 22.6666 251.333 22.6666C252 23.3333 252.667 22.6666 252.667 22.6666C253.333 22.6666 254 23.3333 254.667 23.3333C255.333 23.3333 255.333 23.3333 256 23.3333C256.667 23.3333 257.333 23.3333 257.333 23.3333C258.667 22.6666 260 23.3333 260.667 22.6666C260.667 22.6666 260.667 22.6666 261.333 22.6666C262.667 22.6666 264 23.3333 264.667 22.6666C265.333 22.6666 266 22.6666 266 22.6666C266.667 22.6666 266.667 22.6666 267.333 22.6666C268.667 22.6666 269.333 22.6666 270.667 23.3333C271.333 23.3333 272.667 24 273.333 23.3333H274C274.667 23.3333 275.333 22.6666 276 22.6666C276.667 23.3333 277.333 23.3333 278 23.3333C278.667 23.3333 278.667 23.3333 279.333 23.3333C280 24 280 24 280.667 23.3333C281.333 24 281.333 24 282 24C282.667 23.3333 282.667 24 283.333 24C283.333 24 284 24 284 24.6666C284.667 24 284.667 24 285.333 24C285.333 24 285.333 24 284.667 24C284.667 24 284.667 24 284 24C285.333 24.6666 287.333 24.6666 288.667 24H289.333C290 24 290.667 24 290.667 24C292 23.3333 292 23.3333 292.667 23.3333C292.667 23.3333 292.667 23.3333 292 23.3333C292.667 23.3333 293.333 23.3333 294 23.3333C295.333 23.3333 296.667 23.3333 298 22.6666C298.667 22.6666 298.667 22.6666 298.667 22.6666C298.667 23.3333 298.667 24 298.667 24C298.667 24.6666 298.667 26 298.667 26.6666C298.667 28 298.667 28.6666 298.667 30C298.667 32 298.667 34 298.667 35.3333C298.667 37.3333 298 38.6666 298.667 40.6666C298.667 42 298.667 43.3333 298 44.6666C298 45.3333 297.333 46 298 46.6666V47.3333C297.333 47.3333 298 48 298 48V48.6666C297.333 50 298 50.6666 298 52C298 53.3333 298 55.3333 298 56.6666C298 58.6666 297.333 60.6666 297.333 62.6666C297.333 63.3333 297.333 64 297.333 64.6666C297.333 65.3333 297.333 66 297.333 66C297.333 66.6666 296.667 66.6667 296.667 67.3333V68C296.667 68.6666 296 70 296 70.6667V71.3333C296.667 72 296.667 72 296.667 72.6666C296.667 73.3333 296.667 74 297.333 74C298 74.6667 298 75.3333 297.333 76V76.6666C297.333 77.3333 297.333 78.6666 298 79.3333C298 80.6666 298.667 82 298.667 83.3333C298.667 84.6666 298.667 86 298.667 87.3333C298.667 88.6667 299.333 90 300.667 90C301.333 90 301.333 90.6667 301.333 90.6667V91.3333C301.333 92 302 92.6666 303.333 92.6666C304 92.6666 304 92 304 92C304.667 92 304.667 91.3333 304.667 91.3333C304.667 90 304.667 88.6666 304.667 88C304.667 86.6666 304.667 86 304.667 85.3333C305.333 82.6666 305.333 80.6666 305.333 78C305.333 77.3333 305.333 76.6666 305.333 75.3333C305.333 74.6666 305.333 74 305.333 72.6666C305.333 71.3333 305.333 70.6666 305.333 69.3333C305.333 67.3333 304.667 65.3333 304.667 63.3333C304.667 60.6666 304.667 57.3333 305.333 54.6666C305.333 53.3333 306 52 306 50.6666C306 48 306 45.3333 306.667 42.6667C306.667 40.6666 307.333 38.6666 307.333 36.6666C307.333 35.3333 307.333 34 307.333 32.6666C307.333 31.3333 307.333 30 307.333 28.6666C307.333 28 307.333 27.3333 307.333 26.6666C307.333 26 307.333 25.3333 307.333 24.6666C300 22.6666 300 22.6666 300 22ZM19.3333 72.6666C18.6667 72.6666 18.6667 72.6666 19.3333 72.6666ZM20.6667 95.3333C20 94.6667 20 93.3333 20.6667 90.6667C20.6667 92 20.6667 93.3333 20.6667 95.3333ZM56 20.6666C54 20.6666 52 20 50 20.6666C48 20.6666 46 20.6666 44 20.6666C42.6667 20.6666 42 20.6666 40.6667 20.6666C40 20.6666 40 20.6666 40 20.6666C39.3333 21.3333 38.6667 20.6666 38.6667 20.6666C38 20.6666 37.3333 20.6666 36 20C35.3333 20 35.3333 20 34.6667 20C34 21.3333 33.3333 20.6666 32.6667 20.6666C32 20 31.3333 20 30.6667 20C30.6667 19.3333 31.3333 19.3333 32 19.3333C32.6667 19.3333 33.3333 19.3333 34 19.3333C35.3333 19.3333 36 18.6666 36 18C36.6667 18 38 18 38.6667 18C39.3333 18 40 18 40.6667 18.6666H41.3333C42 18 42.6667 18 43.3333 18C44 18 44.6667 18 45.3333 18C45.3333 18 45.3333 18 46 18C46 18 46 18 46 18.6666C46.6667 19.3333 46.6667 18.6666 47.3333 18C48 18 48 18 47.3333 18.6666C48.6667 18.6666 49.3333 18.6666 50 19.3333C50 19.3333 50 19.3333 49.3333 18.6666V18H50C50.6667 18 51.3333 18.6666 52.6667 18.6666C52.6667 18.6666 53.3333 18.6666 53.3333 19.3333C53.3333 19.3333 53.3334 20 54 20H54.6667C55.3333 19.3333 56 20 56 20C55.3333 20 54.6667 19.3333 56 20H56.6667C58 20 58 20 58 21.3333C57.3333 20.6666 56.6667 20.6666 56 20.6666ZM104 20.6666C102 20.6666 100 20.6666 98 20.6666C97.3333 20.6666 97.3333 20.6666 96.6667 20.6666L97.3334 20C99.3334 20 100.667 19.3333 102.667 20C103.333 20 104.667 20 105.333 20C105.333 20 105.333 20 106 20C105.333 20.6666 104.667 20.6666 104 20.6666ZM107.333 19.3333C108 19.3333 108 19.3333 108.667 19.3333C108 20 107.333 19.3333 107.333 19.3333ZM109.333 19.3333C109.333 18.6666 110 18.6666 110 19.3333H109.333ZM148 18C148 17.3333 147.333 17.3333 148 18ZM149.333 19.3333C148 19.3333 146.667 19.3333 145.333 19.3333C144.667 19.3333 143.333 19.3333 142.667 19.3333C142 19.3333 141.333 18.6666 140.667 18.6666H141.333C142 18.6666 142 18.6666 142.667 18C143.333 18 143.333 18 144 18C144 18.6666 144 18.6666 144 19.3333C145.333 18.6666 147.333 18.6666 149.333 19.3333ZM252 21.3333C252.667 21.3333 252.667 21.3333 252 21.3333ZM294 76C293.333 75.3333 293.333 74 292.667 73.3333C292.667 73.3333 292.667 72.6666 292 72.6666C291.333 72 290.667 70.6666 291.333 70C291.333 69.3333 292 68.6667 292 67.3333C292 66.6667 292 66 292 65.3333C292 64 292.667 62.6666 293.333 61.3333C293.333 66 293.333 71.3333 294 76Z" fill="#221E22"/>
</g>
<defs>
<clipPath id="clip0_19_346">
<rect width="320" height="320" fill="white"/>
</clipPath>
</defs>
</svg>
